<?xml version="1.0" encoding="UTF-8" standalone="no"?>
<!-- Created with Inkscape (http://www.inkscape.org/) -->

<svg
   width="1151.2749mm"
   height="225.10527mm"
   viewBox="0 0 1151.2748 225.10527"
   version="1.1"
   id="svg1"
   xml:space="preserve"
   xmlns="http://www.w3.org/2000/svg"
   xmlns:svg="http://www.w3.org/2000/svg"><defs
     id="defs1"><linearGradient
       id="swatch172"><stop
         style="stop-color:#ffffff;stop-opacity:1;"
         offset="0"
         id="stop172" /></linearGradient></defs><g
     id="layer1"
     transform="translate(-1399.7961,-2022.9362)"><g
       id="g158"
       transform="translate(27.904712,355.10889)"
       style="fill:#214478;fill-opacity:1;stroke:none;stroke-opacity:1"><g
         id="g157"
         transform="translate(-35.983333,-360.89153)"
         style="fill:#214478;fill-opacity:1;stroke:none;stroke-opacity:1"><path
           id="path156"
           style="fill:#214478;fill-opacity:1;stroke:none;stroke-width:8.64063;stroke-linecap:round;stroke-opacity:1;paint-order:stroke fill markers"
           d="m 2429.0254,2076.7361 c -7.8626,0.034 -24.5242,0.3569 -32.014,2.3952 -2.9897,3.5356 -1.7406,9.8138 -1.3922,14.212 0.1756,3.4222 1.1207,6.0984 1.2909,9.8687 0.033,0.7248 5.3567,1.4554 5.3893,2.191 1.2015,27.1619 1.2194,61.4298 2.2671,85.7395 0.1776,4.7875 0.7944,10.8017 2.3161,15.7102 0.3277,1.0572 1.557,2.5581 2.9264,2.4226 17.8267,0.447 35.188,-0.9006 52.8041,-2.1668 4.1111,-0.7802 12.0745,-0.6117 10.6251,-7.0544 -0.066,-8.6494 -0.2315,-20.9105 -1.2609,-29.3336 -10.5475,-1.2937 -23.352,4.8688 -33.6904,1.666 -1.8263,-9.3109 0.086,-42.5822 -2.1151,-92.0879 0.1498,-2.4798 -0.9752,-3.4727 -2.882,-3.5532 0,0 -1.6435,-0.021 -4.2644,-0.01 z m -897.817,0.3446 c -6.4546,0.1041 -13.6344,1.0227 -18.7074,1.2966 -3.9736,0.1454 -11.2538,-0.2518 -10.5621,5.7077 0.1222,4.8665 0.8553,13.9866 1.1177,19.7615 0.019,0.4056 5.329,0.8127 5.348,1.2217 1.806,38.8878 6.1415,88.4306 6.0333,101.5726 0.026,1.0985 0.2806,1.443 0.9058,1.4056 19.2876,-0.025 29.3633,-1.5451 33.0879,-2.2733 1.0383,-0.5245 1.5331,-1.3209 1.4274,-2.4174 -1.0065,-7.8821 -2.1986,-21.9896 -2.2583,-28.8938 h 19.0169 c 0.1458,6.3817 1.3375,19.8957 1.5451,27.0505 0.014,1.1142 0.8665,2.0523 1.6449,2.3797 7.2856,2.5466 34.6145,0.7691 34.2325,-2.835 -4.3867,-37.5414 -3.048,-77.4824 -6.0497,-115.0865 -0.214,-0.6988 -0.2848,-1.4771 -1.9048,-1.3948 -4.3151,-0.1894 -12.1295,0.5571 -23.1526,0.6212 -2.8421,0.017 -5.5405,0.4386 -7.5153,2.4804 -1.8471,16.9383 1.6737,37.6147 -0.4113,53.3571 -5.9692,1.2991 -13.0727,1.8228 -19.142,1.264 -4.325,-13.6246 -1.0692,-49.8701 -4.4323,-64.2101 -2.7392,-0.8393 -6.3509,-1.0701 -10.2237,-1.0077 z m 818.8539,3.636 c -23.0064,1.6744 -36.6364,12.2212 -48.1459,31.4529 -6.8411,13.2949 -10.2401,30.8648 -8.1566,45.8519 2.5729,14.249 9.8071,31.6811 21.8421,39.9645 18.7887,10.9973 42.7816,11.454 66.0626,10.9787 2.4318,-0.072 3.7297,-0.7236 3.837,-1.9808 1.32,-12.4378 3.4164,-49.6616 3.4478,-63.2235 0.095,-1.9806 0.1081,-3.929 -3.7558,-4.3755 -12.9216,-1.2293 -25.1802,-2.5596 -38.2757,-2.5724 -3.9484,4.1827 -2.6246,11.1797 -3.0882,16.537 -0.5091,3.5948 1.0995,6.0988 5.7278,6.9101 l 8.43,1.3695 -0.7627,8.7364 c 0.3593,5.3183 -6.3759,3.5001 -9.5674,3.2055 -16.9718,-2.576 -22.8128,-17.3393 -22.4307,-30.3749 0.3986,-13.517 12.8123,-27.1152 26.1307,-27.6459 8.8258,-0.4722 17.7246,1.5439 25.5023,5.9619 3.1279,0.9387 10.2278,-19.371 12.252,-26.4769 0.2268,-1.7879 -0.3072,-3.014 -1.4071,-3.8225 -8.7629,-7.0126 -19.5947,-10.2562 -37.6422,-10.496 z m -887.4228,0.7374 c -18.7283,0.297 -33.6985,4.623 -42.4843,12.3786 -8.1258,7.1729 -10.5376,14.0886 -9.3493,31.1449 1.1883,17.0563 15.8489,29.4006 34.3623,34.1017 6.0523,1.9942 14.5657,3.8512 16.8026,10.7668 0.902,6.7315 -8.0233,7.1262 -12.5352,6.489 -6.7392,-0.2123 -21.2218,-6.6276 -27.7874,-12.1801 -3.2344,3.7291 -10.1207,17.1895 -10.4066,35.4619 5.2202,3.0327 14.2291,8.4986 25.8707,10.4376 11.6417,1.939 37.346,2.0427 52.0935,-9.6211 10.8695,-9.4933 15.2753,-24.6823 11.9657,-39.7614 -3.3096,-15.0792 -26.2,-24.0773 -36.1456,-27.4758 -9.9455,-3.3983 -13.0897,-2.4448 -17.0062,-7.582 -8.8047,-14.1556 30.1708,-8.5749 41.0869,-8.0109 1.9843,-10.5977 1.6843,-22.4199 1.078,-31.0673 -2.815,-3.5274 -9.4586,-4.1543 -14.009,-4.6364 -4.6924,-0.3679 -9.2142,-0.514 -13.5361,-0.4455 z m 200.4373,0.2367 c -18.5823,0.3373 -37.9631,10.33 -45.9165,28.7119 -6.5134,13.7375 -8.708,29.2137 -7.4244,44.4319 3.3155,64.1264 63.3638,60.5463 80.2478,49.5112 18.2654,-9.938 25.1801,-32.7538 26.109,-52.9854 0.4755,-13.2782 1.0496,-27.1275 -4.6307,-39.3759 -8.7306,-19.2013 -28.6425,-30.1701 -48.3852,-30.2937 z m 384.2743,0.6093 c -13.0204,0.012 -32.9015,1.3507 -45.6401,3.871 -4.4328,1.6012 -7.6285,2.7911 -6.9195,7.0539 0.047,6.5576 2.1232,13.0915 2.7306,19.6205 0.064,0.6859 5.4205,1.3719 5.4865,2.0577 0.9232,9.5862 2.0285,19.1662 2.2903,28.8003 1.662,19.4775 3.9062,42.0888 6.089,61.5058 0.8434,5.5981 8.2718,3.0475 12.0969,3.8288 13.955,0.069 34.9868,1.3786 44.9239,-2.4299 9.7737,-3.8578 19.0061,-8.0865 25.1964,-18.4505 10.5995,-21.9251 -1.1466,-44.6885 -22.2214,-46.5233 4.8826,-0.072 15.8803,-9.734 18.6671,-16.1168 2.7868,-6.3829 1.5296,-16.6169 -0.8098,-22.316 -5.8251,-16.7947 -26.1709,-21.2013 -41.8899,-20.9015 z m 182.2126,0.3679 c -2.2277,0.013 -3.9333,0.1564 -4.8033,0.464 v -5e-4 c -13.65,5.7017 -16.7385,21.3183 -21.9532,34.2491 -3.098,9.4825 -8.051,24.7884 -10.5337,34.3612 -3.1521,10.3239 -5.2136,21.0492 -7.8972,31.4859 -0.5336,3.6857 -1.6503,7.7924 -1.6888,11.0536 -0.012,3.8347 0.2241,8.0619 4.8865,9.6496 8.6198,2.1982 17.5819,1.5055 26.3974,1.5978 1.0229,0.034 1.8462,-0.1985 2.1446,-1.1307 2.4141,-7.9975 1.707,-14.8918 4.5216,-22.8291 9.3902,0.026 18.7575,0.7462 28.0975,1.6769 2.8126,7.6868 2.3377,14.4796 2.5472,22.5418 0,1.3683 0.4891,1.4448 0.8656,1.8242 7.2898,3.5946 16.0226,1.6443 23.8796,1.8417 5.6227,-0.1542 14.1418,-1.7981 13.6736,-9.249 0.2232,-14.5974 -2.1407,-29.1816 -4.6555,-43.4981 -6.9597,-33.3282 -18.4839,-70.0853 -29.8323,-71.4959 -7.588,-1.438 -18.9665,-2.5803 -25.6496,-2.5425 z m 263.1633,1.3467 c -6.3175,-0.092 -8.8587,3.1247 -8.6848,9.5612 -2.123,29.6594 -1.212,63.1653 -1.9869,92.8827 0.1209,6.8463 -2.134,17.4777 6.4694,20.1853 7.4685,0.84 56.5471,2.3539 64.1159,-0.1008 0.7374,-0.1857 0.9258,-0.4646 0.9798,-1.1477 0.6048,-7.6687 1.1586,-16.172 0.043,-23.7009 -0.1318,-1.1326 -1.0458,-1.135 -1.8795,-1.2537 -10.1553,-1.5235 -20.8817,0.3493 -31.1743,-0.123 -3.4106,-5.6558 -2.9025,-16.4143 -1.7456,-22.2684 9.8938,-1.9635 20.3899,0.8906 30.1713,-1.2366 0.721,-0.1151 0.8533,-0.4975 0.9575,-0.8929 1.9418,-7.3584 2.1563,-15.4604 1.5472,-23.0968 -0.1518,-0.8027 -0.7203,-1.2303 -1.681,-1.3049 -7.5426,-0.6691 -20.0389,-0.6102 -30.7495,-1.682 -0.6801,-2.4142 -1.6739,-14.3031 0.7389,-14.6787 9.4589,-1.4723 21.6865,-0.1788 32.6771,0.2806 2.0745,0.076 3.2422,-0.8058 3.2582,-2.9032 -0.038,-7.5813 0.2376,-15.3189 -0.1106,-22.7888 0.01,-2.0639 -1.844,-3.7017 -4.9625,-3.6308 l -56.6694,-2.0381 c -0.455,-0.036 -0.893,-0.056 -1.3141,-0.062 z m -750.0354,0.6573 c -5.4444,0.2829 -14.3202,0.5224 -14.8311,7.6626 -0.7238,8.5645 -3.6581,100.7479 -1.6712,109.7612 1.173,5.8533 14.152,5.3841 19.6949,5.2938 16.3222,0.036 32.6445,-0.1098 48.9665,-0.1768 1.1778,-0.032 2.2007,-0.4117 2.4727,-2.4815 v -21.1077 c -0.084,-2.6615 -1.7742,-2.8 -3.4173,-3.0122 -10.5598,-0.3281 -21.2659,0.031 -31.6498,-1.4862 -1.7407,-7.3916 -0.5201,-15.2455 -0.8997,-22.8121 9.4306,-2.9567 19.6582,-0.3912 29.3874,-0.6237 4.5192,0.1427 3.6066,-6.5933 4.1408,-9.8903 0.2601,-4.9509 0.3313,-9.9089 0.4522,-14.8648 0.087,-2.3628 -1.7018,-2.9678 -4.191,-2.9156 -9.437,0.1987 -18.9917,1.3462 -28.2716,-0.1131 -1.1436,-3.0566 -1.4077,-9.8645 -0.7054,-12.1414 2.4351,-0.7712 24.6448,0.1957 33.5897,-0.2951 1.5284,-0.1134 2.2438,-0.8078 2.6448,-1.7265 1.8771,-7.2238 0.918,-15.2927 0.7705,-22.7681 0.6969,-3.5324 -2.0294,-4.7081 -5.0493,-4.3739 -17.1057,-1.2506 -34.2848,-1.7628 -51.4331,-1.9286 z m 382.3209,0.5106 c -5.2335,0.018 -10.4314,0.1219 -15.5572,0.34 -6.159,0.5032 -6.5747,7.4434 -6.6017,12.2452 -0.6289,32.463 -1.4302,67.6228 -0.3436,100.0761 -0.4232,8.0057 8.8686,9.3248 14.9267,9.5193 7.1168,0.2224 14.2393,0.063 21.3579,0.02 11.0244,-0.5422 22.4424,-0.4584 33.2594,-2.7291 1.06,-0.2218 1.6335,-0.8767 1.6635,-2.0138 1.0165,-7.6525 0.7573,-14.9328 -0.089,-22.6296 -0.078,-1.3963 -1.0728,-2.3155 -3.777,-2.3415 -9.2964,-0.3706 -28.6793,0.1125 -31.9221,-1.033 -0.067,-2.4675 -0.6241,-9.6556 0.1995,-12.6845 11.1638,-0.6282 21.7711,1.6999 32.3768,-0.2733 2.0382,-3.1282 1.5747,-26.953 -3.0137,-26.7984 -9.8475,-0.4478 -23.8507,-0.4736 -29.7538,-0.7421 0.5145,-7.6098 -0.4812,-14.9825 1.4097,-22.4002 11.1489,-2.2484 24.0707,0.7309 35.3188,-1.0035 2.4402,-5.5104 1.1108,-12.3254 1.4806,-18.3224 -0.3805,-2.9762 1.126,-8.8073 -3.8375,-7.8884 -15.3744,-0.6847 -31.3971,-1.3961 -47.0974,-1.341 z m -77.2351,23.3365 c 7.0523,-0.1062 14.0455,7.7674 9.8795,13.5641 -3.8371,5.7996 -12.0073,9.2056 -18.7069,6.1913 -1.3288,-5.6449 -2.3157,-12.1294 -2.206,-17.8206 1.851,-1.4308 7.7708,-1.744 11.0334,-1.9348 z m -385.7537,10.2826 c 4.2526,0 16.723,1.7429 18.9632,16.8677 1.9251,11.8918 -0.361,28.7086 -11.9011,34.9018 -6.646,3.2936 -16.3742,-1.6207 -20.1264,-8.769 -5.9128,-11.8257 -5.742,-28.6882 3.6897,-38.4969 2.6497,-2.7124 5.7354,-4.5012 9.3746,-4.5036 z m 576.9844,5.7619 c 5.7738,3.1028 6.7684,13.7875 7.9354,19.7663 0.5631,2.4389 2.5871,11.5682 -2.2407,11.4318 -5.4776,-0.1666 -13.4329,0.028 -17.5715,-1.9983 -0.2763,-5.6456 5.837,-28.1875 11.8768,-29.1998 z m -192.0172,31.1273 c 8.443,-0.3909 19.1912,8.7913 15.229,18.2273 -4.1714,5.9729 -13.9539,6.0022 -20.547,6.0136 -2.2934,-5.9259 -3.1442,-14.2141 -3.4944,-19.5487 -0.3112,-3.3129 5.3826,-4.6395 8.8124,-4.6922 z" /><g
           id="g156"
           transform="translate(0,1.5875)"
           style="fill:#214478;fill-opacity:1;stroke:none;stroke-opacity:1" /></g></g><g
       id="g146"
       transform="matrix(0.9025,0,0,0.9025,-185.99882,1170.9684)"><g
         id="g141"
         transform="matrix(0.947625,0,0,0.947625,536.37588,-81.796665)"><g
           id="g140"
           transform="matrix(1.1053559,0,0,1.1053559,2510.4227,266.80109)"><path
             id="path139"
             style="fill:#214478;fill-opacity:1;stroke:none;stroke-width:3.95658;stroke-linecap:round;stroke-opacity:1;paint-order:stroke fill markers"
             d="m -572.52088,737.96733 c 1.79888,1.68715 1.75354,2.28685 1.70828,4.62039 -0.79314,-1.1025 -6.60642,-4.48325 -10.22396,-4.50539 1.55526,2.49278 4.26801,4.55592 1.88219,7.50213 -0.93485,1.00827 -2.47907,1.69276 -4.91399,2.11781 -6.18957,0.52104 -15.67688,4.62959 -21.94022,10.24454 -5.10801,4.45262 -7.74239,10.84854 -10.45211,16.85465 -3.0399,-0.15068 -5.8533,-2.13237 -8.72747,-3.1426 -8.25358,-3.33108 -15.91903,-8.45901 -24.76023,-10.12392 -7.69673,-0.67504 -13.99682,4.96198 -19.30954,9.77095 -5.34526,5.40308 -11.55066,10.69622 -14.16928,18.05288 -1.87345,5.52037 3.08474,10.10232 7.57879,12.29503 7.45662,3.34436 15.51807,5.78767 23.71676,6.16084 7.78917,-0.72003 14.76082,-4.76935 22.05382,-7.28988 3.44782,-1.04463 13.18085,-5.23475 15.11084,-6.489 -0.38361,2.33403 -0.25915,4.99141 0.46097,8.97709 1.19683,2.50058 3.4636,5.577 4.03741,8.42732 -2.18283,3.86554 -6.12725,9.1332 -2.70735,13.39415 1.27299,0.0394 1.32235,-2.65826 2.50445,-2.51473 -0.38092,3.07959 -0.6948,7.09134 1.78869,9.35673 2.35065,-1.22351 4.74866,-3.592 7.6176,-2.48855 6.09557,0.41656 12.98892,1.14237 17.09682,6.25761 1.03769,1.19532 -1.71364,0.93551 -2.32025,1.16363 -13.10397,1.17806 -26.65827,1.61675 -38.8304,7.19264 -2.76754,0.89804 -5.04056,2.71243 -6.30016,5.36747 -4.49611,6.86374 -7.44889,14.7949 -13.42219,20.61577 -2.42437,2.40177 -3.77331,5.61161 -3.54045,9.10147 0.25372,2.90619 1.17688,6.48327 3.72374,7.55157 0.24008,0.10071 1.29461,-0.30985 1.29461,-0.30985 0,0 0.45513,0.96018 0.8172,1.33942 1.49875,1.56981 2.24278,1.83547 3.24301,2.072 0.52106,0.12322 1.2427,-0.0836 1.95152,-0.4166 0.35815,0.63703 0.69162,1.73931 1.36223,1.91912 1.42968,0.84634 2.49099,0.52122 3.59277,0.19405 1.1989,-0.4514 2.23007,-1.14254 3.14166,-1.98364 0.43611,-0.40238 1.05849,-1.5112 1.15799,-2.10535 0.39184,0.0948 1.11705,0.14106 1.74386,-0.0495 1.67846,-0.51034 2.20899,-2.85728 2.91302,-4.78026 0.77,-2.54232 0.86497,-7.16011 -1.62645,-9.51282 -2.16485,-2.16657 0.10305,-4.83101 1.27256,-6.83873 2.02838,-3.10546 3.98652,-6.27967 6.2277,-9.23144 7.40974,-1.78101 15.14366,-3.19196 22.77238,-2.42076 1.42991,0.70935 0.56542,3.03358 0.89949,4.31604 0.33675,8.4155 -2.43968,16.82535 -7.03462,23.80699 -4.45199,4.64177 -10.46061,7.5711 -14.80368,12.28942 -0.076,2.21529 1.75528,4.18023 2.50772,6.22302 -1.69724,3.06121 -3.80684,6.04738 -7.24967,7.26088 -5.26759,2.47834 -11.45316,1.93237 -17.0309,0.97009 -6.28838,-1.91083 -11.90598,-5.5848 -16.36657,-10.39367 -2.19944,-1.99647 -4.36968,-5.00098 -7.79339,-4.13185 -2.17885,0.87596 -1.39822,4.09331 -1.34829,5.97477 0.76798,7.07357 4.51652,14.10009 11.10802,17.29691 5.90986,3.59908 12.9074,4.3136 19.67841,4.26042 1.87449,0.54755 5.0892,-1.0812 5.72886,1.47218 0.68815,1.54605 1.94879,3.09056 2.25386,4.69286 -2.20261,2.15421 -4.69248,3.98917 -7.05004,5.96683 -4.25173,0.16862 -8.50408,0.33732 -12.75599,0.50584 -1.33753,-3.12818 -5.3097,-2.667 -7.21461,-5.1959 -2.84239,-3.19011 -7.14367,-7.13145 -11.71485,-4.79244 -5.38932,2.98733 -7.17047,9.49524 -9.31606,14.85184 -2.99931,9.09455 -6.75864,18.56921 -5.09165,28.31845 1.48944,5.40536 7.90618,9.92551 13.32028,6.98179 3.94448,-2.54175 6.78678,-6.75871 6.89764,-11.54935 0.29491,-4.37829 3.02994,-7.87288 5.36513,-11.3488 1.06083,-1.78954 0.97693,-5.68309 3.99253,-5.11315 7.14679,1.00364 14.15885,5.4261 21.50684,3.46191 5.70239,-2.19035 10.83007,-5.61578 15.72842,-9.21601 3.38663,0.90579 7.11347,1.65698 10.52551,1.34596 5.11197,-3.24372 9.84322,-7.03129 14.51336,-10.87053 5.96775,-0.73244 11.04176,3.03161 16.33619,5.1052 3.62338,1.64275 7.22457,3.33284 10.82144,5.03274 4.95912,-2.41443 9.4416,-5.65081 13.77049,-9.04023 6.16012,3.13362 11.984,6.91807 17.25343,11.39554 -0.004,2.38566 -0.37781,5.29154 2.13372,6.63723 2.22875,1.19886 3.12599,3.49842 3.59187,5.85088 1.25429,4.57167 5.49863,8.98085 10.49372,8.6134 5.93996,-1.69516 9.27537,-7.57186 12.50073,-12.38012 5.32643,-9.32503 10.5338,-19.01732 12.81257,-29.59849 0.49257,-3.84369 1.73086,-8.75899 -1.85321,-11.54842 -3.31864,-3.43746 -9.02615,-3.95551 -13.09587,-1.65498 -6.88528,4.84452 -8.7163,13.63683 -11.13935,21.09776 -1.82263,-0.8213 -4.414,-2.40694 -5.87566,-0.0883 -1.42901,1.6431 -2.64741,-1.24796 -3.66434,-1.97056 -3.81881,-4.62257 -8.2879,-8.64912 -12.65268,-12.70784 -0.46898,-1.40898 -0.49249,-3.13131 -2.30622,-3.59608 -3.00998,-1.62565 -6.07906,-3.13866 -9.1155,-4.71343 0.91681,-12.62232 5.08855,-24.90629 4.43947,-37.65462 -0.0537,-1.61601 -0.88038,-6.00837 0.65124,-5.33895 5.43768,3.53189 11.54853,6.88534 18.26513,6.31371 5.97994,-0.16258 11.58422,-3.17715 16.26559,-6.70642 2.55999,-1.97594 5.99828,-4.93533 7.47306,-6.43687 2.8899,-0.24364 10.95823,-2.13818 11.72104,-8.85336 0.0381,-0.66975 -0.0954,-1.14239 -0.33648,-1.52068 2.56063,-0.24657 2.56116,-7.55954 -0.7239,-9.41777 -0.18629,-0.17838 -0.57609,-0.15029 -0.552,-0.38998 0.15587,-1.55118 0.33009,-5.11983 -1.85053,-6.59695 -0.64129,-0.54846 -1.55891,-1.28006 -2.69447,-1.88484 -0.34751,-0.51707 -0.36611,-1.70442 -0.58557,-2.13107 -1.6751,-3.56302 -7.24333,-3.22503 -9.16319,-0.0201 -2.33111,2.46386 -3.12493,6.30342 -6.51615,7.67463 -3.05486,1.85447 -2.37503,6.77826 -2.13184,8.88222 0.256,2.01505 1.46933,4.25946 1.10286,6.33381 -7.74631,3.87255 -17.21515,3.15156 -24.79063,-0.82468 -5.66474,-2.62168 -11.3744,-5.24967 -16.57087,-8.73542 2.87517,-2.333 5.11881,-5.36701 5.83919,-9.06033 1.04293,-2.44256 1.02561,-5.8253 3.26369,-7.52877 4.27626,-0.33507 8.08495,-2.53366 12.0767,-3.80927 3.78944,-0.17208 8.0387,0.55955 11.10709,-2.28191 5.96708,-4.30454 9.43534,-11.76626 8.45678,-19.12067 -0.59193,-4.20508 0.26191,-8.49427 -0.42497,-12.65829 -1.43714,-4.09797 -6.56463,-3.71602 -10.08044,-3.62553 -6.69018,-0.22762 -12.86996,2.95171 -18.93647,5.02806 -0.47816,-4.61746 -1.44063,-9.19336 -2.08182,-13.77984 3.614,0.77222 7.38066,1.85045 11.18937,1.46377 5.17536,0 10.94641,-2.56753 12.79761,-7.6924 1.07686,-3.03116 0.43532,-6.65583 -2.43339,-8.45444 -6.38555,-3.62882 -14.21313,-3.86068 -20.39183,-8.01779 -4.60267,-2.56342 -9.28136,-7.41733 -15.00752,-5.88828 -2.1662,0.36724 -3.96515,1.66063 -5.85555,2.57271 -1.02996,0.0235 -3.57525,0.29191 -3.25574,-0.24685 1.75996,-8.51766 -3.48219,-9.94123 -7.05939,-9.75785 z m 3.13091,2.02712 c 2.19769,2.43831 3.9056,8.28908 -0.528,8.94445 -15.49229,3.08659 -27.29164,13.82485 -35.59832,26.89061 -0.71652,0.94989 -0.94489,2.00363 -2.08048,2.16412 -1.91237,-0.0371 -3.99486,-1.2724 -5.51568,-2.25093 2.46002,-7.05144 7.72244,-13.5539 13.24548,-18.40268 5.43674,-3.98296 12.78699,-5.44271 19.11792,-7.18332 3.8059,-1.22233 5.89427,-5.27304 4.2977,-8.96356 5.51718,2.24238 4.07159,5.73506 4.20209,6.54887 2.27547,-0.97698 3.63102,-4.13304 2.85929,-7.74756 z m 15.79948,8.3413 c 5.49327,1.23489 9.43856,5.92646 14.79808,7.62882 5.37444,2.23684 11.51739,2.8748 16.35254,6.25154 2.41774,2.5299 0.20165,6.25216 -2.60449,7.31792 -4.22822,2.14531 -9.32336,2.24817 -13.91589,1.51193 -5.05649,-1.25299 -8.34197,-5.83142 -9.86819,-10.56011 -0.72006,-2.11889 -3.06058,-2.40806 -4.698,-3.32539 -0.14421,-3.08315 -2.22057,-5.49679 -3.96074,-7.83032 1.17565,-0.4202 2.77685,-1.09103 3.89669,-0.99439 z m -7.77935,2.78262 c 2.75647,0.19098 5.23856,2.64982 5.87706,5.22348 -6.10867,0.97213 -12.65429,0.41894 -18.30861,3.45583 -10.17408,5.06883 -18.10572,13.62037 -25.34415,22.18893 -5.14603,6.1305 -8.71964,13.31555 -12.28522,20.41427 -0.7791,0.55761 -1.01611,-1.64662 -1.24077,-2.09725 -0.85844,-4.25916 2.01469,-8.17287 3.38103,-12.03229 7.25591,-16.28197 20.72988,-30.6913 38.1067,-35.94914 3.18768,-0.89812 6.51108,-1.21068 9.81396,-1.20383 z m 0.17344,8.35532 c 0.84479,-0.0359 1.69442,-0.0335 2.54699,0.009 2.61741,0.253 5.93703,-0.14515 7.9687,1.70687 -1.66231,-0.0409 -4.33987,0.43776 -4.31511,2.59187 0.76072,1.7672 1.87507,0.0276 2.94952,-0.14352 1.5483,-0.022 2.48678,1.50284 3.52268,2.41796 -2.24732,-0.0733 -4.45768,1.17354 -4.52222,3.65078 -0.49246,7.5065 2.61877,14.64774 5.14214,21.55686 -2.7552,0.52814 -2.28835,1.37976 1.07994,0.77981 4.44413,-0.80367 8.77788,-2.78402 13.05053,-3.75504 -0.0659,6.93055 5.11935,12.58352 10.36562,16.48064 2.02228,1.10323 -0.4148,3.17883 -0.71155,4.61292 -3.85811,7.45553 -12.01621,12.19419 -20.38061,12.07764 -9.25338,0.48366 -19.00912,-2.83721 -25.03933,-10.0739 -0.91643,-1.28657 -3.00772,-4.09683 -0.55961,-4.87659 1.50575,-0.77754 5.67706,-1.02026 1.87471,-1.39692 -3.9782,-0.17706 -8.59106,0.44939 -10.91167,4.12017 -0.58504,0.42657 -0.9289,2.01452 0.26508,0.97802 1.56145,-0.83295 3.98203,-2.90472 5.6606,-1.42917 1.46519,6.15809 3.37305,12.83589 7.15336,18.03464 -2.1592,2.09168 -6.1675,4.59286 -10.2545,6.65022 -1.4663,0.84639 -3.53851,2.77011 -4.34114,4.68543 -0.47506,-0.7741 -0.88898,-1.59132 -1.20851,-2.47032 -2.92528,-6.41931 -10.36928,-8.61686 -16.88691,-8.75317 -0.71363,0.0241 -2.75031,-0.11022 -1.38056,-1.10894 1.18288,-1.39926 -1.34787,-0.64234 -1.95138,-0.34034 -2.01594,0.61108 -3.93894,1.94365 -5.8953,2.42356 -0.71787,-4.27721 1.38395,-8.15889 3.09351,-11.90559 -1.26246,-0.36001 -2.99909,0.96438 -4.20244,1.626 -0.31729,0.308 -2.64973,2.02635 -1.66761,0.39691 1.07,-2.63294 3.59417,-4.87454 3.80039,-7.75411 -0.81148,-2.85979 -2.30928,-5.9814 -0.46658,-8.81255 6.71176,-14.28206 17.92963,-25.91062 30.01551,-35.80281 4.62548,-3.76967 10.2922,-5.92536 16.20575,-6.17674 z m -89.67719,5.36608 c 5.58951,0.83019 10.4172,4.24448 15.61668,6.29174 8.34969,3.96859 17.13216,6.89352 26.05524,9.25014 1.80956,0.29176 -0.56889,2.2646 -0.54886,3.17252 -1.52353,2.57984 -2.34811,6.45534 -5.8434,6.96823 -10.40644,3.53193 -20.19392,8.68318 -30.59522,12.1861 -9.5331,2.26384 -19.38145,-0.34747 -28.09124,-4.28893 -2.7276,-1.54284 -6.6723,-3.73523 -6.25013,-7.38104 1.94035,-6.54814 7.12172,-11.49179 11.6695,-16.35301 4.99588,-4.73284 10.52295,-10.24945 17.98743,-9.84575 z m 80.57431,0.67695 c -5.74615,0.49299 -8.83048,6.93738 -8.22629,12.17068 0.0989,6.21226 3.34558,11.79551 6.66201,16.82099 -4.92063,1.26443 -11.07929,2.00442 -14.06923,6.50866 5.95947,-2.99556 12.66668,-4.12974 19.29598,-4.50632 2.14717,-0.47387 4.8723,0.16295 6.68539,-1.19683 1.33248,-3.8306 0.65755,-8.13018 0.29266,-12.10148 -1.11667,-6.11079 -2.8461,-12.91379 -7.94345,-16.93506 -0.79346,-0.52625 -1.74608,-0.79205 -2.69707,-0.76064 z m 0.30342,1.91118 c 3.93466,1.14218 5.44227,5.72868 6.90465,9.13186 1.29373,3.85905 2.81393,12.29576 2.11753,16.40417 -0.63764,0.0438 -1.94566,-0.30815 -3.48354,0.0197 0.042,-4.61148 -0.57728,-8.35358 -2.69338,-11.74924 -0.48532,-1.55219 -3.68976,-3.74998 -4.8088,-1.66433 -1.20983,4.93986 -0.0663,10.12098 1.30295,14.87428 0.0721,-0.43837 -0.0495,-2.34 -1.26134,-3.69567 -3.95186,-5.6872 -6.11092,-13.70287 -2.71249,-20.12534 1.03904,-1.54147 2.7048,-3.04385 4.63442,-3.19543 z m 20.31749,0.74007 h 4.7e-4 c 3.13931,1.09626 3.94321,5.08007 5.01825,7.85416 0.97788,3.87355 2.04571,8.80963 -0.0374,13.23425 -0.28655,-3.97218 -0.62861,-11.63852 -4.40253,-12.97619 -1.43481,-0.51428 -1.33028,1.24141 -1.62086,1.23703 -0.11878,-0.002 -0.64923,-1.9819 -0.64423,-2.49136 -0.3266,-1.79117 -1.3291,-4.1939 0.66247,-6.46518 0.27601,-0.25187 0.64509,-0.41689 1.02384,-0.39271 z m 27.69292,17.9935 c 1.1815,-0.27146 3.03525,0.89236 1.8261,2.08603 -2.10241,1.70616 -5.43496,2.08562 -7.91213,1.16924 -0.68744,-2.29637 2.74006,-2.78316 4.3109,-3.14821 0.58772,-0.0825 1.18154,-0.12563 1.77513,-0.10706 z m 9.1127,10.56384 c 0.60378,6.07674 -2.07588,12.24225 -6.07716,16.72609 -2.25717,2.32606 -5.62173,4.23415 -8.87099,3.98645 2.76425,-3.22749 4.85183,-7.126 6.41844,-11.12018 1.46352,-1.61241 3.45422,-2.89526 4.82142,-4.71202 1.39147,-1.50683 2.65041,-3.12364 3.70829,-4.88034 z m -25.7565,4.62928 c -0.70965,3e-5 -1.28488,0.39837 -1.28472,0.88967 -1.6e-4,0.4913 0.57507,0.88964 1.28472,0.88967 0.70965,-3e-5 1.28488,-0.39837 1.28472,-0.88967 1.6e-4,-0.4913 -0.57507,-0.88964 -1.28472,-0.88967 z m 4.24966,3.1627 c -0.54583,0 -0.98832,0.44249 -0.98831,0.98832 0,0.54583 0.44248,0.98831 0.98831,0.98831 0.54583,10e-6 0.98832,-0.44248 0.98832,-0.98831 10e-6,-0.54584 -0.44248,-0.98833 -0.98832,-0.98832 z m -4.64517,3.6419 c -0.57484,0 -1.0408,0.53777 -1.04068,1.20104 1.1e-4,0.66309 0.46601,1.20056 1.04068,1.20056 0.57467,-10e-6 1.04056,-0.53748 1.04067,-1.20056 1.2e-4,-0.66327 -0.46584,-1.20103 -1.04067,-1.20104 z m -20.35327,16.95065 c 4.97399,0.10087 5.89625,3.64264 5.22298,6.98271 -0.20777,1.18455 -1.40348,3.29242 -6.27631,7.11543 -1.72234,1.35127 -9.89459,5.30731 -11.4,5.29284 -14.21603,1.35169 -6.48215,-7.1631 -3.13608,-9.65096 1.49763,-1.11648 9.34835,-4.48316 10.96328,-7.50626 0.25041,-0.48118 -0.77152,-2.13156 -2.56486,-4.22196 -0.34419,-0.55109 -0.46461,-0.9903 -0.57129,-1.42263 2.77991,-0.0128 6.67608,1.82301 7.76228,3.41083 z m 12.96615,-0.90899 c 0.71645,0.0552 1.24916,0.37741 0.74895,1.295 -1.53731,3.95023 -2.65573,8.63847 -6.2146,11.28848 -1.11165,0.51532 -2.25243,0.76707 -3.4016,0.90463 2.52956,-1.76836 3.78602,-4.8213 4.93329,-7.18339 1.14727,-2.36209 0.94941,-4.39384 2.32806,-6.10323 0.2173,-0.0718 0.52878,-0.14159 0.85975,-0.17999 0.24824,-0.0288 0.50733,-0.0399 0.74615,-0.0215 z m 48.34422,2.8864 c 2.32836,0.12927 3.9564,3.44943 1.62366,4.87752 -1.32887,1.01283 -2.23497,3.23532 -3.94719,3.51988 -1.19479,-1.11006 -2.79507,-1.59842 -4.32119,-2.07667 1.77576,-2.24754 3.40659,-6.0444 6.64472,-6.32073 z m 4.99066,5.79478 0.0893,0.004 c 2.01538,0.69012 2.31264,3.38262 2.31464,5.20665 -2.25944,1.3689 -4.44357,3.08192 -6.51007,4.59515 -0.72853,-1.48805 -0.31435,-3.53166 -1.0215,-5.14588 0.58806,-2.20061 2.90037,-3.99806 5.02993,-4.65592 z m -12.84622,3.04255 c 3.76072,-0.0496 8.45764,4.373 5.74989,8.02199 -1.34388,1.35658 -3.73411,-0.56081 -2.84853,-2.28518 0.1947,-0.45972 0.85502,-2.51952 0.0276,-1.71483 -0.90969,1.02806 -2.78284,2.04129 -2.93876,3.37869 2.18173,0.4931 3.1644,3.37917 5.70946,3.02505 2.3354,1.39441 3.32522,4.39073 4.457,6.78611 0.87847,-2.80564 3.83262,-4.50407 6.62835,-4.4175 0.88376,2.28204 -1.83083,4.37039 -3.68912,5.2305 -2.6485,1.14215 -6.08767,2.46076 -8.45584,0.0337 -0.48344,-0.29384 -2.50395,-1.70189 -1.62226,-0.13511 0.30186,1.61899 2.84952,3.07879 0.78962,4.59234 -7.1505,6.06878 -16.4594,11.78345 -26.23102,9.47361 -4.57921,-1.50958 -9.09765,-3.61561 -13.07764,-6.3067 -1.1564,-0.92804 -2.14306,-2.13776 -2.54839,-3.55073 -0.52123,-1.40807 -0.94,-2.44977 -1.86022,-4.55355 -1.42912,-2.83551 -2.86166,-5.67121 -4.28894,-8.50633 7.10324,3.97198 14.37295,7.81358 22.06552,10.50447 5.76142,1.38322 11.99832,0.28207 17.32823,-2.10566 2.11701,-1.07532 3.73359,-3.33106 2.67556,-5.74476 -1.04833,-3.62971 -2.56659,-8.3823 0.53951,-11.4306 0.46749,-0.3044 1.04964,-0.33529 1.59,-0.29547 z m -76.88665,2.54468 c 0.77271,0.88521 0.61068,0.9637 0.78359,2.26225 -1.09245,2.99767 -0.11516,5.79322 6.4161,5.91446 3.66284,3.27479 7.56904,6.16128 12.53065,7.16505 2.48034,0.66103 5.91261,0.27122 6.52877,-2.7368 0.59476,-2.57618 -0.63321,-5.17446 -0.90743,-7.7326 0.91588,-0.98156 2.77166,-2.15212 3.6087,-0.40393 4.66115,6.80651 8.27012,14.4588 10.31279,22.46383 1.65512,8.56351 0.25397,17.34643 -1.53343,25.7752 -1.05691,4.99844 -1.64064,10.16756 -2.88313,15.08372 -3.71732,1.68563 -7.98569,1.99497 -11.97385,2.81721 -8.68797,0.61114 -17.44518,0.74169 -26.1436,0.27957 -7.46643,-1.10085 -15.00324,-3.54201 -21.10384,-8.07996 -1.86315,-1.72654 -4.3572,-3.24615 -5.44508,-5.55589 2.40959,-3.16603 6.17628,-5.10216 9.22443,-7.63723 1.52602,-1.51543 1.58214,-0.69402 0.75175,0.82609 -0.12528,0.73974 -1.12951,2.08648 -0.64937,2.65031 4.07883,-5.37149 7.45485,-11.41913 9.86164,-17.74432 0.73191,-1.57702 0.7707,-3.72238 1.43245,-5.13746 0.23442,1.12298 1.17217,1.77336 2.15756,0.82469 2.26395,-1.23927 5.0357,-2.05898 6.9514,-3.68024 4.06978,-7.16013 4.70242,-16.96646 -0.74241,-23.60782 -0.79019,-1.20674 -2.29898,-2.37782 -3.08695,-3.23514 0.1841,-0.11023 3.70164,-0.52586 3.90926,-0.51099 z m -6.91682,1.32016 c 4.61631,3.32256 8.45933,9.50222 7.55454,15.34559 -0.27962,4.06003 -1.53371,8.49882 -5.37308,10.58582 -0.68057,0.37613 -2.548,2.25829 -2.42497,0.25198 -0.64658,-3.84289 -0.9001,-7.73825 -1.19215,-11.61948 1.34406,0.26342 3.44634,0.93071 4.52409,0.62787 -2.18449,-1.40074 -5.50742,-2.03687 -6.5975,-4.50025 0.0501,1.87976 -2.71738,0.74705 -3.79103,1.05657 -7.11269,-0.44988 -14.31978,0.52479 -21.0585,2.80179 -3.59499,2.47018 -5.56523,6.67311 -8.10708,10.12251 -1.13186,2.21303 -3.31419,4.30347 -3.2735,6.88174 1.42883,2.8735 4.4668,4.5046 3.9989,8.76891 -0.20826,1.50951 -0.92445,3.30361 -1.70015,4.82814 -0.44979,-1.9649 0.19966,-4.64381 -1.28192,-6.19637 -1.20313,0.31057 -0.91787,2.41626 -0.96493,3.33942 -0.0681,2.97667 -1.43496,7.24753 -4.92942,7.38945 -2.38496,0.10215 -1.92405,-2.41673 -2.43433,-3.85929 -1.2521,-0.60123 -1.47505,1.53674 -2.26931,1.63317 -0.20659,0.0251 -0.51601,0.16876 -0.82807,-0.16653 -0.91276,-0.53298 -1.70862,-1.46909 -2.33508,-2.2933 -0.56925,-0.74894 -0.94563,-1.61747 -0.99345,-2.60439 -1.16427,-0.81733 -1.77557,3.02204 -2.35438,0.70921 -1.35569,-4.02808 -1.00278,-8.85696 2.28191,-11.8897 6.64463,-7.06088 9.93517,-16.58253 16.54984,-23.64102 4.47518,-3.02167 9.91493,-4.34444 15.11037,-5.59983 7.38026,-1.11609 14.45125,-1.51944 21.8892,-1.97201 z m 100.56134,0.9089 c 1.78448,1.045 2.02103,3.66721 1.46938,5.40441 -2.88497,0.63508 -5.41762,1.89807 -8.33027,2.00641 -1.08413,-0.47569 -2.22765,-1.823 -0.80038,-2.70922 2.27867,-2.05142 4.62128,-4.04324 7.66127,-4.7016 z m -73.04367,1.777 c 0.24542,0.22347 0.5125,0.42465 0.75175,0.65451 1.20759,0.98842 1.58685,1.52563 2.65125,2.14728 -0.0346,0.2033 -0.0394,0.84172 -0.10286,1.71856 0.33663,1.82105 0.003,4.43976 -2.38242,4.39132 -3.9351,-0.25625 -7.21759,-2.57524 -10.33897,-4.93831 1.69502,-0.31889 6.11402,-2.27723 9.42125,-3.97336 z m -12.75782,15.25627 c -0.57011,1.84914 -0.68319,3.73645 -1.27423,5.66853 -0.8686,4.03475 -2.60762,8.6729 -2.77889,12.79488 3.21048,-0.40389 6.86374,-0.30985 9.66612,-0.22739 0.26875,-0.89689 0.66266,-2.10042 -0.0508,-3.09902 -1.6351,-0.60772 -3.56476,0.25308 -5.19029,-0.34315 0.71776,-4.51441 2.42749,-9.17284 2.67257,-13.72457 -0.64435,-0.68162 -2.15042,-0.93083 -3.04448,-1.06928 z m 24.5164,1.47917 c -0.49813,-0.006 -1.11837,0.61393 -1.45021,1.44928 -0.36512,0.91915 -0.25204,1.76729 0.25292,1.89434 0.50478,0.1273 1.20991,-0.51438 1.57504,-1.43338 0.36513,-0.91917 0.25203,-1.7673 -0.25292,-1.89435 -0.0398,-0.0101 -0.12483,-0.059 -0.12483,-0.0159 z m -5.64301,2.05879 c -0.17994,0.92634 -0.41431,2.67225 -0.41431,2.67225 -0.48804,-0.0469 -1.0934,-0.22364 -1.53659,0.0128 -0.28645,0.3126 -0.21686,1.56343 -0.14796,1.95375 0.0733,0.41521 0.77794,0.30361 1.19126,0.51475 -0.0209,2.94589 -0.66128,5.89474 -0.36759,8.75401 0.76844,0.34024 1.94128,0.6174 2.42076,0.23983 0.68584,-0.54008 0.5126,-1.99974 0.46891,-2.95653 0.12638,-1.7487 0.061,-3.70613 0.37894,-5.5858 0.70315,0.0652 0.87828,-0.0216 1.55619,-0.0526 -0.0118,-0.42631 0.16895,-1.52576 0.19736,-2.52774 -0.83086,-0.19269 -1.76356,-0.2329 -1.76356,-0.2329 0,0 0.17977,-1.92952 0.22457,-2.68418 -0.72242,-0.24297 -1.46642,-0.15478 -2.20798,-0.10767 z m -6.15038,2.66399 v 4.7e-4 c -3.20909,0.0365 -5.90788,2.00158 -6.31875,5.83124 -0.49863,2.89501 0.74651,6.50133 4.09714,6.61105 1.70794,0.1101 4.95565,-1.34736 4.20198,-3.44648 -1.22925,-0.80357 -3.61753,1.91471 -4.77178,0.24442 -0.40679,-0.53424 -0.41564,-1.43965 -0.33873,-2.10607 0.60068,0.019 1.12936,0.0987 1.65327,0.0818 1.84242,-0.13285 5.11173,0.10388 4.99815,-2.59608 0.37126,-1.95107 -0.51933,-4.6578 -2.87752,-4.59515 -0.21502,-0.0189 -0.42979,-0.0276 -0.64376,-0.0252 z m 11.89998,6.61941 c 1.09924,0.74576 2.37555,2.87551 0.43432,3.42077 -1.21067,0.24267 -1.43055,-0.96103 -0.55634,-1.54605 0.20105,-2.32845 -3.28648,-1.04165 -3.13699,0.71856 -0.0283,3.57609 5.44348,5.02698 7.01545,1.69706 1.64955,-2.58726 0.23836,-4.9763 -1.73629,-6.75758 -0.29742,-0.23362 -1.14115,-0.65207 -0.66427,-1.21432 0.21617,-0.25488 1.3987,0.31376 1.83721,0.30147 1.38557,-0.93719 0.20359,-2.88536 -1.47967,-3.14587 -3.46551,-0.58839 -4.41452,4.79196 -1.71342,6.52596 z m -12.05239,-4.34963 c 1.94926,0.0904 1.72327,2.56435 -0.25774,2.54791 -0.61367,0.15829 -2.05025,0.20477 -2.34734,-0.46261 0.32171,-1.64397 1.76845,-2.18646 2.60508,-2.0853 z m -7.21405,13.09681 c -5.35057,0.24307 -8.84093,5.50291 -10.39881,10.14308 -1.10606,4.35787 -1.57441,10.01476 2.34783,13.15712 3.7903,2.75491 7.29324,1.09598 9.55459,-0.92143 2.4307,-2.57228 3.43223,-6.79724 3.20281,-10.27869 -1.10599,-2.42617 -4.51802,-1.2364 -6.51708,-0.7728 -2.05441,0.1641 -2.44758,3.5068 -0.27396,3.70969 0.84093,0.14634 3.05528,-0.68726 2.60075,0.97242 -0.43905,2.08756 -1.29009,5.03778 -4.08322,4.48809 -3.54176,-0.16518 -3.73265,-4.5907 -3.13372,-7.2132 0.73481,-4.35835 3.19062,-10.1759 8.47875,-9.86586 2.01166,-0.018 1.10062,1.91121 1.29173,3.04069 2.84027,1.07057 4.63533,-3.00826 2.64984,-4.92662 -1.35748,-1.66129 -3.79536,-1.49701 -5.71951,-1.53249 z m 14.8813,1.65771 c -5.90357,0.77975 -8.51143,7.42003 -8.95234,12.65361 -0.25082,2.77745 0.21221,7.30422 3.8462,7.37777 5.75104,0.56719 9.33073,-5.43241 10.21835,-10.36515 0.8486,-3.59944 0.13153,-9.1181 -4.35345,-9.64893 -0.28768,-0.0297 -0.55688,-0.0273 -0.75876,-0.0173 z m -0.0267,3.41757 c 2.39706,0.27726 1.50395,3.72276 1.54044,5.39926 -0.37936,2.94431 -2.00323,7.4781 -5.06359,7.5213 -2.32564,-0.13964 -1.2835,-4.54869 -1.02058,-6.65594 0.61926,-2.32917 1.98559,-6.5242 4.54373,-6.26462 z m -105.79446,11.73916 v 4.7e-4 c 6.25965,5.37748 11.69769,12.37378 19.9187,14.87568 6.08617,2.15112 12.95332,2.07415 18.98696,0.0136 -1.77039,3.40774 -4.63313,6.22195 -6.89576,9.3371 -5.03559,0.0262 -10.14493,0.2022 -14.93412,-1.63488 -7.57295,-2.471 -15.30206,-7.63657 -17.15994,-15.87616 -0.39177,-2.07651 -1.565,-4.74936 -0.23983,-6.64751 0.0974,-0.0499 0.21403,-0.0879 0.32399,-0.0683 z m 49.74253,6.66528 c 4.6869,2.56977 9.25274,5.58847 14.44044,7.17861 12.50846,4.24266 26.22044,4.53801 39.08379,1.83778 3.88762,-1.2342 8.08204,-2.34272 12.04257,-0.70267 1.98581,0.80825 4.58224,1.21999 6.05565,2.77 -2.63321,2.31949 -6.00738,3.91019 -8.42499,6.58206 -5.05545,4.63674 -8.57881,10.57507 -12.24641,16.27494 -1.64362,1.05394 -3.60679,-0.99646 -5.29548,-1.27583 -3.53973,-1.47082 -7.08003,-2.96306 -10.47174,-4.7527 3.29693,-1.35329 6.64402,-3.25718 9.42312,-5.27725 -5.2618,1.1906 -10.3776,3.70397 -15.7892,3.88454 0.84619,-1.9405 3.57778,-3.00292 4.72372,-4.73354 -7.51912,2.53149 -13.78674,7.51644 -19.90048,12.41378 -2.43954,2.39336 -6.09346,3.50462 -9.26931,1.83918 -3.25189,-1.29704 -5.15219,-2.04272 -7.7859,-4.35246 -0.7211,-0.63239 4.37948,-8.04294 3.71215,-8.73391 -0.56814,-0.58827 -8.82796,3.72207 -9.35499,3.09634 -2.15363,-2.55695 -3.121,-4.72741 -4.50445,-7.71455 4.54627,-5.97947 9.38706,-11.8005 13.27493,-18.25671 0.0808,-0.062 0.1859,-0.086 0.28658,-0.0776 z m 115.92692,7.81162 c 0.55005,-0.086 1.95056,0.31825 0.79663,0.79757 -5.27177,2.59723 -8.20695,8.03185 -9.58861,13.52177 -3.65389,11.73684 -7.7054,23.47366 -13.63679,34.27546 -0.7167,0.99989 -1.0337,-1.47474 -1.37261,-1.87471 -0.9624,-3.0756 -2.82801,-6.52401 -0.75736,-9.58628 1.15609,-2.07483 2.01809,-4.89791 4.07481,-6.16786 0.66675,0.26495 0.81322,2.2629 1.61478,0.95279 1.21347,-1.94234 1.87076,-4.37026 3.65312,-5.79478 1.9567,-5.09218 1.8294,-10.78343 4.05892,-15.828 1.66899,-4.99766 5.56787,-9.85887 11.15711,-10.29596 z m 3.70735,2.50304 c 1.82742,-0.0411 4.29716,1.80776 3.68538,3.73073 -2.8853,-0.38156 -6.13405,0.10471 -8.09446,2.55447 -3.71378,4.56275 -4.62815,10.67003 -6.90185,15.97199 -3.38509,9.18986 -7.62429,18.10314 -11.38666,27.09498 -0.99177,0.1319 -2.66754,-1.13594 -1.66667,-2.21319 3.06546,-8.51361 8.0893,-16.22232 10.60125,-24.96968 2.23313,-5.99348 3.58926,-12.43387 6.81301,-17.99163 1.65039,-2.17789 4.08197,-4.17735 6.95,-4.17767 z m -46.43678,4.21647 0.072,0.007 c 4.89897,2.88028 8.78195,7.27232 12.76581,11.28568 1.63953,1.86141 3.33378,3.87428 4.89155,5.7139 -1.13509,2.33696 -3.57767,3.90423 -4.79898,6.27304 -0.68358,2.39401 -2.10974,0.50288 -3.27023,-0.31884 -6.11573,-4.96043 -12.95018,-8.90664 -20.1735,-12.01078 -0.88789,-0.31915 -1.93806,-0.9737 -0.58906,-1.72044 3.37059,-3.32101 6.50221,-7.40929 10.98553,-9.22256 z m 48.14553,0.79056 c 1.26919,-0.18632 2.60406,0.62481 1.81346,2.02665 -0.49244,3.31081 -4.738,2.76541 -7.12203,3.59468 -0.60185,0.17623 -2.62589,0.86126 -1.74335,-0.53156 1.38023,-2.67071 3.7913,-5.26696 7.05192,-5.08977 z m 0.29686,5.98833 c 0.99811,0.21815 -0.39997,1.90463 -0.30247,2.56429 0.0584,2.83524 -3.02222,2.46917 -4.94438,3.2721 -1.56051,0.20356 -3.58049,1.52245 -5.01919,0.7396 0.83995,-1.70366 0.84241,-4.45531 2.67322,-5.38805 2.57096,-0.0921 5.03402,-1.03583 7.59282,-1.18794 z m -169.70686,2.72932 c 1.6925,0.10152 -0.52533,1.04209 -1.09958,0.92286 -5.29206,2.00539 -6.33649,8.38015 -8.18656,13.05193 -2.47343,8.32909 -6.59241,17.02782 -4.38945,25.87057 0.74443,3.36844 3.52126,5.67202 6.58487,6.87332 0.24411,0.91437 -1.97564,0.43039 -2.49837,0.4778 -5.0455,-0.64053 -7.44908,-6.45982 -7.34176,-11.00097 -0.25686,-9.30939 3.72512,-18.03531 6.99861,-26.54518 1.80665,-4.36333 4.28985,-9.94592 9.93224,-9.65033 z m 2.67041,2.1267 c 1.54993,-0.0111 2.15078,1.74999 3.11455,2.66059 -3.17461,2.46263 -5.29377,6.30181 -4.6779,10.40115 0.21106,2.88024 3.21731,4.13114 5.37309,5.18889 -0.92223,1.47381 -2.91934,-0.60473 -4.07809,-0.91445 -1.08873,-0.54626 -2.36926,-1.34218 -2.95886,-2.27209 -2.60923,0.70959 -3.33164,3.51336 -3.22348,5.8794 -1.56808,2.65631 -3.68286,5.02008 -5.48576,7.53952 -0.32475,0.55685 -2.01961,1.51349 -1.47592,2.12577 1.26273,-0.30687 1.90408,-2.10456 3.44274,-1.08182 2.25516,0.95851 5.202,1.33103 6.87285,3.13605 -1.06778,1.38182 -3.4276,0.18292 -4.88874,0.19215 -2.33543,-0.64397 -4.92585,-0.5765 -7.17721,-1.23656 -0.47739,-3.06592 1.31815,-6.1252 1.96074,-9.11036 2.20488,-6.36529 3.57575,-13.09049 6.59281,-19.13516 1.27576,-2.51902 3.88865,-3.54588 6.60918,-3.37308 z m 33.32361,1.4965 c 0.35123,0.47529 1.14839,1.33084 1.52782,1.78282 0.39488,0.47038 3.81066,-1.19653 6.03512,-1.91549 -0.43273,2.03372 -3.95083,4.44054 -3.31556,5.07988 1.33499,1.34356 3.44457,3.40628 4.86157,4.64795 -3.55653,3.20593 -8.22312,5.11499 -12.5199,7.21694 -2.36564,1.11598 -4.95281,1.89267 -7.49277,0.81955 -4.92513,-1.39902 -10.16331,-2.1814 -14.77844,-4.40721 0.42603,-2.34434 1.40265,-4.92542 2.86022,-6.8205 4.96451,-0.12888 10.14657,1.38242 14.99536,-0.10332 2.89176,-1.70781 4.92296,-4.64561 7.82658,-6.30062 z m 131.68993,0.29266 c -0.22334,1.69944 -1.15573,3.30687 -1.71482,4.94017 -3.02066,0.5796 -6.13834,2.03333 -9.15664,1.94951 0.68446,-1.54211 1.16793,-3.66016 2.42543,-4.69473 2.80816,-0.73695 5.57855,-1.73021 8.44603,-2.19495 z m -24.34509,1.08649 c 1.65365,0.40481 2.73748,1.91231 4.02058,2.92474 -0.86194,2.12839 -0.78675,4.98481 -2.30341,6.71016 -1.63742,-1.99483 -2.06958,-4.93535 -2.88921,-7.38571 -0.29045,-0.90138 0.003,-2.27485 1.17204,-2.24919 z m -136.55483,1.22768 c 1.19665,0.76004 4.68675,0.45147 3.98599,2.6835 -1.22481,3.03573 -2.78097,6.03284 -2.99814,9.33149 -1.39424,0.80407 -3.30365,-0.87935 -4.06219,-2.04021 -2.31604,-3.40731 0.56349,-7.61743 3.07434,-9.97478 z m 133.57493,3.20244 v 4.7e-4 c 1.14745,0.96729 1.44193,2.59576 2.11174,3.88032 -2.39579,2.90298 -3.43991,6.87636 -5.7326,9.7055 -1.97397,-0.71612 -2.85154,-2.71956 -2.0304,-4.66481 1.06759,-3.27843 2.53896,-6.89867 5.44135,-8.9126 0.0684,-0.0106 0.14133,-0.0326 0.20991,-0.009 z m 24.25719,1.66106 c -0.51226,2.11072 -1.87937,4.62519 -4.37074,4.98973 -1.87626,0.37579 -3.90204,1.89784 -5.77561,1.44974 0.36298,-1.70389 0.77365,-4.43055 3.00328,-4.61665 2.35287,-0.68691 4.7153,-1.4646 7.14307,-1.82282 z m -3.40674,6.81114 c -0.43331,2.46193 -2.71006,4.35074 -5.1973,4.80974 -1.30058,0.34544 -2.95005,1.17586 -4.12811,1.15101 0.83058,-1.65949 0.9251,-4.24628 3.32259,-4.24078 1.98583,-0.60137 3.94542,-1.40739 6.00282,-1.71997 z m -162.91021,1.52689 c 2.43976,1.06251 5.23269,2.06784 7.08651,4.02806 0.24541,1.02336 -0.53677,3.1503 -1.79851,1.75597 -1.96945,-1.32265 -4.98719,-1.83202 -6.09913,-4.0678 -0.003,-0.54533 -0.0379,-1.81952 0.81113,-1.71623 z m -1.24264,4.3843 c 1.99586,1.07191 4.439,2.02794 5.88267,3.72652 -0.72774,2.30478 -2.54545,0.89655 -4.02712,0.22628 -1.34901,-0.6095 -4.10168,-1.57051 -2.48575,-3.46752 0.14944,-0.19857 0.34032,-0.51398 0.6302,-0.48528 z m 160.42446,0.1828 c -0.51953,2.18903 -2.03613,4.3606 -4.54653,4.38804 -0.91369,0.0243 -2.55255,0.84776 -3.15615,0.0683 1.03276,-2.91306 5.2243,-3.39392 7.70268,-4.4563 z m -162.92236,3.55868 c 2.15847,1.13305 4.71409,1.8951 6.61806,3.33755 -0.16282,1.50736 -1.60952,2.0022 -2.7915,1.17252 -1.64721,-0.78147 -3.96529,-1.15731 -5.13933,-2.511 0.21815,-0.78621 0.82861,-1.3732 1.31277,-1.99907 z m 159.11824,2.49323 c -0.16899,1.93 -2.39326,3.39947 -3.77841,4.67743 -0.6923,0.47094 -3.12335,2.13277 -2.64377,0.1295 0.0823,-1.9572 0.95149,-4.19454 3.24966,-4.25574 1.04532,-0.22622 2.10022,-0.51984 3.17252,-0.55119 z m -166.48292,4.96402 h 0.0944 c 3.69864,0.79122 7.44676,1.54224 11.1155,2.4231 1.40455,1.95434 -0.50856,4.68009 -1.84572,6.26649 -2.22268,2.9337 -6.4385,0.21543 -7.81957,-2.24498 -0.90805,-1.91028 -2.11335,-4.3597 -1.61477,-6.43667 z" /><path
             id="path140"
             style="fill:#d38d5f;fill-opacity:1;stroke:none;stroke-width:16.9607;stroke-linecap:round;stroke-opacity:1;paint-order:stroke fill markers"
             d="m -2407.3669,3219.1057 c -2.2931,-0.1725 -1.4321,2.874 -1.4507,5.0233 2.5645,26.48 6.0504,43.963 10.606,57.9507 2.4952,8.2543 12.1678,40.8009 18.0235,46.6715 2.6406,2.9288 5.1,6.6807 8.9744,7.9993 1.1051,-0.089 -0.6012,-1.9809 -0.4512,-2.5937 -8.693,-23.7761 -18.4331,-48.1671 -17.6245,-73.938 0,-5.0793 1.6179,-10.604 6.2484,-13.3321 3.0957,-2.3224 7.0662,-2.4147 10.6526,-3.168 -2.687,-3.0916 -5.8236,-6.1324 -9.4406,-8.1521 -4.1711,-2.2559 -7.8141,2.2666 -11.7043,2.823 -3.5113,-1.2443 -3.4485,-5.8906 -1.087,-8.1819 3.601,-3.8338 9.2033,-4.4546 14.1636,-4.8611 -7.6899,-6.5456 -17.8207,-4.4908 -26.9102,-6.2409 z m -43.539,6.5914 c -30.4603,12.4869 -53.965,37.1505 -77.2421,59.7184 -27.6065,29.204 -53.6099,61.4954 -68.7561,99.0265 -3.3036,12.9948 8.6976,26.8144 -0.6974,38.8755 -2.1297,5.7357 -9.2466,12.0792 -8.2957,17.9508 6.9774,-1.9106 13.2242,-9.3615 20.5034,-8.9577 -5.2986,14.1257 -13.6688,29.7929 -10.4624,44.8796 9.6719,-2.4376 19.2297,-10.4638 29.2149,-9.1478 -2.4681,2.9339 -2.0391,6.6414 3.1046,5.8046 10.2712,-0.3915 18.9854,1.3057 29.9067,4.2364 1.5897,-5.6875 -16.1688,-21.7852 -9.9813,-35.15 11.3159,-30.0013 41.9101,-46.0653 69.4405,-58.5194 20.9306,-8.0989 44.715,-8.4177 64.4843,-19.2896 4.6049,-5.2357 11.8056,-11.7104 13.1288,-17.8948 7.9205,-16.8701 -4.0482,-33.6146 -6.8972,-50.2535 -2.8483,-7.0785 -6.4392,-29.0688 -13.3619,-39.1664 -6.143,-14.9766 -19.8015,-25.7518 -34.0891,-32.1126 z m -2.066,16.5355 c 16.4091,2.5748 23.7534,20.8377 30.1715,34.1544 8.7095,23.6513 13.108,50.1102 8.2994,75.0418 -3.2905,9.0625 -16.32,5.5714 -23.7292,7.6934 -25.1867,0.8509 -50.5858,6.8737 -73.675,15.3701 11.7159,-15.9719 33.4961,-17.4836 50.9956,-23.0542 -15.7894,-25.4113 -32.0414,-56.6379 -20.9696,-87.0108 4.6743,-11.7193 15.4932,-22.6372 28.9073,-22.1947 z m -75.4483,280.4172 c -0.1248,0.01 -0.2547,0.034 -0.3878,0.078 -3.2299,0.2017 -6.4587,0.4024 -9.6886,0.6041 -23.8502,1.5314 -47.7522,3.0473 -71.3816,6.7649 -8.7256,1.8552 -17.3562,4.1728 -25.894,6.7574 -11.2549,3.4909 -22.4006,7.8967 -32.0977,14.6951 -0.1503,0.359 0.6865,-0.2901 0.8055,-0.2853 0.2064,-0.1042 0.4161,-0.2006 0.6228,-0.3039 -4.9695,2.3827 -8.5077,8.6142 -2.5004,12.2692 l 33.6807,3.9176 c 7.2459,-2.5457 21.1359,-0.6791 32.4351,2.3252 15.2851,-3.0581 31.3237,-2.8062 46.5578,-3.0524 9.8237,-0.3807 19.854,0.1183 27.4137,7.2329 14.4245,6.6776 9.7169,6.9955 -3.209,4.6597 -2.1029,6.481 1.2033,18.4431 1.5607,27.0482 1.6856,5.8272 2e-4,13.8345 2.9722,18.7712 19.9773,-5.4431 27.6835,-28.3344 28.305,-47.1079 1.0739,-19.9613 -11.5057,-43.465 -28.4299,-53.8392 0.4887,0.2144 0.9554,0.6833 1.4115,0.7161 -0.6234,-0.5678 -1.3025,-1.3119 -2.176,-1.2512 z m 104.7416,10.3897 c -5.1898,2.0496 -10.059,4.8629 -15.2098,7.0259 -6.5491,2.8938 -13.1674,5.8642 -20.0745,7.7214 0.6767,1.0195 2.111,1.7132 3.0673,2.5657 9.777,7.2663 20.5531,14.0418 32.836,15.8251 3.6886,0.699 8.1964,-0.082 10.1771,-3.6323 2.7256,-4.2426 1.6939,-9.4094 1.667,-14.132 0.042,-1.6636 0.1331,-3.3251 0.2051,-4.9879 -4.5389,-3.0457 -8.3793,-7.0799 -12.6682,-10.3859 z m 45.6833,9.379 v 0.01 c 3.1435,6.3321 6.339,12.6397 9.5375,18.9446 0.1862,0.3634 0.368,0.7301 0.5594,1.0908 l 8.0328,16.5318 c 1.1538,2.8966 2.3976,5.7586 3.5148,8.6705 0.7716,1.9208 1.4483,3.8764 2.1425,5.8251 1.2601,3.1766 3.2229,6.0624 5.6162,8.4915 l 5.8046,4.0145 c 13.4563,8.7985 18.406,-6.7856 33.8765,-2.9368 15.664,-0.2168 34.0525,-6.002 31.3574,-17.6002 l -86.1289,-35.1071 c 0.074,0.028 0.1931,0.099 0.2536,0.099 -4.8722,-2.6449 -9.6787,-5.413 -14.5664,-8.0291 z m -366.4976,238.7372 c -4.8574,-0.089 -9.4684,4.7771 -14.5292,6.3398 -3.6682,3.1422 -12.8504,4.3592 -13.6173,9.3921 17.6653,17.0003 42.4318,26.2505 66.5522,29.297 10.5773,0.2846 22.8489,2.7883 32.4258,-0.095 8.0634,-11.0096 18.1656,-21.3783 24.3576,-33.3115 -29.9855,8.5065 -62.8395,5.6664 -90.2236,-9.5768 -1.6995,-1.4368 -3.3464,-2.0158 -4.9655,-2.0455 z"
             transform="matrix(0.26458333,0,0,0.26458333,79.07817,-92.243366)" /></g><path
           id="path141"
           style="opacity:1;fill:#ff6600;fill-opacity:1;stroke:none;stroke-width:19.1519;stroke-linecap:round;stroke-dasharray:none;stroke-opacity:1;paint-order:normal"
           d="m 1889.6485,1097.2152 c -0.166,0.01 -0.3332,0.021 -0.5016,0.044 h -1.2881 v -6e-4 c -7.7334,-0.1606 -15.0399,3.0833 -21.6145,6.8575 -14.0418,8.3746 -24.4288,21.9985 -30.5623,37.0075 -1.615,3.54 -3.4207,7.4995 -2.1415,11.4442 0.048,0.4412 0.66,1.8146 1.0487,0.8098 3.9822,-7.2252 7.479,-14.812 12.7753,-21.2143 8.3863,-10.1528 17.6721,-20.1771 29.7214,-25.963 5.9277,-2.8013 12.6618,-2.3214 18.9708,-3.4246 0.5751,-0.4533 -0.3993,-1.3199 -0.5028,-1.8437 -1.2194,-2.082 -3.4151,-3.817 -5.9054,-3.7197 z m -54.4971,167.4712 c -2.6945,3.9315 -5.3138,7.9228 -8.2524,11.683 -2.1434,2.8716 -4.4232,5.6767 -6.5166,8.5627 0.8364,2.4904 2.3234,4.7278 3.6962,6.9562 0.4856,0.51 0.7437,1.5344 1.5116,1.6382 3.2904,-0.8556 6.2701,-2.6695 9.5716,-3.4885 0.6894,-0.1538 0.5096,0.7322 0.2503,1.0579 -1.1876,2.785 -2.9184,5.3341 -3.9498,8.1783 0.01,0.8387 1.1054,1.1449 1.6054,1.6834 2.6511,1.9134 5.7465,3.1149 8.8158,4.1745 2.69,0.7229 5.5846,-0.3316 7.6858,-2.0428 6.3681,-5.0239 12.7377,-10.2942 20.3205,-13.3981 0.8082,-0.3376 1.6225,-0.6944 2.4856,-0.8611 -1.5503,1.9172 -4.0678,2.9562 -5.2237,5.1932 5.9659,-0.3796 11.4756,-2.9379 17.2399,-4.2454 -0.8978,0.8467 -2.168,1.4825 -3.2387,2.19 -2.2274,1.3651 -4.5454,2.5907 -6.9698,3.5686 4.3562,2.212 8.8519,4.1375 13.3769,5.9648 1.1598,0.4507 2.5495,1.41 3.7883,0.7498 1.699,-2.016 2.8849,-4.4192 4.4243,-6.5591 4.0558,-6.1518 8.8247,-12.0218 15.0613,-16.079 1.2153,-0.8633 2.4317,-1.7273 3.591,-2.6655 -1.974,-1.79 -4.7082,-2.2529 -7.1291,-3.1695 -4.1134,-1.55 -8.5686,-0.3669 -12.6177,0.7918 -8.6151,1.96 -17.5529,2.3669 -26.3452,1.6551 -7.9538,-0.7429 -15.8835,-2.5953 -23.1109,-6.0509 -3.4427,-1.6662 -6.7071,-3.6872 -10.0706,-5.4876 z" /></g><path
         style="fill:#d38d5f;fill-opacity:1;stroke:none;stroke-width:5.2252;stroke-linecap:round;paint-order:stroke fill markers"
         d="m 8137.8982,4023.1112 c -20.4511,0.6413 -38.098,13.0589 -52.6932,26.346 -16.7921,15.5454 -33.039,31.9454 -46.4093,50.581 -5.6706,8.3618 -10.7949,17.4143 -13.1836,27.2918 -0.8559,10.2819 7.6696,18.0394 15.5859,23.0888 13.9393,8.9386 29.8773,14.1504 45.6302,18.8978 22.9599,6.6863 47.4739,8.8317 71.0427,4.2272 17.738,-4.7084 34.4375,-12.5699 51.4104,-19.4182 26.1478,-11.0092 52.1334,-22.5729 79.0857,-31.4864 7.8644,-4.1347 10.7328,-13.3447 14.6515,-20.7167 1.9543,-4.8431 5.1388,-9.17 6.8719,-14.0593 0.8942,-3.4884 -3.8002,-3.3873 -5.9054,-4.3332 -33.9709,-9.1652 -67.3891,-20.5782 -99.2948,-35.4783 -16.1527,-6.7715 -31.3573,-15.7484 -47.9101,-21.544 -6.0928,-2.0096 -12.4019,-3.7522 -18.8819,-3.3965 z"
         id="path142"
         transform="matrix(0.26458333,0,0,0.26458333,79.07817,-92.243366)" /><path
         style="fill:#d38d5f;fill-opacity:1;stroke:none;stroke-width:2.6126;stroke-linecap:round;paint-order:stroke fill markers"
         d="m 8465.8572,3925.3173 c 0.3653,4.5873 0.6418,9.2988 -0.1196,13.8852 -1.4582,6.4419 -5.0103,13.1613 -11.3179,15.9429 -0.7994,0.3095 -0.074,-1.2501 -0.2598,-1.5789 0.8009,-5.5586 -0.1218,-11.8041 -4.2762,-15.8969 -3.21,-3.7281 -7.5354,-6.2833 -12.0592,-8.0686 1.1918,3.8772 2.2162,7.9784 1.7322,12.0935 -0.843,11.3874 -10.0024,21.2023 -21.0043,23.7078 -19.141,5.2933 -38.7417,9.5886 -56.828,18.018 -8.1276,3.8469 -15.9604,8.5247 -22.3678,14.9063 -18.9042,17.8827 -35.4585,38.9075 -45.2074,63.2168 -0.4875,1.493 -1.3527,3.0016 -1.5996,4.5151 4.2186,3.0692 8.9665,5.461 13.8353,7.3368 3.1844,0.9433 6.8991,2.5118 10.0915,0.8102 2.9654,-1.9248 4.2205,-5.5053 6.2676,-8.2534 12.0512,-18.679 25.7927,-36.3392 41.7643,-51.8407 23.1147,-22.6551 51.183,-40.6975 82.3296,-49.9776 6.5259,-2.084 13.2713,-3.3318 19.9002,-5.003 4.2503,-1.497 7.1689,-5.6945 7.3769,-10.1627 0.641,-8.4916 -2.8135,-16.9266 -8.0302,-23.4955 -0.068,-0.049 -0.1333,-0.1581 -0.2276,-0.1553 z"
         id="path143"
         transform="matrix(0.26458333,0,0,0.26458333,79.07817,-92.243366)" /><path
         style="fill:#d38d5f;fill-opacity:1;stroke:none;stroke-width:2.6126;stroke-linecap:round;paint-order:stroke fill markers"
         d="m 8526.8479,3957.7807 c -4.9349,0.1168 -9.5625,2.157 -14.0952,3.8862 5.7814,7.9523 12.4418,15.7915 14.7837,25.5889 0.6722,1.7426 0.2264,3.8497 1.1626,5.458 5.4082,2.9357 12.0682,4.2698 16.145,9.2226 2.6963,4.1161 3.5869,9.1062 5.9084,13.4252 4.8149,10.2186 11.7356,19.7262 21.2982,25.962 5.8875,4.0197 12.7797,6.5037 19.9028,6.9995 8.1472,0.978 16.3897,1.1463 24.5476,0.186 10.3129,-1.0576 20.4808,-4.2452 29.36,-9.621 6.152,-4.2876 10.8201,-12.0371 9.0514,-19.7007 -0.7575,-3.4287 -2.8769,-6.5437 -6.0443,-8.1622 -14.7986,-9.428 -32.2057,-13.0396 -48.6979,-18.3344 -7.7743,-2.5273 -15.5645,-5.1442 -22.9492,-8.6738 -14.558,-7.3204 -27.0576,-18.3806 -42.3467,-24.294 -2.5946,-0.839 -5.2586,-1.9591 -8.0264,-1.9423 z"
         id="path144"
         transform="matrix(0.26458333,0,0,0.26458333,79.07817,-92.243366)" /><path
         id="path145"
         style="fill:#ff6600;fill-opacity:1;stroke:none;stroke-width:3.69477;stroke-linecap:round;paint-order:stroke fill markers"
         d="m 8121.2638,4672.7774 c -0.6961,0 -1.3938,0.018 -2.0879,0.016 -8.9288,-0.1862 -18.2562,3.9223 -22.6797,11.961 -5.9942,10.9901 -9.9661,22.9558 -13.8359,34.8242 -4.5082,14.4586 -8.7579,29.0028 -13.3946,43.418 -2.636,10.8584 -8.2215,21.2816 -7.6875,32.707 -0.012,1.1972 0.1872,2.741 1.8067,2.5488 10.3852,2.0209 20.9659,2.848 31.3105,5.127 4.1141,0.6775 8.5797,1.6988 12.627,0.3027 2.0722,-0.7605 2.5472,-1.8927 0.5664,-3.0996 -7.5983,-6.255 -17.7285,-7.4656 -26.4942,-11.3984 -2.274,-1.0217 -5.0237,-0.8564 -6.8086,1.0312 -1.947,1.0503 -3.6101,3.3922 -5.9238,3.4609 -1.3515,-1.449 1.1084,-3.1219 1.8887,-4.2226 6.4232,-6.57 11.4926,-14.2896 17.1406,-21.5059 2.8166,-3.9646 5.8822,-7.9142 8.2109,-12.123 0.4968,-7.3082 1.2555,-15.8038 7.4942,-20.6719 1.588,-1.2904 3.4249,-2.253 5.3887,-2.8242 5.6727,6.6191 13.9998,9.8115 21.5039,13.7969 2.0339,1.0544 5.2566,1.1374 6.3867,-1.1895 -7.4277,-3.9482 -16.3552,-7.4639 -19.9707,-15.7051 -4.1922,-13.1954 0.3729,-27.9173 9.2539,-38.1504 2.3862,-2.8621 5.129,-5.3967 7.9394,-7.8339 -3.1922,-3.657 -5.538,-8.9408 -10.5527,-10.3633 -0.6911,-0.082 -1.386,-0.1043 -2.082,-0.1055 z m -60.5528,130.3164 c -1.2484,0.6919 -0.5198,2.8596 -0.7382,4.0371 0.1462,8.0739 3.8325,15.5732 7.5957,22.5332 4.1326,6.2377 10.7808,11.1706 18.2265,12.4668 5.0621,0.6829 10.0434,-1.9651 12.8106,-6.164 4.1625,-5.6579 9.1065,-12.245 7.8086,-19.7129 -0.1329,-2.3662 -1.9092,-4.1653 -4.2618,-4.3496 -13.5214,-3.1749 -27.1209,-6.0461 -40.7402,-8.7637 -0.2319,-0.029 -0.467,-0.057 -0.7012,-0.045 z"
         transform="matrix(0.26458333,0,0,0.26458333,79.07817,-92.243366)" /><path
         id="path146"
         style="fill:#ff6600;fill-opacity:1;stroke:none;stroke-width:3.69477;stroke-linecap:round;paint-order:stroke fill markers"
         d="m 8760.461,4600.1387 c -14.3826,0.8927 -26.9094,10.2921 -34.7851,21.9219 -6.2268,8.9389 -9.8382,19.3602 -13.2383,29.6191 -4.8162,16.574 -5.8512,34.0968 -11.7598,50.3731 -1.5443,3.0649 -4.6029,5.0594 -6.1386,8.1816 -3.7183,5.5082 -5.6836,12.0937 -9.8067,17.3125 -1.6761,1.3958 -2.7641,-1.4767 -3.459,-2.5781 -0.4625,-1.1733 -1.7515,-2.7989 -3.0332,-1.5 -6.0464,4.2863 -8.6964,11.6324 -12.1718,17.8848 -2.6791,5.6257 -6.6094,11.071 -6.3985,17.5918 -0.183,8.9819 3.8614,17.271 6.5508,25.6465 1.2185,2.7311 1.7394,5.942 3.5938,8.3125 1.5506,0.6836 2.1831,-1.968 2.955,-2.8399 19.4242,-35.4915 33.4059,-73.6383 45.9688,-112.0039 3.8452,-11.4365 7.0166,-23.0957 11.0156,-34.4766 5.9195,-15.1053 15.2817,-29.5803 29.4981,-38.0293 1.8391,-1.4547 4.7497,-2.0176 5.9238,-4.125 -0.9409,-1.3784 -3.2184,-1.1996 -4.7149,-1.291 z m -82.3515,84.1289 -0.252,0.01 c -3.686,0.3744 -4.8173,5.0907 -3.7578,8.1152 2.6113,9.3018 4.749,18.9619 9.6582,27.3868 0.9811,2.2179 2.2417,2.7706 3.1797,0.3183 3.9913,-6.6244 4.4512,-14.5793 6.7109,-21.8398 1.2285,-2.0491 0.4487,-3.4799 -1.4882,-4.7051 -4.2196,-3.5937 -8.2447,-8.5192 -14.0508,-9.2813 z"
         transform="matrix(0.26458333,0,0,0.26458333,79.07817,-92.243366)" /></g><text
       xml:space="preserve"
       style="font-size:34.233px;line-height:1.25;font-family:Arial;-inkscape-font-specification:Arial;text-align:center;text-anchor:middle;fill:#214478;fill-opacity:1;stroke-width:0.350892"
       x="2265.9348"
       y="2253.6863"
       id="text148"
       transform="scale(1.0057157,0.99431678)"><tspan
         id="tspan148"
         style="font-style:normal;font-variant:normal;font-weight:bold;font-stretch:normal;font-size:34.233px;font-family:Arial;-inkscape-font-specification:'Arial Bold';fill:#214478;fill-opacity:1;stroke-width:0.350892"
         x="2265.9348"
         y="2253.6863">Fetching deals on <tspan
   style="font-style:italic;font-variant:normal;font-weight:bold;font-stretch:normal;font-size:34.233px;font-family:Arial;-inkscape-font-specification:'Arial Bold Italic';fill:#214478;fill-opacity:1;stroke-width:0.350892"
   id="tspan147">running</tspan> shoes!</tspan></text><g
       id="g154"
       transform="translate(25.25888,351.9339)"
       style="fill:#ff6600;fill-opacity:1"><g
         id="g153"
         transform="translate(-35.983333,-360.89153)"
         style="fill:#ff6600;fill-opacity:1"><path
           id="path148"
           style="fill:#ff6600;fill-opacity:1;stroke:none;stroke-width:8.64063;stroke-linecap:round;paint-order:stroke fill markers"
           d="m 2429.0254,2076.7361 c -7.8626,0.034 -24.5242,0.3569 -32.014,2.3952 -2.9897,3.5356 -1.7406,9.8138 -1.3922,14.212 0.1756,3.4222 1.1207,6.0984 1.2909,9.8687 0.033,0.7248 5.3567,1.4554 5.3893,2.191 1.2015,27.1619 1.2194,61.4298 2.2671,85.7395 0.1776,4.7875 0.7944,10.8017 2.3161,15.7102 0.3277,1.0572 1.557,2.5581 2.9264,2.4226 17.8267,0.447 35.188,-0.9006 52.8041,-2.1668 4.1111,-0.7802 12.0745,-0.6117 10.6251,-7.0544 -0.066,-8.6494 -0.2315,-20.9105 -1.2609,-29.3336 -10.5475,-1.2937 -23.352,4.8688 -33.6904,1.666 -1.8263,-9.3109 0.086,-42.5822 -2.1151,-92.0879 0.1498,-2.4798 -0.9752,-3.4727 -2.882,-3.5532 0,0 -1.6435,-0.021 -4.2644,-0.01 z m -897.817,0.3446 c -6.4546,0.1041 -13.6344,1.0227 -18.7074,1.2966 -3.9736,0.1454 -11.2538,-0.2518 -10.5621,5.7077 0.1222,4.8665 0.8553,13.9866 1.1177,19.7615 0.019,0.4056 5.329,0.8127 5.348,1.2217 1.806,38.8878 6.1415,88.4306 6.0333,101.5726 0.026,1.0985 0.2806,1.443 0.9058,1.4056 19.2876,-0.025 29.3633,-1.5451 33.0879,-2.2733 1.0383,-0.5245 1.5331,-1.3209 1.4274,-2.4174 -1.0065,-7.8821 -2.1986,-21.9896 -2.2583,-28.8938 h 19.0169 c 0.1458,6.3817 1.3375,19.8957 1.5451,27.0505 0.014,1.1142 0.8665,2.0523 1.6449,2.3797 7.2856,2.5466 34.6145,0.7691 34.2325,-2.835 -4.3867,-37.5414 -3.048,-77.4824 -6.0497,-115.0865 -0.214,-0.6988 -0.2848,-1.4771 -1.9048,-1.3948 -4.3151,-0.1894 -12.1295,0.5571 -23.1526,0.6212 -2.8421,0.017 -5.5405,0.4386 -7.5153,2.4804 -1.8471,16.9383 1.6737,37.6147 -0.4113,53.3571 -5.9692,1.2991 -13.0727,1.8228 -19.142,1.264 -4.325,-13.6246 -1.0692,-49.8701 -4.4323,-64.2101 -2.7392,-0.8393 -6.3509,-1.0701 -10.2237,-1.0077 z m 818.8539,3.636 c -23.0064,1.6744 -36.6364,12.2212 -48.1459,31.4529 -6.8411,13.2949 -10.2401,30.8648 -8.1566,45.8519 2.5729,14.249 9.8071,31.6811 21.8421,39.9645 18.7887,10.9973 42.7816,11.454 66.0626,10.9787 2.4318,-0.072 3.7297,-0.7236 3.837,-1.9808 1.32,-12.4378 3.4164,-49.6616 3.4478,-63.2235 0.095,-1.9806 0.1081,-3.929 -3.7558,-4.3755 -12.9216,-1.2293 -25.1802,-2.5596 -38.2757,-2.5724 -3.9484,4.1827 -2.6246,11.1797 -3.0882,16.537 -0.5091,3.5948 1.0995,6.0988 5.7278,6.9101 l 8.43,1.3695 -0.7627,8.7364 c 0.3593,5.3183 -6.3759,3.5001 -9.5674,3.2055 -16.9718,-2.576 -22.8128,-17.3393 -22.4307,-30.3749 0.3986,-13.517 12.8123,-27.1152 26.1307,-27.6459 8.8258,-0.4722 17.7246,1.5439 25.5023,5.9619 3.1279,0.9387 10.2278,-19.371 12.252,-26.4769 0.2268,-1.7879 -0.3072,-3.014 -1.4071,-3.8225 -8.7629,-7.0126 -19.5947,-10.2562 -37.6422,-10.496 z m -887.4228,0.7374 c -18.7283,0.297 -33.6985,4.623 -42.4843,12.3786 -8.1258,7.1729 -10.5376,14.0886 -9.3493,31.1449 1.1883,17.0563 15.8489,29.4006 34.3623,34.1017 6.0523,1.9942 14.5657,3.8512 16.8026,10.7668 0.902,6.7315 -8.0233,7.1262 -12.5352,6.489 -6.7392,-0.2123 -21.2218,-6.6276 -27.7874,-12.1801 -3.2344,3.7291 -10.1207,17.1895 -10.4066,35.4619 5.2202,3.0327 14.2291,8.4986 25.8707,10.4376 11.6417,1.939 37.346,2.0427 52.0935,-9.6211 10.8695,-9.4933 15.2753,-24.6823 11.9657,-39.7614 -3.3096,-15.0792 -26.2,-24.0773 -36.1456,-27.4758 -9.9455,-3.3983 -13.0897,-2.4448 -17.0062,-7.582 -8.8047,-14.1556 30.1708,-8.5749 41.0869,-8.0109 1.9843,-10.5977 1.6843,-22.4199 1.078,-31.0673 -2.815,-3.5274 -9.4586,-4.1543 -14.009,-4.6364 -4.6924,-0.3679 -9.2142,-0.514 -13.5361,-0.4455 z m 200.4373,0.2367 c -18.5823,0.3373 -37.9631,10.33 -45.9165,28.7119 -6.5134,13.7375 -8.708,29.2137 -7.4244,44.4319 3.3155,64.1264 63.3638,60.5463 80.2478,49.5112 18.2654,-9.938 25.1801,-32.7538 26.109,-52.9854 0.4755,-13.2782 1.0496,-27.1275 -4.6307,-39.3759 -8.7306,-19.2013 -28.6425,-30.1701 -48.3852,-30.2937 z m 384.2743,0.6093 c -13.0204,0.012 -32.9015,1.3507 -45.6401,3.871 -4.4328,1.6012 -7.6285,2.7911 -6.9195,7.0539 0.047,6.5576 2.1232,13.0915 2.7306,19.6205 0.064,0.6859 5.4205,1.3719 5.4865,2.0577 0.9232,9.5862 2.0285,19.1662 2.2903,28.8003 1.662,19.4775 3.9062,42.0888 6.089,61.5058 0.8434,5.5981 8.2718,3.0475 12.0969,3.8288 13.955,0.069 34.9868,1.3786 44.9239,-2.4299 9.7737,-3.8578 19.0061,-8.0865 25.1964,-18.4505 10.5995,-21.9251 -1.1466,-44.6885 -22.2214,-46.5233 4.8826,-0.072 15.8803,-9.734 18.6671,-16.1168 2.7868,-6.3829 1.5296,-16.6169 -0.8098,-22.316 -5.8251,-16.7947 -26.1709,-21.2013 -41.8899,-20.9015 z m 182.2126,0.3679 c -2.2277,0.013 -3.9333,0.1564 -4.8033,0.464 v -5e-4 c -13.65,5.7017 -16.7385,21.3183 -21.9532,34.2491 -3.098,9.4825 -8.051,24.7884 -10.5337,34.3612 -3.1521,10.3239 -5.2136,21.0492 -7.8972,31.4859 -0.5336,3.6857 -1.6503,7.7924 -1.6888,11.0536 -0.012,3.8347 0.2241,8.0619 4.8865,9.6496 8.6198,2.1982 17.5819,1.5055 26.3974,1.5978 1.0229,0.034 1.8462,-0.1985 2.1446,-1.1307 2.4141,-7.9975 1.707,-14.8918 4.5216,-22.8291 9.3902,0.026 18.7575,0.7462 28.0975,1.6769 2.8126,7.6868 2.3377,14.4796 2.5472,22.5418 0,1.3683 0.4891,1.4448 0.8656,1.8242 7.2898,3.5946 16.0226,1.6443 23.8796,1.8417 5.6227,-0.1542 14.1418,-1.7981 13.6736,-9.249 0.2232,-14.5974 -2.1407,-29.1816 -4.6555,-43.4981 -6.9597,-33.3282 -18.4839,-70.0853 -29.8323,-71.4959 -7.588,-1.438 -18.9665,-2.5803 -25.6496,-2.5425 z m 263.1633,1.3467 c -6.3175,-0.092 -8.8587,3.1247 -8.6848,9.5612 -2.123,29.6594 -1.212,63.1653 -1.9869,92.8827 0.1209,6.8463 -2.134,17.4777 6.4694,20.1853 7.4685,0.84 56.5471,2.3539 64.1159,-0.1008 0.7374,-0.1857 0.9258,-0.4646 0.9798,-1.1477 0.6048,-7.6687 1.1586,-16.172 0.043,-23.7009 -0.1318,-1.1326 -1.0458,-1.135 -1.8795,-1.2537 -10.1553,-1.5235 -20.8817,0.3493 -31.1743,-0.123 -3.4106,-5.6558 -2.9025,-16.4143 -1.7456,-22.2684 9.8938,-1.9635 20.3899,0.8906 30.1713,-1.2366 0.721,-0.1151 0.8533,-0.4975 0.9575,-0.8929 1.9418,-7.3584 2.1563,-15.4604 1.5472,-23.0968 -0.1518,-0.8027 -0.7203,-1.2303 -1.681,-1.3049 -7.5426,-0.6691 -20.0389,-0.6102 -30.7495,-1.682 -0.6801,-2.4142 -1.6739,-14.3031 0.7389,-14.6787 9.4589,-1.4723 21.6865,-0.1788 32.6771,0.2806 2.0745,0.076 3.2422,-0.8058 3.2582,-2.9032 -0.038,-7.5813 0.2376,-15.3189 -0.1106,-22.7888 0.01,-2.0639 -1.844,-3.7017 -4.9625,-3.6308 l -56.6694,-2.0381 c -0.455,-0.036 -0.893,-0.056 -1.3141,-0.062 z m -750.0354,0.6573 c -5.4444,0.2829 -14.3202,0.5224 -14.8311,7.6626 -0.7238,8.5645 -3.6581,100.7479 -1.6712,109.7612 1.173,5.8533 14.152,5.3841 19.6949,5.2938 16.3222,0.036 32.6445,-0.1098 48.9665,-0.1768 1.1778,-0.032 2.2007,-0.4117 2.4727,-2.4815 v -21.1077 c -0.084,-2.6615 -1.7742,-2.8 -3.4173,-3.0122 -10.5598,-0.3281 -21.2659,0.031 -31.6498,-1.4862 -1.7407,-7.3916 -0.5201,-15.2455 -0.8997,-22.8121 9.4306,-2.9567 19.6582,-0.3912 29.3874,-0.6237 4.5192,0.1427 3.6066,-6.5933 4.1408,-9.8903 0.2601,-4.9509 0.3313,-9.9089 0.4522,-14.8648 0.087,-2.3628 -1.7018,-2.9678 -4.191,-2.9156 -9.437,0.1987 -18.9917,1.3462 -28.2716,-0.1131 -1.1436,-3.0566 -1.4077,-9.8645 -0.7054,-12.1414 2.4351,-0.7712 24.6448,0.1957 33.5897,-0.2951 1.5284,-0.1134 2.2438,-0.8078 2.6448,-1.7265 1.8771,-7.2238 0.918,-15.2927 0.7705,-22.7681 0.6969,-3.5324 -2.0294,-4.7081 -5.0493,-4.3739 -17.1057,-1.2506 -34.2848,-1.7628 -51.4331,-1.9286 z m 382.3209,0.5106 c -5.2335,0.018 -10.4314,0.1219 -15.5572,0.34 -6.159,0.5032 -6.5747,7.4434 -6.6017,12.2452 -0.6289,32.463 -1.4302,67.6228 -0.3436,100.0761 -0.4232,8.0057 8.8686,9.3248 14.9267,9.5193 7.1168,0.2224 14.2393,0.063 21.3579,0.02 11.0244,-0.5422 22.4424,-0.4584 33.2594,-2.7291 1.06,-0.2218 1.6335,-0.8767 1.6635,-2.0138 1.0165,-7.6525 0.7573,-14.9328 -0.089,-22.6296 -0.078,-1.3963 -1.0728,-2.3155 -3.777,-2.3415 -9.2964,-0.3706 -28.6793,0.1125 -31.9221,-1.033 -0.067,-2.4675 -0.6241,-9.6556 0.1995,-12.6845 11.1638,-0.6282 21.7711,1.6999 32.3768,-0.2733 2.0382,-3.1282 1.5747,-26.953 -3.0137,-26.7984 -9.8475,-0.4478 -23.8507,-0.4736 -29.7538,-0.7421 0.5145,-7.6098 -0.4812,-14.9825 1.4097,-22.4002 11.1489,-2.2484 24.0707,0.7309 35.3188,-1.0035 2.4402,-5.5104 1.1108,-12.3254 1.4806,-18.3224 -0.3805,-2.9762 1.126,-8.8073 -3.8375,-7.8884 -15.3744,-0.6847 -31.3971,-1.3961 -47.0974,-1.341 z m -77.2351,23.3365 c 7.0523,-0.1062 14.0455,7.7674 9.8795,13.5641 -3.8371,5.7996 -12.0073,9.2056 -18.7069,6.1913 -1.3288,-5.6449 -2.3157,-12.1294 -2.206,-17.8206 1.851,-1.4308 7.7708,-1.744 11.0334,-1.9348 z m -385.7537,10.2826 c 4.2526,0 16.723,1.7429 18.9632,16.8677 1.9251,11.8918 -0.361,28.7086 -11.9011,34.9018 -6.646,3.2936 -16.3742,-1.6207 -20.1264,-8.769 -5.9128,-11.8257 -5.742,-28.6882 3.6897,-38.4969 2.6497,-2.7124 5.7354,-4.5012 9.3746,-4.5036 z m 576.9844,5.7619 c 5.7738,3.1028 6.7684,13.7875 7.9354,19.7663 0.5631,2.4389 2.5871,11.5682 -2.2407,11.4318 -5.4776,-0.1666 -13.4329,0.028 -17.5715,-1.9983 -0.2763,-5.6456 5.837,-28.1875 11.8768,-29.1998 z m -192.0172,31.1273 c 8.443,-0.3909 19.1912,8.7913 15.229,18.2273 -4.1714,5.9729 -13.9539,6.0022 -20.547,6.0136 -2.2934,-5.9259 -3.1442,-14.2141 -3.4944,-19.5487 -0.3112,-3.3129 5.3826,-4.6395 8.8124,-4.6922 z" /><g
           id="g152"
           transform="translate(0,1.5875)"
           style="fill:#ff6600;fill-opacity:1" /></g></g></g></svg>
