<?xml version="1.0" encoding="UTF-8" standalone="no"?>
<!-- Created with Inkscape (http://www.inkscape.org/) -->

<svg
   width="247.65245mm"
   height="300.97672mm"
   viewBox="0 0 247.65243 300.97671"
   version="1.1"
   id="svg1"
   xml:space="preserve"
   xmlns="http://www.w3.org/2000/svg"
   xmlns:svg="http://www.w3.org/2000/svg"><defs
     id="defs1"><linearGradient
       id="swatch172"><stop
         style="stop-color:#ffffff;stop-opacity:1;"
         offset="0"
         id="stop172" /></linearGradient></defs><g
     id="layer1"
     transform="translate(522.3466,-2264.9274)"><g
       id="g108"><g
         id="g103"
         transform="translate(28.149121,2.7462557)"><g
           id="g1"
           transform="translate(-2279.0682,396.22191)"><path
             style="fill:#d58856"
             d="m 1830.4568,2056.2724 c -3.2739,-2.6125 -7.1275,-6.5408 -8.5835,-8.7498 -1.8588,-2.8201 -2.8248,-6.0775 -3.8634,-13.0272 -0.4895,-3.2754 -1.5305,-7.6705 -2.1831,-9.2166 -0.3675,-0.8709 -0.6292,-1.623 -0.5813,-1.6714 0.1055,-0.1068 5.1585,3.9443 5.1585,4.1358 l 0.3602,0.2517 c -0.1101,-0.1819 0.8475,0.6177 2.128,1.7768 7.3755,6.6764 10.7013,14.7569 10.4303,25.342 -0.047,1.8548 -0.087,3.3729 -0.088,3.3734 -8e-4,6e-4 -1.251,-0.9961 -2.7781,-2.2147 z m 40.884,-2.6289 c 0.051,-5.2663 0.3709,-7.301 1.7775,-11.295 2.4827,-7.0496 5.3354,-10.3945 15.803,-18.5292 l 1.1808,-0.9176 -0.5713,0.7937 c -1.1275,1.5667 -2.0066,4.9548 -2.9792,11.4815 -1.1642,7.8131 -2.4509,11.1114 -5.897,15.1165 -1.8102,2.1038 -5.5007,5.4064 -8.1786,7.3188 l -1.1816,0.8439 z m -46.4726,1.4712 c -0.3291,-0.4197 -0.3197,-0.429 0.1,-0.1 0.2547,0.1997 0.463,0.4081 0.463,0.463 0,0.2178 -0.2172,0.078 -0.5629,-0.3631 z m -63.0694,-38.0268 c -5.8744,-1.2865 -15.8706,-8.8382 -21.3735,-16.1467 -2.2774,-3.0246 -4.7316,-7.9469 -5.6726,-11.377 -0.6231,-2.2711 -0.7265,-3.1518 -0.7305,-6.2178 -0.01,-4.1022 0.2297,-5.0398 2.2216,-8.8635 1.5255,-2.9283 4.7463,-8.0324 6.9449,-11.0058 5.0675,-6.8533 9.4448,-11.7475 25.2247,-28.2032 2.9104,-3.0351 8.1022,-8.6706 11.5372,-12.5234 6.8029,-7.6302 11.8085,-12.6494 14.5775,-14.617 2.7035,-1.9211 6.9914,-3.8202 7.493,-3.3186 0.062,0.062 -0.6539,1.8699 -1.5914,4.017 -1.2612,2.8887 -2.191,4.5638 -3.5755,6.4419 -2.4223,3.286 -5.2509,8.9555 -6.6051,13.2391 -0.5863,1.8546 -1.7861,6.8844 -2.6662,11.1773 -1.4334,6.9922 -2.0587,10.5488 -4.3493,24.7385 -1.0216,6.3284 -1.9706,15.1177 -2.2538,20.8733 -0.8559,17.3964 -0.9531,18.273 -2.4066,21.6942 -3.2555,7.663 -9.8231,11.6142 -16.7744,10.0917 z m 175.9554,0.1214 c -5.853,-1.0398 -10.6582,-5.9078 -12.5771,-12.7415 -0.5425,-1.9322 -0.6207,-2.8689 -1.3221,-15.8297 -0.3198,-5.9096 -1.1319,-14.8349 -1.8416,-20.2406 -1.3494,-10.2788 -4.8114,-29.3946 -6.6043,-36.4675 -1.5813,-6.238 -4.7252,-13.0625 -8.0116,-17.3912 -1.3911,-1.8323 -2.2715,-3.3808 -3.4406,-6.0518 -2.1719,-4.962 -2.1262,-4.5849 -0.4967,-4.101 4.0879,1.214 6.6309,3.0154 12.4817,8.8419 2.5595,2.5488 7.2197,7.5512 10.3561,11.1165 3.1364,3.5652 8.1738,9.0421 11.1942,12.1708 12.8017,13.2609 16.4435,17.2448 21.1629,23.151 5.0241,6.2876 10.1021,14.465 11.5132,18.5403 1.9595,5.6586 -0.02,14.4215 -4.817,21.3257 -4.1562,5.9818 -10.0664,11.3506 -16.7833,15.2457 -3.5397,2.0527 -7.6911,2.9861 -10.8138,2.4314 z m -19.1857,-25.312 c 0,-0.463 -0.3675,-1.8322 -0.8116,-3.0427 -1.9414,-5.291 -5.6696,-9.9961 -11.0412,-13.9345 -2.9508,-2.1634 -6.2521,-3.7712 -10.4536,-5.0912 -3.6626,-1.1507 -8.2913,-3.3193 -11.9258,-5.5875 -2.2267,-1.3896 -6.917,-4.8125 -7.1821,-5.2414 -0.083,-0.1341 0.3596,-0.064 0.9834,0.1563 3.2205,1.1362 7.407,1.7187 14.1008,1.9618 7.373,0.2678 9.3176,0.6096 12.7693,2.245 2.2667,1.0739 2.2667,0.6959 0,-1.3113 -2.7788,-2.4607 -5.7125,-3.478 -10.4528,-3.6246 -1.4908,-0.046 -2.7112,-0.117 -2.712,-0.1576 -7e-4,-0.041 0.3392,-0.7549 0.7555,-1.5875 2.0826,-4.1657 2.8247,-8.377 2.7845,-15.8013 -0.022,-4.1109 -0.1516,-5.9718 -0.5795,-8.3397 -1.8315,-10.1348 -6.2282,-17.3935 -12.3413,-20.3747 -3.3336,-1.6257 -7.1251,-1.8207 -9.7148,-0.4995 -2.75,1.403 -5.3037,5.2852 -6.6858,10.1639 -1.1148,3.935 -1.5127,7.2341 -1.6597,13.7584 -0.1537,6.8207 0.253,11.4649 1.3997,15.9855 0.352,1.3877 0.64,2.5488 0.64,2.5802 0,0.031 -0.6059,0.015 -1.3464,-0.036 -1.5862,-0.1097 -2.2216,-0.6032 -3.7098,-2.881 -4.691,-7.1799 -6.1567,-23.9067 -3.6549,-41.7101 0.9278,-6.6027 2.1471,-9.2346 4.242,-14.4046 0.7042,-1.7379 1.2138,-3.2262 1.1324,-3.3073 -0.044,-0.044 -11.5096,-0.3732 -21.7237,0.2952 l 1.2696,2.9958 c 3.1519,7.4374 4.7228,13.7817 5.2879,26.3638 0.5448,12.1302 -0.7357,22.0523 -3.5977,27.8769 -0.6435,1.3097 -1.6194,2.8805 -2.1686,3.4907 -0.8831,0.9813 -1.1712,1.1297 -2.4932,1.284 l -1.4948,0.1744 0.4777,-1.4481 c 1.2207,-3.7 2.0085,-11.9344 1.7378,-18.1632 -0.3471,-7.9855 -1.455,-13.3227 -3.6414,-17.5416 -1.709,-3.2977 -3.8088,-5.2998 -6.344,-6.0487 -2.2024,-0.6505 -5.9818,-0.1668 -8.4217,1.078 -2.8915,1.4751 -6.0868,4.7694 -8.0758,8.326 -4.4067,7.8799 -5.8483,20.5736 -3.5468,31.2295 0.2915,1.3496 0.9529,3.2609 1.5269,4.4122 1.1961,2.399 1.2703,2.3255 -2.3514,2.3313 -3.873,0.01 -6.918,1.0807 -9.7182,3.4294 -2.5376,2.1283 -2.5998,2.5557 -0.2112,1.4521 3.4067,-1.574 5.6239,-1.9661 12.5929,-2.2269 6.3802,-0.2388 9.8604,-0.6697 13.0516,-1.6161 0.9976,-0.2959 1.8677,-0.4841 1.9335,-0.4183 0.2097,0.2096 -5.1068,4.0722 -7.7299,5.616 -3.2957,1.9396 -5.9473,3.1693 -10.9668,5.086 -10.356,3.9545 -16.3874,8.7017 -20.3883,16.0474 -0.6286,1.154 -1.4613,3.0474 -1.8506,4.2075 -0.6789,2.0233 -0.7143,2.0725 -0.8706,1.209 -0.09,-0.4951 -0.239,-2.6861 -0.3321,-4.8689 -0.1312,-3.0779 -0.073,-4.5166 0.2581,-6.4092 0.9678,-5.529 2.9852,-9.9137 6.2525,-13.59 l 1.5855,-1.7839 v -1.9408 c 0,-2.1783 0.6287,-13.0284 1.0655,-18.4772 0.5881,-7.336 2.2382,-16.471 4.1103,-22.7542 1.6462,-5.5254 4.5757,-11.9091 7.4153,-16.159 7.2548,-10.8578 18.5942,-17.8351 34.1317,-21.0017 3.2888,-0.6703 4.7249,-1.3451 7.4017,-3.4782 2.9702,-2.3669 4.2967,-4.5513 4.7567,-7.8329 l 0.1743,-1.2437 0.5972,0.7146 c 1.4613,1.7482 1.8587,2.9477 1.8587,5.6093 0,2.1208 -0.096,2.6932 -0.613,3.6636 -0.3372,0.6326 -0.5694,1.1938 -0.516,1.2472 0.053,0.053 0.8885,-0.1404 1.8559,-0.4306 3.09,-0.927 5.6789,-3.0955 6.1767,-5.1738 0.2692,-1.1237 0.4415,-1.3163 0.6655,-0.7441 0.7105,1.8143 -0.1733,5.1256 -1.8879,7.0735 -0.5772,0.6557 -1.0495,1.2531 -1.0495,1.3275 0,0.075 0.792,-0.1707 1.76,-0.5448 l 1.76,-0.6802 3.5978,0.7118 c 13.8104,2.7325 25.1103,9.7702 32.3603,20.1541 5.7154,8.1861 9.6573,20.6673 11.4466,36.2436 0.5114,4.4515 1.1917,15.9768 1.1953,20.2514 0,3.2575 0.018,3.3407 0.7024,3.9687 1.3384,1.2274 3.8869,4.8883 4.8669,6.9915 1.6662,3.5759 2.4355,7.0442 2.5798,11.6311 0.076,2.4034 -8e-4,4.8005 -0.1944,6.1023 -0.3492,2.3465 -0.7971,3.4956 -0.804,2.0622 z m -99.3551,-86.1324 c 4.2279,-2.8092 8.3829,-4.1472 11.9583,-3.8507 1.7054,0.1415 1.8041,-0.17 0.4751,-1.499 -3.4221,-3.4221 -10.8438,-1.4315 -16.0307,4.2996 -2.0731,2.2906 -5.0256,6.9712 -5.6285,8.923 -0.091,0.296 1.3516,-0.9587 3.2068,-2.7883 2.1968,-2.1664 4.296,-3.9397 6.019,-5.0846 z m 75.0031,7.3201 c -1.5594,-3.638 -4.8005,-8.0148 -7.5841,-10.2414 -2.3366,-1.8691 -3.768,-2.6679 -5.9974,-3.3468 -3.3098,-1.008 -6.121,-0.6338 -7.8915,1.0504 -1.5332,1.4585 -1.3798,1.7326 0.9079,1.6219 5.9019,-0.2856 11.9365,2.8494 18.587,9.6558 1.3097,1.3404 2.4068,2.4434 2.438,2.4512 0.031,0.01 -0.1757,-0.5283 -0.4599,-1.1911 z m -62.4693,2.8584 c -0.3291,-0.4196 -0.3198,-0.429 0.1,-0.1 0.4407,0.3457 0.5809,0.563 0.3631,0.563 -0.055,0 -0.2633,-0.2084 -0.463,-0.4631 z m 83.6083,-8.7312 c -0.3291,-0.4196 -0.3197,-0.429 0.1,-0.1 0.4407,0.3456 0.5809,0.5629 0.3631,0.5629 -0.055,0 -0.2633,-0.2083 -0.463,-0.463 z m -49.6166,-26.9328 c -0.086,-0.2245 -0.098,-0.4674 -0.025,-0.5396 0.072,-0.072 0.1949,0.1114 0.2725,0.4083 0.1649,0.6304 -0.018,0.7278 -0.2472,0.1313 z"
             id="path95" /><path
             id="path94"
             style="fill:#f5730c"
             d="m 1852.3174,2071.9822 c -3.4508,0 -7.7797,1.3794 -9.4873,3.0231 -2.1403,2.06 -2.1179,3.4618 0.1468,9.2056 0.9593,2.433 1.8674,4.8738 2.0179,5.424 0.4408,1.6106 1.2292,2.6742 2.188,2.9507 0.4785,0.138 2.9571,0.2614 5.5077,0.2744 5.3558,0.027 5.4562,-0.01 6.287,-2.1497 4.629,-11.9418 4.6438,-11.9941 3.9072,-13.7568 -1.1382,-2.7242 -5.915,-4.9713 -10.5673,-4.9713 z m 3.1822,24.0802 c -1.1188,0 -1.2614,0.056 -1.0991,0.4594 0.803,1.9949 1.32,12.5455 0.6645,13.5599 -0.1519,0.2352 -0.2609,0.2696 -0.2609,0.084 0,-0.1722 -0.3073,-1.9581 -0.6785,-3.9687 -0.6196,-3.3566 -1.1297,-4.8462 -1.6594,-4.8462 -0.1129,0 -0.4745,1.2203 -0.8035,2.7119 -0.8357,3.7898 -1.0925,4.5414 -1.4346,4.1993 -0.5052,-0.5048 -0.5656,-7.0455 -0.089,-9.5778 0.235,-1.2483 0.4274,-2.3547 0.4274,-2.4587 0,-0.1016 -0.9192,-0.1536 -2.0428,-0.1116 l -2.0433,0.077 -1.8004,6.35 c -1.5788,5.5674 -2.4502,9.2563 -3.0623,13.0069 h 21.0065 c -1.0684,-6.0034 -2.0673,-10.3078 -3.4097,-14.5944 -0.5013,-1.6007 -0.9928,-3.2853 -1.0908,-3.7435 -0.2028,-0.9434 -0.657,-1.1377 -2.6242,-1.1477 z" /><path
             id="path74"
             style="fill:#36528a"
             d="m 1897.7947,2052.0056 -0.028,7.1443 c -0.016,3.9884 -0.2311,9.8312 -0.4883,13.2287 -0.2534,3.347 -0.5612,7.3955 -0.6837,8.9963 -0.5512,7.2064 -1.4391,13.1404 -3.1874,21.2985 -0.8732,4.0747 -1.9523,8.4124 -3.1337,12.8746 h 23.8239 c 0.849,-1.8525 1.9395,-4.2594 2.5306,-5.5981 l 1.1679,-2.6463 -1.4066,-1.323 c -9.2442,-8.693 -13.5631,-12.6993 -16.2797,-15.1019 -3.1992,-2.8294 -3.2411,-2.8813 -3.2411,-4.0054 v -1.1384 l 2.8442,2.3331 c 1.5643,1.2834 3.4556,2.7729 4.2024,3.3099 l 1.3575,0.9762 3.4484,-1.1813 c 4.9994,-1.7124 7.2619,-2.7672 7.0595,-3.2908 -0.09,-0.2321 -1.0612,-2.863 -2.159,-5.8461 -2.6708,-7.2577 -6.1731,-15.3399 -8.3696,-19.3146 -1.1256,-2.0368 -3.8667,-6.0909 -5.8136,-8.5985 z m -91.3882,0.4042 c -0.2321,0.01 -3.9883,5.3268 -5.6033,7.9307 -1.5025,2.4227 -5.1553,9.8143 -7.3871,14.949 -1.9285,4.4369 -4.811,12.3229 -4.654,12.732 0.1846,0.4812 1.7894,1.2548 6.0467,2.9146 3.6128,1.4085 3.7104,1.4304 4.3925,0.9896 1.4019,-0.9058 7.3839,-5.3964 7.7065,-5.7852 0.5148,-0.6203 0.7287,-0.4818 0.849,0.5488 0.099,0.8457 -0.02,1.072 -1.0955,2.0877 -0.6635,0.6267 -2.0396,1.8329 -3.0582,2.68 -1.0186,0.8471 -4.2333,3.5762 -7.1438,6.0647 -2.9104,2.4885 -6.3632,5.3944 -7.6729,6.4575 -1.3097,1.0631 -2.4103,1.9569 -2.4443,1.9859 -0.035,0.029 1.1936,2.9025 2.729,6.3847 0.3097,0.7023 0.9754,2.2441 1.3932,3.1982 h 23.6224 c -0.087,-0.3337 -0.1766,-0.6297 -0.2641,-0.9679 -3.4672,-13.3922 -4.8533,-20.7223 -5.7041,-30.1625 -0.769,-8.5332 -1.2238,-16.477 -1.3895,-24.2755 -0.09,-4.2565 -0.2355,-7.7323 -0.3225,-7.7323 z m 101.4806,9.8262 c -0.2055,-0.075 -0.1606,0.063 0.1478,0.4196 2.6922,3.1141 12.721,26.0948 12.1063,27.741 -0.3587,0.9603 -3.693,2.6038 -8.5205,4.1997 l -2.5776,0.8522 2.1808,1.8164 c 4.9105,4.0897 10.2811,9.0169 10.4179,9.5576 0.1676,0.6623 -1.0466,4.2015 -2.7796,8.7255 h 27.7952 c 0.1868,-0.8587 0.3974,-1.6947 0.5803,-2.5554 2.2416,-10.5462 2.7077,-13.2012 3.3192,-18.9177 0.3596,-3.3616 0.5841,-5.7497 0.6821,-7.2967 l -0.5364,-0.2444 c -0.4268,0 -5.4359,-2.6896 -8.5566,-4.5946 -3.6928,-2.2542 -12.934,-7.7475 -15.7763,-9.3782 -0.8732,-0.5009 -4.7999,-2.6307 -8.7261,-4.7325 -3.9262,-2.102 -7.7066,-4.2301 -8.401,-4.729 -0.6938,-0.4984 -1.1499,-0.7879 -1.3555,-0.8635 z m -111.1456,0.021 c -0.055,-0.055 -0.5776,0.2004 -1.1607,0.5685 -0.5831,0.3681 -7.47,4.233 -15.3045,8.5886 -14.092,7.8345 -15.9489,8.8811 -22.7691,12.8318 -1.9236,1.1143 -3.5388,2.0087 -3.5838,2.0257 l -0.4594,0.1705 c 0,2.8572 0.8643,11.5903 1.6035,16.2052 0.603,3.7642 1.4904,8.2057 2.5105,12.9005 h 28.1879 c -1.7959,-4.8866 -3.2083,-9.0223 -3.0944,-9.3193 0.1416,-0.3688 4.8908,-4.5467 9.2392,-8.1272 2.4336,-2.0039 3.0191,-2.6069 2.6459,-2.7254 -1.995,-0.6334 -6.3708,-2.4653 -7.9504,-3.3285 -2.7641,-1.5104 -2.8456,-1.6861 -1.9271,-4.1542 2.4662,-6.6267 9.4575,-21.5551 11.5068,-24.5711 0.3608,-0.5308 0.6106,-1.0101 0.5556,-1.0651 z m -45.7905,24.4099 -0.8615,1.7198 c -1.0356,2.0672 -1.5135,4.2052 -2.0412,9.1281 -0.5224,4.8742 -1.0956,9.5005 -1.7203,13.8906 -0.1963,1.3793 -0.3431,2.7625 -0.5147,4.1424 h 8.0021 c -1.1195,-7.3527 -2.4347,-20.1408 -2.7993,-27.558 z m 202.8734,0.1085 c -0.037,0 -0.059,0.053 -0.062,0.155 -0.055,1.7819 -0.6025,9.0884 -0.9411,12.5678 -0.4868,5.0037 -1.2287,10.418 -2.1487,16.0496 h 7.9825 c -0.1839,-1.5629 -0.3294,-2.9234 -0.5462,-4.672 -0.6406,-5.166 -1.411,-11.5359 -1.7121,-14.1553 -0.3011,-2.6194 -0.7189,-5.4465 -0.9281,-6.2823 -0.3893,-1.5562 -1.3848,-3.6963 -1.6443,-3.6628 z" /><path
             id="path73"
             style="fill:#223c6e"
             d="m 1848.9331,1866.002 c -0.4806,0.1524 -0.5332,0.3115 -0.3824,1.1421 0.6169,3.3967 0.432,5.4952 -0.6951,7.893 -1.2614,2.6841 -3.659,4.2679 -7.7302,5.1056 -11.1333,2.2907 -19.9484,6.0561 -27.3301,11.6748 -2.5586,1.9475 -5.6435,5.0637 -7.028,7.0993 -1.0438,1.5345 -1.1407,1.5994 -2.5916,1.5994 -3.1159,0.01 -7.6082,1.8654 -11.2283,4.6364 -2.3194,1.7755 -8.1589,7.7113 -15.3551,15.6083 -3.05,3.347 -10.3681,10.9706 -16.2621,16.9416 -11.4419,11.5916 -15.8604,16.3348 -19.7972,21.2525 -4.6094,5.7579 -8.8078,12.5934 -10.5151,17.1199 -3.0172,7.9992 -1.2694,17.3741 4.856,26.0454 2.2422,3.1741 8.6295,9.6307 11.9621,12.0918 5.1676,3.8161 9.5702,6.2474 13.3614,7.3794 3.2971,0.9844 7.5443,1.0446 10.4511,0.1478 3.0237,-0.9329 5.1665,-2.2497 7.5623,-4.6468 2.4338,-2.4351 4.3518,-5.1643 6.3696,-9.064 l 1.3953,-2.697 1.7952,1.926 c 4.0952,4.3938 6.5496,10.7266 5.9733,15.413 -0.1307,1.0665 -0.1827,1.9394 -0.1147,1.9394 0.068,0 0.6964,-0.3673 1.3963,-0.8165 1.562,-1.0023 4.0179,-3.6151 4.7532,-5.0565 0.3,-0.5881 0.6402,-0.9657 0.756,-0.8393 0.4514,0.4932 1.3549,3.4039 1.6061,5.1754 0.3079,2.1709 0.3602,2.2823 1.232,2.6138 0.9513,0.3617 2.7125,-0.4935 3.7972,-1.8433 l 0.879,-1.094 0.7824,0.7318 c 1.5213,1.4233 3.0844,3.8206 3.6178,5.5475 0.6878,2.2251 0.6947,5.1817 0.018,7.8263 -0.6368,2.4899 -0.995,3.1791 -2.4422,4.7011 -0.9132,0.9604 -1.2969,1.6824 -1.8991,3.5718 -0.4151,1.3025 -1.0229,2.8585 -1.3508,3.4577 -0.9763,1.7843 -6.4606,8.5223 -7.0962,8.7183 -1.1801,0.3639 -18.4648,9.1094 -23.7392,12.0112 -8.3382,4.5877 -15.967,8.9002 -19.2174,10.8639 -1.6201,0.9788 -3.7632,2.0397 -4.7625,2.3575 -2.1279,0.6769 -4.0025,1.8633 -4.8131,3.0463 -2.2,3.2106 -4.8349,15.86 -6.5004,29.9651 h 5.1511 c 0.172,-1.384 0.3194,-2.7714 0.5162,-4.1548 0.6247,-4.3901 1.198,-9.0164 1.7204,-13.8906 0.5277,-4.9229 1.0056,-7.0609 2.0412,-9.1281 l 0.8614,-1.7198 0.065,1.3229 c 0.367,7.4632 1.6982,20.2427 2.8221,27.5704 h 3.7625 c -1.0421,-4.7659 -1.9444,-9.2425 -2.5326,-12.9144 -0.7392,-4.6149 -1.6035,-13.3486 -1.6035,-16.2058 l 0.4594,-0.17 c 0.048,0 1.6601,-0.9119 3.5837,-2.0262 6.8202,-3.9507 8.6772,-4.9968 22.7692,-12.8313 7.8345,-4.3556 14.7214,-8.2205 15.3045,-8.5886 0.5831,-0.3681 1.1056,-0.624 1.1606,-0.569 0.055,0.055 -0.1947,0.5348 -0.5555,1.0656 -2.0493,3.016 -9.0401,17.9439 -11.5063,24.5706 -0.9185,2.4681 -0.8371,2.6439 1.927,4.1543 1.5796,0.8632 5.9549,2.6951 7.9499,3.3285 0.3732,0.1185 -0.2122,0.7215 -2.6458,2.7254 -4.3484,3.5805 -9.0976,7.7583 -9.2392,8.1271 -0.1141,0.2975 1.3232,4.4378 3.1228,9.3338 h 4.6746 c -0.4197,-0.9584 -1.0875,-2.5051 -1.3983,-3.2101 -1.5354,-3.4822 -2.7635,-6.3556 -2.7285,-6.3846 0.034,-0.029 1.134,-0.9229 2.4437,-1.986 1.3097,-1.0631 4.7626,-3.969 7.673,-6.4575 2.9102,-2.4885 6.1251,-5.2176 7.1437,-6.0647 1.0186,-0.8471 2.3952,-2.0527 3.0587,-2.6794 1.0755,-1.0157 1.1941,-1.2426 1.0951,-2.0883 -0.1203,-1.0306 -0.3343,-1.1691 -0.8491,-0.5488 -0.3226,0.3888 -6.3046,4.8794 -7.7065,5.7852 -0.6821,0.4408 -0.7792,0.4189 -4.392,-0.9896 -4.2573,-1.6598 -5.8626,-2.4334 -6.0472,-2.9146 -0.157,-0.4091 2.726,-8.2951 4.6545,-12.732 2.2318,-5.1347 5.8842,-12.5263 7.3867,-14.949 1.615,-2.6036 5.3717,-7.9207 5.6038,-7.9307 0.087,0 0.2319,3.4758 0.3219,7.7323 0.1657,7.7985 0.6206,15.7423 1.3896,24.2755 0.8508,9.4402 2.2368,16.7703 5.704,30.1625 0.089,0.3424 0.1795,0.642 0.2677,0.9798 h 6.411 c -0.2442,-1.0722 -0.5369,-2.249 -0.7483,-3.2313 -0.8835,-4.1062 -2.8688,-16.0096 -2.6985,-16.1799 0.04,-0.04 0.5615,0.6691 1.1596,1.5746 1.2056,1.8251 2.9178,3.8954 3.2215,3.8954 0.1079,0 0.89,-1.0215 1.7379,-2.2697 1.4102,-2.076 3.063,-4.2563 9.9327,-13.1015 1.3105,-1.6874 2.8038,-3.451 3.3182,-3.9191 l 0.9353,-0.8512 1.6045,3.3792 c 1.3262,2.7932 1.6688,3.8108 1.9782,5.8704 0.2523,1.6796 0.642,3.0291 1.1953,4.1408 l 0.8206,1.649 -0.5674,2.4852 c -0.3123,1.3666 -1.3374,5.4017 -2.2779,8.9669 -0.674,2.555 -1.2899,5.0876 -1.865,7.5912 h 3.3791 c 0.7628,-4.6101 1.7377,-9.1956 3.6102,-15.6368 0.5884,-2.0243 1.2247,-3.7819 1.4138,-3.9057 0.1891,-0.1239 1.2174,-0.2059 2.2852,-0.1829 l 1.942,0.042 -0.1566,0.6883 c -0.8158,3.5963 -0.9964,5.3653 -0.8408,8.2202 0.091,1.6687 0.267,3.1355 0.3912,3.2597 0.2138,0.2138 0.4269,-0.4915 1.5219,-5.0369 0.2542,-1.0551 0.5652,-1.9182 0.6909,-1.9182 0.4195,0 1.2565,2.3091 1.6459,4.5403 0.2118,1.2136 0.4901,2.6829 0.6185,3.2649 l 0.2331,1.0583 0.2108,-1.8459 c 0.3658,-3.2074 -0.1116,-8.4058 -1.0754,-11.714 -0.1592,-0.5461 -0.089,-0.5943 0.8496,-0.5803 0.5627,0.01 1.4819,0.098 2.0423,0.1984 l 1.019,0.1835 0.8961,3.0427 c 1.6304,5.5351 3.0345,11.4473 3.8333,16.1396 0.017,0.1 0.012,0.085 0.029,0.1829 h 3.3491 c -0.4646,-2.0421 -0.9258,-4.1263 -1.4169,-5.9009 -0.8011,-2.8942 -1.8893,-7.02 -2.418,-9.1684 l -0.9612,-3.9058 0.8072,-1.7828 c 0.4439,-0.9804 1.0619,-2.9267 1.3736,-4.3253 0.4682,-2.1012 2.9483,-8.2871 3.5729,-8.9121 0.076,-0.077 0.3934,0.089 0.7043,0.3669 1.4211,1.2707 13.1515,16.585 14.4643,18.8836 l 0.7953,1.3921 1.6205,-2.0391 c 0.8912,-1.1215 1.7989,-2.3849 2.0175,-2.8076 0.5928,-1.1461 0.8654,-0.9302 0.617,0.4884 -0.121,0.6912 -0.4707,2.8641 -0.7772,4.8286 -0.5491,3.5189 -1.4892,8.1071 -2.5688,12.8824 h 6.3045 c 1.1826,-4.4662 2.2628,-8.8079 3.1367,-12.886 1.7483,-8.1581 2.6368,-14.0926 3.188,-21.299 0.1225,-1.6008 0.4297,-5.6488 0.6831,-8.9958 0.2572,-3.3975 0.4739,-9.2408 0.4889,-13.2292 l 0.028,-7.1437 1.6433,2.1166 c 1.9469,2.5076 4.688,6.5622 5.8136,8.599 2.1965,3.9747 5.6987,12.0569 8.3695,19.3146 1.0978,2.9832 2.0696,5.614 2.1596,5.8461 0.2024,0.5236 -2.0602,1.5779 -7.0596,3.2903 l -3.4483,1.1813 -1.3581,-0.9762 c -0.7468,-0.537 -2.6375,-2.0264 -4.2018,-3.3098 l -2.8443,-2.3332 v 1.1389 c 0,1.1241 0.042,1.1761 3.2412,4.0055 2.7166,2.4026 7.0349,6.4088 16.2791,15.1019 l 1.4071,1.3229 -1.1684,2.6458 c -0.5923,1.3415 -1.6855,3.7561 -2.5352,5.61 h 4.7651 c 1.7359,-4.5305 2.9515,-8.0745 2.7838,-8.7374 -0.1368,-0.5407 -5.507,-5.4674 -10.4175,-9.5571 l -2.1807,-1.8164 2.5776,-0.8521 c 4.8275,-1.5959 8.1617,-3.2395 8.5204,-4.1998 0.3952,-1.0583 -2.7653,-9.1748 -7.246,-18.6076 -2.507,-5.2776 -4.0769,-8.2277 -4.8602,-9.1338 -0.6168,-0.7135 -0.18,-0.553 1.2077,0.4439 0.6944,0.4989 4.4748,2.6269 8.401,4.7289 3.9262,2.1019 7.8529,4.2316 8.7261,4.7325 2.8422,1.6307 12.0836,7.124 15.7763,9.3782 3.1207,1.905 8.1298,4.5951 8.5566,4.5951 l 0.5359,0.2537 c -0.098,1.5473 -0.3233,3.9321 -0.6822,7.2869 -0.6115,5.7165 -1.077,8.3715 -3.3186,18.9177 -0.1838,0.8647 -0.3952,1.7047 -0.5829,2.5673 h 3.9827 c 0.9174,-5.6198 1.6979,-11.0669 2.1838,-16.061 0.3386,-3.4794 0.886,-10.7858 0.941,-12.5677 0.025,-0.8123 1.2615,1.7287 1.7064,3.5073 0.2092,0.8358 0.6265,3.6629 0.9276,6.2823 0.3011,2.6194 1.0719,8.9892 1.7125,14.1552 0.2174,1.753 0.363,3.1175 0.5473,4.6839 h 5.2891 c -0.036,-0.3373 -0.1158,-1.2883 -0.1447,-1.5436 -1.3832,-12.2197 -4.2162,-25.5546 -6.1459,-28.9279 -0.837,-1.4631 -2.6622,-2.539 -4.4979,-2.651 -1.2258,-0.075 -1.7932,-0.3093 -3.668,-1.5162 -7.2348,-4.6576 -18.5071,-10.7981 -34.5628,-18.8278 l -10.8779,-5.4405 -3.1874,-3.9109 c -3.184,-3.9069 -3.188,-3.9138 -4.2581,-7.1065 -0.8535,-2.5469 -1.2595,-3.3788 -1.9999,-4.0964 -1.2028,-1.1657 -2.0801,-3.0498 -2.6055,-5.5955 -0.9746,-4.7224 -0.076,-8.2434 2.9595,-11.5978 l 1.4377,-1.588 1.0149,0.9168 c 1.1646,1.0521 2.3981,1.7415 3.6075,2.0154 l 0.8413,0.1906 0.309,-1.8862 c 0.3153,-1.9256 1.4456,-5.6809 1.8273,-6.0709 0.1164,-0.1188 0.5909,0.4562 1.0547,1.278 0.4637,0.8217 1.3717,2.0216 2.017,2.667 1.0738,1.0738 3.4162,2.7533 3.8405,2.7533 0.098,0 0.064,-0.6213 -0.074,-1.3808 -0.315,-1.7331 0.1086,-5.5855 0.8517,-7.7453 0.9841,-2.8604 3.509,-6.7519 5.8813,-9.0656 l 1.1544,-1.1265 1.3777,2.7244 c 2.0101,3.9746 3.8709,6.6598 6.2735,9.0532 2.3917,2.3826 4.219,3.5617 7.0534,4.5516 1.6379,0.572 2.4153,0.6768 4.9836,0.6868 5.2045,0.016 8.9486,-1.2455 14.8167,-4.9909 9.2353,-5.8948 15.8382,-12.778 19.7864,-20.6261 2.7197,-5.4062 3.7737,-11.1848 2.9574,-16.2151 -0.7984,-4.92 -4.3536,-11.8016 -9.8598,-19.0856 -5.3985,-7.1417 -7.2533,-9.1615 -23.3402,-25.4155 -5.977,-6.0391 -13.2352,-13.5997 -16.1293,-16.8011 -6.1862,-6.8431 -12.6146,-13.3378 -14.7557,-14.9081 -3.7037,-2.7163 -7.1256,-4.1508 -10.6024,-4.4447 l -1.9627,-0.1659 -1.5249,-1.9476 c -6.2467,-7.9749 -17.5509,-14.2867 -29.8308,-16.6564 -2.2561,-0.4354 -2.3151,-0.4656 -2.3151,-1.1911 0,-2.8734 -1.6876,-6.6426 -3.9321,-8.7835 -0.8717,-0.8316 -1.6999,-1.512 -1.8401,-1.512 -0.1417,0 -0.2985,1.2636 -0.3525,2.8442 -0.085,2.4658 -0.1971,3.0468 -0.8428,4.3657 -0.4096,0.8368 -0.8255,1.5212 -0.9235,1.5208 -0.099,-4e-4 -0.1896,-0.8046 -0.2026,-1.7865 -0.02,-1.5152 -0.1746,-2.0842 -1.0257,-3.7641 -1.7245,-3.4035 -6.0319,-7.234 -7.5815,-6.7422 z m 3.0742,5.301 0.8238,1.0485 c 1.1806,1.5033 1.6074,2.4433 1.9378,4.2648 0.3276,1.8064 0.039,3.7618 -0.8015,5.423 l -0.4883,0.9658 2.1146,-0.6935 c 1.164,-0.3816 2.6776,-1.1173 3.3657,-1.6361 1.4442,-1.0887 2.6858,-3.1505 2.7088,-4.4969 l 0.015,-0.926 0.3783,0.6615 c 0.2226,0.3893 0.3776,1.4031 0.3876,2.4639 0.011,2.1258 -0.7582,4.0268 -2.2521,5.565 -0.5163,0.5317 -0.8878,0.9669 -0.8258,0.9669 0.062,0 0.891,-0.2927 1.8407,-0.6501 l 1.7265,-0.6496 3.1332,0.6625 c 10.0508,2.1257 18.0917,5.8721 24.9287,11.6153 11.0475,9.2802 17.4773,24.9526 19.5942,47.7594 0.4457,4.8014 1.0627,18.2719 0.894,19.5182 -0.1468,1.0841 -0.096,1.1904 1.2852,2.6458 1.8627,1.9637 2.9111,3.5166 4.1909,6.21 3.3028,6.9511 3.7775,16.2387 1.1612,22.7175 -1.7022,4.2152 -2.963,6.3757 -7.9086,13.5521 -1.5256,2.2136 -2.3861,4.3924 -2.7388,6.9345 l -0.2191,1.5792 -0.3597,-0.7938 c -0.2196,-0.4843 -0.3641,-1.7877 -0.3741,-3.3429 l -0.014,-2.5487 -1.0278,0.8134 c -2.1104,1.6705 -4.3293,4.91 -5.3356,7.7897 l -0.6227,1.7818 -0.7473,-1.6469 -0.7477,-1.6469 -2.1177,1.5172 c -3.0578,2.1903 -5.452,4.0604 -6.1371,4.794 -0.756,0.8094 -1.7433,3.9236 -2.4727,7.798 l -0.568,3.0158 1.079,1.4294 c 3.4184,4.5278 4.5604,11.9016 3.7703,24.3473 -0.5778,9.1028 -1.2037,13.0351 -3.4845,21.8927 -1.459,5.6666 -4.3536,14.488 -4.8075,14.6513 -0.08,0.029 -0.6633,-0.6021 -1.2955,-1.4025 -0.6322,-0.8001 -2.0534,-2.5419 -3.1584,-3.87 -1.1049,-1.3281 -3.4107,-4.4455 -5.1238,-6.9277 -4.4481,-6.4451 -9.2609,-11.5725 -13.2131,-14.0762 -1.3842,-0.8769 -1.795,-1.3198 -1.2242,-1.3198 0.2547,0 5.6293,-3.2824 10.2149,-6.2384 10.0555,-6.4822 15.907,-13.0835 17.571,-19.8231 0.598,-2.422 0.6485,-3.6229 0.2449,-5.8384 -0.3098,-1.7007 -0.626,-2.3094 -0.711,-1.3673 -0.029,0.325 -0.3917,1.833 -0.6832,3.3507 -0.4508,2.1835 -0.9143,4.3208 -1.9529,6.2823 -2.0951,3.989 -4.7242,7.0534 -9.464,10.7389 -6.0161,4.6779 -15.0543,10.0107 -20.6633,12.192 l -1.5617,0.6077 -1.5653,-0.6336 c -3.6394,-1.4731 -10.1687,-4.9788 -14.8388,-7.9669 -3.7739,-2.4146 -9.2787,-6.9856 -11.5694,-9.6067 -3.4732,-3.9743 -4.4654,-6.0704 -5.7371,-12.1243 -0.8158,-3.8835 -0.9306,-3.9414 -1.6371,-0.8253 -0.4974,2.1943 0.4365,6.3183 2.1632,9.5524 1.9385,3.6309 5.3384,7.4256 10.0371,11.2014 2.7198,2.1856 15.2991,10.4986 15.8864,10.4986 0.1373,0 0.2496,0.1191 0.2496,0.2646 0,0.1456 -0.1309,0.2646 -0.291,0.2646 -0.4868,0 -4.9581,3.9935 -8.0434,7.184 -1.8063,1.8679 -3.8053,4.3133 -5.2695,6.4456 -2.4297,3.5386 -4.5744,6.4185 -7.8997,10.6066 h -6e-4 c -1.0516,1.3244 -2.0336,2.6175 -2.1823,2.8737 -0.2179,0.3754 -0.5363,-0.2796 -1.6396,-3.3724 -2.4437,-6.85 -5.3395,-17.6822 -6.0317,-22.5624 -1.2773,-9.0046 -1.6764,-21.085 -0.8522,-25.7814 0.7088,-4.0386 2.2373,-7.7461 3.9502,-9.5798 0.8856,-0.948 0.8992,-1.2396 0.2098,-4.6126 -0.8182,-4.0029 -1.7997,-6.7152 -2.7518,-7.6063 -1.3206,-1.2361 -8.2121,-6.2903 -8.2641,-6.0606 -0.2408,1.0712 -0.9932,3.2531 -1.1219,3.2531 -0.09,0 -0.4324,-0.7718 -0.7617,-1.7152 -1.0077,-2.8874 -3.0664,-5.9514 -5.3867,-8.0171 l -0.9757,-0.8686 0.1442,1.5942 c 0.1405,1.5492 -0.3244,4.6596 -0.7343,4.9129 -0.1104,0.068 -0.2861,-0.613 -0.3907,-1.5142 -0.3656,-3.1496 -1.2308,-4.9728 -4.5594,-9.6056 -3.2956,-4.5868 -5.9235,-9.5976 -6.8017,-12.9692 -0.2201,-0.8451 -0.5401,-2.8228 -0.7105,-4.3946 -0.8627,-7.9534 2.1401,-17.202 7.1577,-22.0467 l 1.0831,-1.0459 v -3.0122 c 0,-4.3442 0.9878,-18.8244 1.601,-23.471 3.654,-27.6872 13.8288,-42.8929 34.0702,-50.9183 2.7911,-1.1066 7.944,-2.5496 11.943,-3.344 2.6554,-0.5275 5.0175,-1.8248 7.5721,-4.1594 2.1139,-1.9319 3.2461,-4.0924 3.5037,-6.6859 z m -26.0852,27.5575 v 5e-4 c -5.2488,0.5485 -11.3588,5.6969 -15.0208,12.9625 -0.4563,0.9053 -0.8299,1.7143 -0.8299,1.7983 0,0.084 1.1013,-0.9612 2.4474,-2.3223 6.3235,-6.3942 11.254,-9.0907 17.2377,-9.4268 l 2.8846,-0.1618 -0.7333,-0.8692 c -0.9407,-1.1159 -1.9301,-1.6178 -3.7987,-1.927 -0.7051,-0.1166 -1.4372,-0.1325 -2.187,-0.054 z m 51.3467,0.2098 c -2.3873,-0.01 -4.2995,0.814 -5.1025,2.189 l -0.4956,0.8485 h 2.4547 c 5.877,0 10.7184,2.4535 17.2299,8.7313 1.4967,1.443 2.7482,2.6244 2.7812,2.6344 0.1711,0.032 -0.5617,-1.5141 -1.526,-3.2194 -3.8399,-6.7911 -9.8462,-11.1698 -15.3417,-11.1838 z m 24.7629,4.9315 c 0.157,-0.1882 3.1882,0.8264 4.5987,1.5394 4.2752,2.1611 9.5087,7.0955 18.6686,17.601 4.9837,5.7159 6.7869,7.6519 17.2454,18.5208 13.6892,14.226 19.4052,21.273 24.7903,30.5625 2.6262,4.5305 3.3729,6.6568 3.5382,10.0707 0.153,3.1598 -0.1579,5.4501 -1.1658,8.5793 -1.72,5.3398 -4.7987,10.1072 -9.7492,15.0988 -5.0055,5.0469 -10.9079,9.1484 -15.472,10.7518 -1.9927,0.7 -6.0191,0.8729 -7.9137,0.3396 -4.3749,-1.2315 -8.1176,-4.6538 -10.3611,-9.4744 -1.3833,-2.9722 -1.5751,-4.2667 -2.2407,-15.1283 -0.9139,-14.9135 -1.6067,-21.9148 -3.0401,-30.7185 -0.4288,-2.6342 -0.9572,-5.9678 -1.1741,-7.4083 -0.4866,-3.2323 -3.023,-16.2195 -4.0768,-20.8753 -1.7264,-7.6273 -4.9509,-14.7006 -9.0129,-19.7698 -0.8093,-1.01 -1.7944,-2.8583 -2.9615,-5.5563 -0.9619,-2.2235 -1.7153,-4.083 -1.6733,-4.133 z m -99.7262,0.5674 v 0 c 0.073,0.073 -0.072,0.5274 -0.322,1.0103 -0.2497,0.483 -1.0725,2.3099 -1.8283,4.0597 -0.8605,1.9921 -1.93,3.923 -2.8608,5.1656 -3.1511,4.2065 -5.561,9.0346 -7.1861,14.396 -2.2412,7.3939 -6.6091,31.8385 -8.2068,45.929 -0.3806,3.3565 -0.8467,9.8191 -1.0686,14.8166 -0.5705,12.8554 -0.8209,14.4367 -2.9316,18.5328 -2.3228,4.5075 -5.7712,7.5386 -9.7555,8.5741 -1.9453,0.5039 -5.0954,0.5006 -6.9924,-0.01 -4.2931,-1.1546 -11.9171,-6.3692 -16.8449,-11.5213 -6.9474,-7.2639 -10.0823,-13.7891 -10.3689,-21.5821 -0.1126,-3.0625 -0.057,-3.7284 0.4511,-5.424 0.6651,-2.2169 2.1948,-5.1712 4.8364,-9.341 5.2272,-8.251 10.1482,-14.1218 23.7309,-28.3104 8.6096,-8.9937 11.5075,-12.1232 19.5471,-21.1067 7.2124,-8.0595 11.2685,-11.7259 15.1448,-13.6902 1.5689,-0.795 4.4367,-1.719 4.6556,-1.5001 z m 25.3932,6.2823 c -0.9215,0.01 -1.8902,0.1451 -2.9047,0.4067 -7.9905,2.0601 -14.0301,11.8025 -15.2404,24.584 -0.8077,8.5295 0.4896,17.66 3.0432,21.423 0.3574,0.5267 0.6496,0.9952 0.6496,1.0402 0,0.045 -1.5181,0.1501 -3.3734,0.2331 -5.1014,0.2272 -7.5943,1.1601 -10.4459,3.9098 -1.4173,1.3667 -1.5283,1.536 -0.7628,1.1633 3.6809,-1.7918 6.8921,-2.4043 13.7883,-2.6304 8.645,-0.2834 10.5037,-0.6549 19.3839,-3.8731 7.3975,-2.6804 8.1275,-2.9667 7.0083,-2.7461 -0.8405,0.1657 -0.8646,0.06 -0.3354,-1.4402 1.6278,-4.6138 2.2924,-16.7618 1.3256,-24.2234 -1.5352,-11.845 -5.6857,-17.9161 -12.1363,-17.8469 z m 49.18,0.1286 c -2.0759,-0.01 -2.5675,0.085 -3.8819,0.7307 -4.0356,1.9818 -6.8101,7.4921 -8.0657,16.0213 -0.6517,4.3958 -0.6491,15.1808 0,19.2226 0.4226,2.6308 1.172,5.8671 1.6387,7.0766 0.1532,0.3967 0.063,0.4388 -0.6434,0.2976 -1.4083,-0.2817 -0.9007,0.1206 0.832,0.6594 0.9095,0.2827 3.7372,1.2909 6.2838,2.2402 7.7011,2.8708 11.101,3.5548 18.7503,3.7734 7.4519,0.2129 10.687,0.8089 13.9258,2.5662 0.4365,0.2369 0.832,0.4314 0.879,0.4414 0.266,0.033 -1.2271,-1.5871 -2.2242,-2.4133 -2.4441,-2.0251 -4.9047,-2.8085 -9.5689,-3.0469 -1.7826,-0.091 -3.2411,-0.2273 -3.2411,-0.3033 0,-0.076 0.1705,-0.3254 0.3787,-0.5555 0.5802,-0.6411 1.9969,-4.3602 2.4113,-6.3299 0.2037,-0.968 0.5697,-3.4248 0.8134,-5.4596 0.3791,-3.1638 0.3997,-4.2941 0.1426,-7.8052 -0.6661,-9.0956 -3.0284,-16.1117 -7.1314,-21.1806 -3.287,-4.0607 -6.8232,-5.9186 -11.2975,-5.9351 z m 0.1566,3.034 c 6.879,0 12.7337,7.5859 14.8254,19.2091 0.6898,3.8331 0.8392,11.9942 0.278,15.1867 -0.7565,4.3034 -1.8239,7.3136 -3.3026,9.3136 -0.4824,0.6521 -0.7065,0.7359 -1.8867,0.7049 -1.4277,-0.038 -5.7847,-0.4849 -5.9061,-0.6062 -0.04,-0.04 0.3506,-0.7749 0.8676,-1.6334 2.0308,-3.3725 3.101,-8.9887 2.5549,-13.4075 -0.5972,-4.8322 -1.6396,-7.5503 -3.7109,-9.6769 -1.6876,-1.7326 -3.3523,-2.37 -5.0296,-1.9265 -1.5546,0.4112 -2.8026,1.4119 -4.0298,3.2318 -3.4076,5.0532 -3.7933,13.9119 -0.9012,20.7078 0.197,0.4629 0.1653,0.4676 -0.5783,0.083 -0.9639,-0.4985 -1.4535,-1.8711 -2.281,-6.3934 -0.5117,-2.7967 -0.5851,-4.0741 -0.5751,-10.7162 0.01,-8.0969 0.2422,-10.2878 1.6138,-15.0306 1.6649,-5.757 4.5965,-9.0459 8.0616,-9.0459 z m -48.8875,0.031 c 1.3887,0.1351 2.5982,0.7812 3.7925,1.9683 1.6388,1.6289 2.6769,3.6023 3.7538,7.136 1.4834,4.8675 1.7396,7.1289 1.7296,15.3391 -0.01,6.4334 -0.084,7.8188 -0.5808,10.5276 -0.7177,3.912 -1.5454,6.1095 -2.3446,6.2234 l -0.5757,0.082 0.5194,-1.3663 c 0.902,-2.3738 1.3264,-5.0234 1.3534,-8.4548 0.032,-4.1101 -0.4947,-6.7697 -1.9229,-9.7038 -2.0312,-4.172 -5.1068,-5.737 -8.2041,-4.1718 -1.1123,0.562 -2.8919,2.6932 -3.7042,4.4354 -1.3902,2.9823 -1.697,4.6586 -1.697,9.3079 -10e-4,3.6257 0.086,4.5363 0.6051,6.3423 0.6681,2.323 1.5786,4.1655 2.6055,5.273 0.3685,0.3974 0.6282,0.7613 0.5772,0.8093 -0.051,0.048 -1.318,0.2181 -2.8153,0.3793 -4.1353,0.445 -4.4012,0.4181 -5.194,-0.524 -0.9822,-1.1673 -1.8799,-2.8125 -2.3688,-4.3424 -0.8664,-2.7106 -1.4888,-7.4747 -1.4888,-11.3941 0,-13.6846 4.9237,-24.585 12.317,-27.2686 0.7852,-0.2849 1.5096,-0.4736 2.188,-0.5633 0.5088,-0.067 0.9918,-0.079 1.4547,-0.034 z m 47.1361,19.0531 c 0.3593,0.015 0.675,0.2127 1.0604,0.5984 1.2602,1.2602 1.1236,3.7617 -0.2976,5.4508 -1.3704,1.6285 -2.7141,1.81 -3.6375,0.4915 -1.0326,-1.4742 -0.1265,-5.0039 1.5508,-6.0405 0.5612,-0.3467 0.9647,-0.515 1.3239,-0.5002 z m -49.0962,0.096 c 1.227,-0.1509 2.2516,1.0567 2.0903,3.2861 -0.1265,1.7491 -0.9794,3.1612 -2.3321,3.8607 -0.8941,0.4624 -1.0336,0.4719 -1.6532,0.1111 -1.4188,-0.8264 -1.565,-3.321 -0.3193,-5.4467 0.669,-1.1414 1.4781,-1.7207 2.2143,-1.8112 z m 27.4908,24.0285 c -7.6527,-0.3397 -15.4165,1.6267 -18.4665,4.6767 -1.7633,1.7633 -2.4959,3.6422 -2.4789,6.3547 0.027,4.3318 2.2251,8.4719 7.1039,13.3811 3.0723,3.0914 3.2859,3.2498 6.6001,4.8948 2.1914,1.0877 3.6209,1.9693 3.9688,2.4468 0.4901,0.6727 0.5525,1.2043 0.6325,5.3935 0.1303,6.8389 -0.329,8.0571 -3.6685,9.7389 -3.9406,1.9844 -9.3886,2.9733 -13.7077,2.4877 -8.0858,-0.9092 -15.0798,-5.2568 -19.7554,-12.2809 -2.2187,-3.3332 -6.2717,-11.8003 -6.5226,-13.626 -0.079,-0.5766 0.2261,-0.8699 2.3802,-2.2825 l 2.4707,-1.6196 -1.6862,-0.1809 c -5.7322,-0.6138 -10.415,2.5175 -11.5538,7.7262 l -0.247,1.1302 1.2299,-0.9354 c 2.2837,-1.7368 4.6418,-3.0565 4.8348,-2.7063 0.098,0.1779 0.6193,1.514 1.1586,2.9693 1.3289,3.5862 3.777,8.6777 5.164,10.74 3.4083,5.0675 7.2236,8.531 12.3336,11.1957 1.0384,0.5414 2.1251,1.2444 2.4149,1.5626 0.589,0.6466 2.5162,3.5529 5.0689,7.6445 6.4418,10.3253 10.7018,13.783 18.1446,14.7252 1.0187,0.129 1.9712,0.2481 2.1167,0.2641 1.2939,0.1426 6.4072,-0.5758 8.0026,-1.124 5.9698,-2.0512 8.5417,-4.6938 15.8135,-16.2512 l 3.4427,-5.472 2.6427,-1.4097 c 6.5603,-3.5001 10.8435,-7.9655 14.3842,-14.996 1.4335,-2.8463 4.0008,-9.207 4.0008,-9.912 0,-0.1512 0.058,-0.2745 0.1286,-0.2745 0.2723,0 2.9865,1.743 4.4731,2.8727 l 1.5596,1.1845 -0.1901,-1.0361 c -0.5874,-3.2042 -2.9662,-6.1567 -5.8198,-7.2244 -1.7148,-0.6416 -5.1434,-0.981 -6.3454,-0.6279 -0.7652,0.2248 -0.7557,0.2361 1.5214,1.7829 1.6264,1.1048 2.2913,1.7133 2.2913,2.098 0,1.4732 -4.1988,10.3673 -6.5681,13.9123 -1.8197,2.7228 -5.0927,6.0331 -7.6713,7.7593 -7.3683,4.933 -15.8945,5.8428 -24.274,2.589 -2.7907,-1.0836 -3.72,-1.7802 -4.5093,-3.3797 -0.6632,-1.3436 -0.6741,-1.4582 -0.5881,-6.35 0.1119,-6.4064 0.053,-6.2868 4.0711,-8.2889 3.4777,-1.7327 4.1855,-2.2165 6.5603,-4.4855 5.5837,-5.335 8.4827,-11.3867 7.5711,-15.8037 -0.4192,-2.0312 -1.0278,-3.1596 -2.4174,-4.4819 -3.048,-2.9005 -8.1016,-4.4482 -15.6151,-4.7816 z m -3.422,3.6726 v 6e-4 c 0.8909,-0.031 1.9248,-0.028 3.0086,0.012 3.8237,0.1434 5.8123,0.6754 7.3458,1.9658 2.0293,1.7075 -0.084,3.8511 -4.5036,4.5682 -5.199,0.8434 -11.2505,-0.2903 -12.7759,-2.3936 -0.467,-0.6444 -0.4738,-0.7483 -0.084,-1.5002 0.5133,-0.9926 2.5407,-2.0175 4.8597,-2.4577 0.5114,-0.097 1.259,-0.1634 2.1497,-0.1949 z m -16.7974,23.2364 c -0.2315,0.051 -0.4525,0.1767 -0.6304,0.3911 -0.4252,0.5124 -0.1352,1.65 0.4604,1.8056 0.2545,0.067 0.5002,0.1349 0.5462,0.1519 0.3518,0.1292 1.1069,-0.6327 1.1069,-1.1167 0,-0.8558 -0.7885,-1.3834 -1.4831,-1.2319 z m 36.8536,0.048 c -0.7371,0.071 -0.8525,0.1892 -0.9255,0.9436 -0.067,0.6986 0.033,0.9063 0.5291,1.0935 1.1574,0.4367 2.0989,-0.5119 1.5415,-1.5534 -0.2298,-0.4297 -0.5052,-0.5457 -1.1451,-0.4837 z m 7.2269,3.713 c -0.178,0.036 -0.3429,0.1662 -0.5875,0.4108 -0.4893,0.4893 -0.5229,0.6584 -0.2512,1.2547 0.2592,0.5685 0.4639,0.6747 1.172,0.6067 0.7535,-0.073 0.8675,-0.1869 0.9405,-0.9405 0.068,-0.708 -0.037,-0.913 -0.6061,-1.1721 -0.2982,-0.1358 -0.4897,-0.1952 -0.6677,-0.1596 z m -51.4113,0.1834 c -0.753,0.2159 -1.2465,1.0958 -0.7002,1.7539 0.3866,0.4662 1.3533,0.5018 1.7885,0.067 0.534,-0.534 0.3789,-1.5275 -0.278,-1.7823 -0.2798,-0.1085 -0.5593,-0.1103 -0.8103,-0.038 z m 43.1126,3.2355 c -0.5811,0.02 -0.9612,0.3843 -0.9612,0.9932 0,0.4025 0.085,0.817 0.1892,0.9209 0.104,0.1002 0.5503,0.153 0.9921,0.11 0.6881,-0.067 0.8142,-0.1984 0.8842,-0.9157 0.063,-0.6532 -0.038,-0.8754 -0.463,-1.0102 -0.2317,-0.073 -0.4476,-0.1047 -0.6413,-0.098 z m -34.2739,0.01 c -1.1006,-0.1633 -1.7762,1.007 -1.0185,1.7647 0.4459,0.4459 1.536,0.2792 1.8919,-0.2893 0.3767,-0.6016 -0.07,-1.3563 -0.8734,-1.4754 z m 23.5593,25.9395 c 1.8342,-0.073 4.0922,0.1606 5.1863,0.6031 1.3324,0.5389 2.715,2.0164 2.715,2.9011 0,2.1053 -5.8944,5.8138 -10.5657,6.6471 -4.9305,0.8797 -10.3393,-0.1436 -14.1015,-2.6675 -2.0565,-1.3796 -3.6432,-2.8871 -3.6432,-3.4613 0,-1.0825 0.871,-2.0304 2.5999,-2.8308 1.5885,-0.7352 2.0314,-0.8196 4.4116,-0.8346 2.2742,-0.014 2.9515,0.091 4.8209,0.7539 l 2.175,0.771 1.6614,-0.6996 c 0.9138,-0.3845 2.3118,-0.8356 3.1063,-1.0026 0.4584,-0.096 1.0226,-0.1554 1.634,-0.1798 z m 12.3962,11.1885 -0.9685,1.1906 c -2.6545,3.263 -6.0984,6.0122 -9.4469,7.5406 -2.8612,1.3059 -4.3703,1.5915 -8.2347,1.5575 -7.7082,-0.067 -12.1203,-2.4776 -18.5838,-10.1549 -0.2887,-0.3428 1.1629,3.2912 2.1053,5.271 1.9661,4.1304 6.5411,7.6743 11.6277,9.0067 2.6264,0.6881 6.8275,0.7024 9.4082,0.032 6.74,-1.7507 11.238,-5.9416 13.4514,-12.5325 z m -18.7736,43.4454 c 2.8704,0 4.8282,0.3873 6.7381,1.3399 2.9055,1.4491 4.3656,3.2326 4.3656,5.332 0,0.582 -0.4067,2.1641 -0.9038,3.5161 -3.5807,9.7394 -3.7168,10.0673 -4.3677,10.4944 -0.534,0.3504 -1.5458,0.4432 -5.4312,0.4972 -6.4274,0.09 -6.5238,0.044 -7.7923,-3.6732 -0.4156,-1.218 -1.3688,-3.7439 -2.1187,-5.6136 -0.75,-1.8696 -1.4354,-3.9235 -1.5234,-4.5641 -0.5584,-4.0738 4.3354,-7.3287 11.0334,-7.3287 z" /><path
             id="path98"
             style="fill:#ffffff;stroke-width:0.554121;stroke-linecap:round;paint-order:markers fill stroke"
             d="m -6903.6915,982.58005 c -11.5727,6.31671 -17.6659,13.29261 -40.5742,20.70705 5.7975,11.272 8.9542,22.7038 13.5254,34.9336 7.0064,31.0088 10.6021,61.0186 10.4883,92.7578 0.2,19.3666 0.07,38.8651 -4.045,57.8887 -3.2252,16.3165 -8.3176,33.2095 -19.7324,45.7363 -3.9262,3.5588 -10.1458,1.7636 -13.9375,5.1543 -19.3786,8.1013 -39.4587,14.5336 -59.5254,20.5957 5.9818,-0.3364 12.2287,-3.2878 18.086,-3.4414 -8.0447,7.7965 -17.9521,13.5889 -27.293,19.7558 -29.4281,18.4053 -65.6371,24.3208 -92.2402,47.5313 -16.1216,13.3585 -28.264,31.1843 -35,51.002 -4.0409,7.3229 1.4004,14.7539 3.916,21.5507 8.217,18.9556 21.987,34.669 31.9062,52.6368 4.114,7.1121 4.4496,15.5695 6.6446,23.207 2.2355,-0.7891 1.7551,-4.8555 2.4492,-6.7813 0.819,-5.6342 0.6113,-11.3453 0.6562,-17.0156 12.3706,9.425 19.8051,23.5917 25.4063,37.7598 1.635,2.6941 2.6002,-2.3732 3.0136,-3.4102 0.9678,-2.0676 1.178,-5.2851 2.6485,-6.8281 10.6241,6.5326 20.7218,14.0784 30.1523,22.2441 4.7751,4.4308 5.5406,11.4511 8.4492,16.8086 -0.7719,-4.9797 -3.4937,-9.7257 -4.2968,-14.582 10.3956,7.0565 19.8807,15.4745 29.3047,23.7754 13.3656,12.5387 24.6589,27.5684 30.7168,45.0156 7.4024,19.8132 8.8353,41.3494 6.9453,62.2774 19.5494,14.348 41.205,25.6161 63.084,35.955 3.2096,1.0529 6.3793,3.5035 9.6406,3.7246 25.6727,-9.7533 49.2416,-24.2328 71.9355,-39.5293 -0.1898,-17.1353 -1.0168,-34.727 3.5957,-51.4042 5.0122,-17.9813 13.1283,-35.4844 26.6602,-48.6719 12.1301,-12.1058 25.325,-23.2653 39.3906,-33.0391 9.3174,-6.0969 17.6777,-13.6875 27.0137,-19.8379 1.5974,-0.697 4.3757,-4.4765 4.8496,-0.5937 1.6662,2.8824 2.8779,7.4453 4.9512,9.455 4.0463,-11.9358 10.0401,-23.3305 19.1035,-32.246 2.0569,-1.9077 3.9167,-4.633 6.4551,-5.7286 1.8407,8.1755 -0.9929,17.4265 3.7304,24.8614 1.0742,-11.7321 4.6442,-23.2895 11.6582,-32.8672 12.2257,-19.5476 26.979,-38.4493 32.545,-61.2403 0.3084,-2.761 -1.2182,3.0123 -1.543,-0.08 -5.7753,-29.1584 -26.895,-53.0871 -51.3164,-68.8516 -20.0341,-13.1098 -44.3982,-16.7589 -65.0332,-28.7109 -13.7498,-7.6308 -27.1942,-16.1363 -39.1621,-26.3555 -1.3303,-1.7997 2.5981,0.1547 3.1582,0.064 7.8341,2.1517 16.0832,4.5285 24.0586,4.836 -10.6879,-2.1528 -21.3617,-4.6224 -31.6114,-8.4707 -13.1445,-4.7393 -26.6125,-8.7773 -39.4687,-14.2031 0.3561,-0.8704 3.981,-0.092 2.8418,-2.3731 -1.6883,-5.4286 -1.721,-3.3498 -0.8965,1.2012 -6.1719,0.042 -12.7932,-1.8427 -16.0703,-7.5254 -14.3734,-20.6164 -17.694,-46.4063 -20.0528,-70.8106 -1.4204,-31.225 -0.8168,-62.6554 4.0958,-93.5781 1.2192,-9.4638 3.3941,-19.1361 5.1777,-28.2637 1.6257,-6.5918 7.3632,-19.4623 14.3047,-34.9433 -10.7946,-3.44113 -27.5641,-13.64324 -40.7598,-20.05275 z m -92.375,103.37105 c -0.6553,-0.01 -1.3193,0.017 -1.9941,0.08 -0.527,-0.013 -1.0535,0.021 -1.5801,0.033 -17.3164,1.6288 -30.2712,15.6217 -38.6777,29.7969 -13.3021,24.3513 -17.3047,52.7682 -16.9434,80.2031 0.769,15.0063 1.6962,30.659 8.1738,44.461 2.7209,4.8693 5.282,10.9799 10.6446,13.3379 8.6547,0.1242 17.4981,-0.8377 25.9316,-2.5196 -2.6174,-4.9054 -6.7381,-9.1636 -8.5801,-14.6074 -7.0419,-15.3766 -5.3142,-32.6836 -4.4043,-49.0586 1.6248,-12.1443 6.9494,-24.3913 16.2715,-32.6016 7.2623,-7.0266 19.3451,-5.4265 25.8672,1.7598 12.241,13.3778 15.8437,32.3669 14.9512,49.9863 0.2561,11.692 -2.3131,23.1561 -6.1348,34.1348 -1.1464,2.9819 2.9143,0.3101 3.4043,-0.7031 5.1677,-7.022 5.924,-16.2608 7.8105,-24.5567 2.3203,-17.104 1.61,-34.4644 1.6582,-51.6855 -0.2332,-21.297 -3.8654,-43.1063 -14.0878,-62.0039 -4.868,-7.9141 -12.4813,-15.9144 -22.3106,-16.0567 z m 183.3164,0.033 c -11.303,1.5298 -18.8741,11.8702 -23.2988,21.6054 -8.4141,18.8091 -10.9671,39.6238 -10.4805,60.0723 0.3767,16.0329 -0.5872,32.193 1.4668,48.1289 2.1094,8.4457 2.4886,18.0626 8.0488,25.123 0.8204,0.5777 2.9041,2.3929 3.6993,1.75 -3.4981,-11.0542 -7.2264,-22.2702 -6.9981,-34.0351 -0.8944,-17.3115 2.0585,-35.804 13.3652,-49.541 5.4894,-7.2756 16.2339,-11.2552 24.375,-5.8946 13.4665,8.025 18.1398,24.6155 19.9825,39.2266 2.5839,19.8211 -1.4998,40.4976 -11.8614,57.627 -1.8098,2.7752 3.2773,1.6708 4.543,2.33 7.459,0.5778 15.1859,2.4928 22.582,0.8633 9.4532,-11.009 12.5235,-25.9434 14.8477,-39.9004 1.7758,-26.0393 1.5685,-52.8997 -7.2832,-77.7812 -6.7074,-19.0033 -17.607,-39.0248 -37.0801,-47.2578 -4.9562,-2.3476 -10.5581,-2.2042 -15.9082,-2.3164 z m -4.3984,71.9941 c -9.7666,1.8351 -13.3308,13.7717 -11.5723,22.3906 1.2039,4.705 7.5025,7.8072 11.3906,3.9942 8.3192,-5.2409 11.7292,-19.8113 2.6465,-25.918 -0.754,-0.3966 -1.6233,-0.5045 -2.4648,-0.4668 z m -184.0547,0.064 c -0.1129,0 -0.2263,-2e-4 -0.3418,0.01 -8.8627,1.7623 -12.7946,12.2654 -12.2305,20.4512 0.077,5.2522 6.3758,10.9092 11.2246,6.793 7.7669,-4.8785 11.4462,-17.1992 5.6075,-24.8028 -1.1602,-1.1239 -2.5661,-2.3898 -4.2598,-2.4472 z m 99.2891,91.4082 c 20.3551,0.5449 42.1984,2.9113 59.166,15.2051 11.8991,8.1714 15.4882,24.6738 11.0234,37.92 -5.9518,19.7285 -20.3608,35.7182 -35.9551,48.6015 -8.6081,7.0289 -19.9466,9.9137 -28.1211,17.4395 -4.2478,5.6303 -2.2741,13.3106 -3.0898,19.873 0.03,7.658 -0.6636,15.4851 -0.1231,23.041 2.518,7.4464 8.2027,13.5002 15.6504,16.1407 13.1325,5.565 27.2796,8.9893 41.6192,8.2597 23.5141,0.9015 46.3857,-9.5371 63.9629,-24.6426 15.5413,-13.0262 25.3918,-31.0857 33.8945,-49.1562 3.524,-7.9375 7.925,-15.73 9.8223,-24.2285 -2.4363,-6.1716 -9.6823,-8.5651 -14.2422,-12.9551 -2.3782,-1.0797 -0.1965,-2.5437 1.4199,-2.3594 12.6668,-0.908 26.923,1.6808 35.2812,12.1465 5.2179,5.8888 8.1875,13.4071 9.5411,21.0801 -7.1431,-5.3708 -14.4392,-11.0406 -22.4532,-14.8633 -2.2876,3.9584 -2.9624,8.9602 -5.082,13.1426 -9.3328,23.1592 -20.115,46.8439 -39.2949,63.6015 -10.4497,9.9296 -23.2712,16.7388 -35.834,23.5606 -13.9969,21.2414 -26.4305,43.7307 -43.166,63.0078 -11.8724,13.3772 -29.2586,20.713 -46.8828,22.2383 -15.1835,2.3134 -31.0255,-0.5883 -44.8711,-7.043 -21.0854,-11.2805 -33.8953,-32.5205 -46.5625,-51.9394 -6.8366,-9.4888 -11.5131,-21.0915 -21.0664,-28.2871 -13.4665,-7.7888 -26.9479,-16.0439 -37.5274,-27.6563 -19.0118,-19.398 -28.2031,-45.5497 -38.4531,-70.0469 -8.1653,2.8584 -14.8899,8.8364 -22.1953,13.2325 2.0143,-13.6687 11.6934,-25.8943 25.0098,-30.0625 7.3094,-2.4608 15.4529,-2.6577 22.9746,-1.4903 0.2708,2.1201 -3.4696,3.0564 -4.7344,4.4356 -3.6959,2.8576 -8.5411,4.9502 -11.0977,8.9218 0.3102,7.1528 4.6508,13.5105 7.1094,20.1075 10.1878,22.1008 22.072,44.6799 42.2188,59.3242 21.0216,15.954 48.5654,23.7035 74.7226,18.9179 12.6478,-2.2568 26.1289,-5.597 35.7285,-14.6347 7.0691,-7.1568 4.3576,-17.9818 4.9532,-26.9824 -0.5002,-7.8411 1.1876,-16.214 -1.6934,-23.6875 -6.7159,-6.838 -16.5092,-9.5383 -24.4121,-14.793 -11.309,-7.7241 -20.4332,-18.2589 -29.0254,-28.8106 -9.2395,-12.0028 -15.4108,-27.268 -12.8164,-42.6074 1.9873,-14.4078 15.735,-23.2602 28.4902,-27.4726 14.7811,-5.0496 30.5614,-6.6271 46.1114,-6.4786 z m -8.961,13.8907 v 0 c -9.4246,0.032 -19.4609,1.4368 -26.1758,8.541 -2.715,2.6313 -1.7145,6.6489 1.2344,8.5899 7.2996,6.1772 17.4504,7.5119 26.6777,8.1992 12.759,0.049 27.3659,0.7724 37.6602,-8.1113 4.2495,-3.5646 1.5669,-9.747 -2.7734,-11.8008 -9.7667,-6.3486 -21.5459,-5.3268 -32.6329,-5.3613 -1.3099,-0.039 -2.6438,-0.063 -3.9902,-0.059 z m 75.4395,87.9551 v 0 c 0.3847,-0.028 0.7695,-0.01 1.1543,0 5.0191,-0.055 3.6658,8.6484 -1.1641,7.7246 -4.3258,-0.3821 -4.601,-7.9124 0.01,-7.7265 z m -137.6973,0.076 c 4.9052,0.3295 4.526,8.2317 -0.3184,8.2207 -5.0572,-0.5084 -5.8235,-9.2557 0.3184,-8.2207 z m 166.0859,14.2285 c 4.5544,-0.1644 4.7221,8.9893 -0.3808,7.7832 -4.335,0.2219 -5.4021,-5.8252 -1.4395,-7.332 0.551,-0.3107 1.1851,-0.4874 1.8203,-0.4512 z m -194.0117,0.2579 c 3.9039,0.209 5.1045,6.7313 0.8906,7.3457 -2.6807,0.8931 -6.4497,-0.6344 -5.2343,-4.002 0.3723,-1.9041 2.4472,-3.3957 4.3437,-3.3437 z m 31.75,12.6933 c 2.8791,-0.055 5.7268,4.3501 2.1641,5.8067 -2.9209,2.7889 -8.8024,-0.6281 -5.8828,-4.3614 0.8818,-1.0824 2.3552,-1.5611 3.7187,-1.4453 z m 130.8828,0.01 c 4.1509,-0.4867 3.8185,7.2635 -0.3203,6.7519 -2.1506,0.8804 -4.5813,-0.1988 -3.9531,-2.8066 -0.4115,-2.9416 1.4706,-4.3582 4.2734,-3.9453 z m -41.1914,97.3613 c -8.6495,0.1825 -16.7448,3.7838 -24.6562,6.9727 -8.6268,-3.2243 -17.5027,-6.3049 -26.8711,-5.6836 -8.5412,-0.323 -17.782,2.3109 -23.7813,8.58 -1.859,2.2137 -4.0294,5.7208 -0.9375,7.9708 15.7309,17.7809 41.2024,24.8205 64.2618,21.0371 13.753,-2.4258 27.0772,-8.7362 37.4062,-18.1661 3.5029,-2.8744 6.035,-8.6032 1.8535,-12.1054 -4.1933,-6.0061 -11.5129,-8.074 -18.4922,-8.3418 -2.3435,-0.1924 -4.6954,-0.2801 -7.0468,-0.2539 -0.5817,-0.019 -1.1597,-0.022 -1.7364,-0.01 z m 45.1739,44.9707 c -3.4108,12.9945 -10.1615,25.2846 -20.1309,34.4824 -12.7516,12.3257 -30.4101,19.323 -48.1641,18.8438 -17.0973,1.3548 -34.1915,-5.2974 -47.1894,-16.1817 -7.8755,-6.8383 -14.6212,-15.0783 -18.2481,-24.9628 -1.4597,-3.5777 -3.6505,-7.595 -4.4414,-11.0743 12.9695,10.909 23.8201,25.5162 40.6172,30.8887 15.7904,5.0559 33.121,6.2385 49.3067,2.4336 19.1758,-5.7454 35.0285,-19.0377 47.791,-34.0586 0.1491,-0.1227 0.2788,-0.2909 0.459,-0.3711 z m -202.7149,0.8262 c -0.1164,7.5192 5.494,16.2127 -0.1387,22.8906 -14.0441,18.3992 -16.9797,42.4898 -16.3164,64.9707 0.5816,33.1034 2.4114,66.5204 11.0996,98.6289 5.8654,22.6609 12.2019,45.3187 21.0411,67.0156 0.7737,2.5286 2.3221,1.223 3.1777,-0.4765 15.7075,-19.6303 30.1892,-40.1965 45.2558,-60.3047 11.8756,-13.8882 24.9221,-26.8685 39.0352,-38.4824 0.8193,-1.1852 5.4207,-2.4276 2.7813,-4.0664 -20.4391,-12.895 -41.0112,-25.7356 -60.2422,-40.4043 -5.3966,-3.8942 -9.8851,-9.0375 -15.1543,-12.9512 -0.2959,0.8105 2.3911,3.0668 0.061,1.2344 -5.653,-8.4408 -13.5829,-15.5265 -18.7578,-24.4668 -8.8859,-14.0107 -15.5407,-31.8382 -9.7754,-48.2852 1.4782,-2.0841 1.8427,2.7848 2.293,3.5996 1.8211,6.43 2.7559,13.625 5,19.6465 -2.5353,-13.3309 -4.9224,-26.7211 -7.332,-40.0898 -0.6544,-2.7906 -0.984,-5.8347 -2.0274,-8.459 z m 263.5625,18.0937 c -0.2585,1.6087 -0.517,3.2156 -0.7754,4.8243 -0.2102,2.1604 -0.9693,4.8168 -0.5937,6.789 0.9396,-1.6638 0.5445,-4.8117 2.0429,-5.8789 2.4372,7.5384 2.0482,15.9097 1.4297,23.7637 -5.6049,27.0647 -25.8416,48.0306 -46.9551,64.4609 -18.2597,13.803 -37.9246,25.6663 -57.6425,37.2442 -0.762,0.6624 -3.46,0.6324 -1.6582,2.0683 8.4249,6.5756 17.4764,12.5004 24.7109,20.5039 21.8873,21.4599 37.1377,48.3764 56.7969,71.7168 3.2717,3.6586 6.125,8.0872 10.1328,10.8653 5.36,-10.5875 8.1037,-22.4046 11.8184,-33.67 10.0744,-33.1698 17.7768,-67.276 19.2246,-102.0175 1.3828,-27.0442 3.0568,-55.2801 -6.709,-81.0879 -2.7084,-7.1998 -7.2688,-13.4605 -11.8223,-19.5821 z m -186.9629,179.3125 v 0 c -9.0777,7.6163 -15.6219,17.8747 -23.1152,27.0019 -12.4082,15.7826 -24.1744,32.0961 -36.3457,48.0293 -4.7645,-2.5563 -7.4877,-8.0882 -10.8887,-12.2128 -2.0181,-2.3106 -3.5946,-6.1046 -6.0684,-7.5997 2.2001,18.766 5.7591,37.4658 9.3028,56.0586 1.1561,5.7481 2.5897,11.4317 3.8574,17.1543 h 67.5 c 5.5302,-23.9046 11.7944,-47.648 17.7324,-71.4492 -5.0995,-9.1215 -7.249,-19.3381 -9.2636,-29.4707 -2.8409,-9.6734 -7.3702,-18.9355 -12.5743,-27.5137 -0.043,-0.027 -0.094,0 -0.1367,0 z m 113.2461,0 c -4.7831,5.4443 -6.6017,13.0107 -9.4043,19.6308 -4.4077,12.3397 -7.671,25.0722 -12.5508,37.2364 3.7148,19.2542 9.7493,38.0809 14.3614,57.1679 1.1967,4.7834 2.2731,9.5915 3.3652,14.3965 h 67.7617 c 5.1467,-22.6651 9.638,-45.4745 12.7266,-68.5058 0.3987,-1.1198 -0.036,-4.4654 -1.4922,-2.2305 -4.5584,6.6957 -9.3568,13.4969 -14.707,19.457 -16.0301,-24.1313 -34.0074,-46.9281 -52.0899,-69.5449 -2.4413,-2.5946 -4.6296,-6.178 -7.9707,-7.6074 z"
             transform="matrix(0.26458333,0,0,0.26458333,3678.8643,1626.7143)" /></g></g><g
         id="g107"
         style="font-size:38.1px;line-height:1.25;font-family:Arial;-inkscape-font-specification:Arial;text-align:center;text-anchor:middle;fill:#214478;stroke:#214478;stroke-width:1.165"
         aria-label="&#10;Marty"
         transform="matrix(1.5513282,0,0,1.5513283,-3672.0804,-1403.2975)"><g
           id="g105"><path
             id="path105"
             style="color:#000000;-inkscape-font-specification:Arial;stroke:none;-inkscape-stroke:none"
             d="m 2058.6649,2529.035 0.033,0.012 c -0.3014,0.014 -0.6046,0.1889 -0.7793,0.4139 -0.1747,0.2251 -0.2645,0.4808 -0.3266,0.7679 l -0.012,0.061 v 0.025 c -0.032,0.2602 -0.139,1.2947 -0.34,3.254 -0.1769,1.9456 -0.4167,4.0205 -0.7204,6.2224 -0.2778,2.1968 -0.5583,5.9147 -0.8222,6.8745 -0.3624,1.2706 -0.5455,2.2562 -0.5157,3.0334 v 0.012 0.014 c 0.061,0.7615 0.394,1.4444 0.9529,1.9435 0.2838,0.2693 0.5308,0.4753 0.7969,0.6129 0.2699,0.1396 0.6594,0.2405 1.0061,0.023 0.2774,-0.1734 0.3185,-0.3518 0.3845,-0.5276 0.066,-0.1758 0.1162,-0.3744 0.1643,-0.615 0.096,-0.4811 0.1786,-1.1286 0.2558,-1.9652 0.074,-0.8846 0.2626,-4.4306 0.5664,-6.3801 0.3076,-1.9992 0.4756,-3.8121 0.5018,-5.4436 v -0.01 c 0.025,-0.78 0.051,-1.3983 0.076,-1.8459 0.015,-0.2793 0.052,-0.4305 0.082,-0.6227 0.059,0.089 0.099,0.1193 0.1638,0.2321 0.199,0.3482 0.4635,0.829 0.7912,1.434 0.8227,1.6476 1.319,2.8499 1.4707,3.4783 v -0.014 c 0.1475,0.6783 0.4875,1.4728 1.0098,2.4391 v 0.01 l 0.01,0.01 c 0.2652,0.4546 0.4697,0.8116 0.6113,1.0702 0.1417,0.2587 0.2312,0.4689 0.215,0.4201 0.1402,0.403 0.4418,0.7761 0.8614,0.908 0.4176,0.1313 0.8397,0.037 1.2537,-0.1463 0.998,-0.4252 1.7533,-1.294 2.25,-2.4804 0.4243,-1.0234 0.9001,-2.0208 1.4242,-2.9942 v -0.01 -0.01 c 0.1167,-0.2334 0.2876,-0.668 0.5938,-1.4589 0.2993,-0.798 0.5833,-1.5065 0.8552,-2.1254 v -0.01 c 0.02,-0.041 0.03,-0.048 0.049,-0.086 0.084,0.2763 0.167,0.5318 0.2635,0.988 v -0.01 c 0.1563,0.7815 0.363,1.6103 0.6212,2.4882 0.2499,0.8496 0.4885,1.7779 0.7147,2.7833 0.2212,0.9831 0.4353,2.3394 0.6371,4.0546 0.2052,1.5646 0.3609,2.511 0.615,3.0918 v 0.01 0.01 c 0.2677,0.5736 0.9034,0.9059 1.557,0.9059 0.1949,0 0.3669,-0.011 0.5405,-0.055 0.1717,-0.043 0.3693,-0.119 0.5277,-0.326 0.1691,-0.2164 0.2,-0.4101 0.2248,-0.6171 0.025,-0.2099 0.025,-0.4416 0.012,-0.7152 -0.055,-1.1883 -0.4195,-3.012 -1.0841,-5.5681 -0.3293,-1.2664 -0.5759,-2.265 -0.7385,-2.9905 -0.1626,-0.7254 -0.2341,-1.2376 -0.2341,-1.2831 0,-0.3579 -0.02,-0.6198 -0.098,-0.8827 -0.034,-0.1848 -0.096,-0.3911 -0.2568,-0.557 -0.014,-0.017 -0.034,-0.043 -0.054,-0.078 -0.039,-0.077 -0.097,-0.2045 -0.1623,-0.3555 v -0.01 c -0.1134,-0.3186 -0.2493,-0.7929 -0.3964,-1.4041 -0.2349,-1.0954 -0.5082,-1.9719 -0.8475,-2.6505 -0.2874,-0.5749 -0.3968,-1.0009 -0.3968,-1.1115 0,-0.5376 -0.2072,-1.0721 -0.6543,-1.3534 -0.2075,-0.1326 -0.4628,-0.1496 -0.6325,-0.1054 -0.1774,0.046 -0.3105,0.1237 -0.4454,0.2165 -0.2698,0.1855 -0.5442,0.4493 -0.877,0.8087 -0.6667,0.72 -1.1095,1.2162 -1.1095,1.9198 v -0.053 c 0,0.05 -0.1903,0.6176 -0.586,1.3844 -0.5355,0.9948 -0.9455,1.8169 -1.234,2.4727 v 0.01 c -0.2592,0.6216 -0.4088,0.9669 -0.4594,1.3218 l -0.01,0.041 v 0.041 c 0,0.023 -0.016,0.1223 -0.092,0.2734 -0.058,0.1164 -0.2392,0.3827 -0.5292,0.7209 l -0.01,0.01 -0.01,0.01 c -0.1814,0.2267 -0.3387,0.3773 -0.4414,0.4496 -0.052,0.037 -0.029,0.024 -0.041,0.029 -0.012,-0.01 0.016,0.012 -0.017,-0.029 -0.077,-0.097 -0.1867,-0.2828 -0.3008,-0.5452 -0.2023,-0.4624 -0.577,-1.124 -1.1369,-2.0407 l -0.01,-0.01 c -0.5241,-0.8991 -0.8483,-1.5156 -0.9085,-1.6661 l 0.01,0.018 c -0.125,-0.3436 -0.3324,-0.7202 -0.6171,-1.1622 l -0.01,-0.012 c -0.2456,-0.4179 -0.43,-0.7522 -0.5452,-0.9824 -0.7268,-1.4276 -1.4158,-2.4859 -2.1249,-3.1951 -0.4886,-0.4887 -0.913,-0.8466 -1.5157,-0.8186 z m 56.0473,1.3322 0.01,0.014 c -0.4214,-0.038 -0.9036,0.1669 -1.141,0.5333 0,0 -0.01,3e-4 -0.012,0.01 l -0.088,0.1426 v 0.1 c -0.018,0.062 -0.065,0.1324 -0.082,0.2031 -0.04,0.1653 -0.075,0.3637 -0.1111,0.6056 -0.073,0.4838 -0.1459,1.142 -0.2227,1.9865 -0.1,1.1745 -0.251,1.9675 -0.3421,2.1952 v 0.01 0.01 c -0.061,0.1702 -0.4202,0.7111 -1.0604,1.4005 -0.4126,0.4383 -0.7113,0.7728 -0.9121,1.0309 -0.2163,0.2781 -0.3907,0.5507 -0.3907,0.9297 0,0.1732 0.052,0.3762 0.1737,0.5389 0.1221,0.1628 0.296,0.2654 0.4552,0.3184 h 0.012 0.012 c 0.2832,0.081 0.5916,0.098 0.9984,0.098 0.2563,0 0.427,0.038 0.494,0.066 0.024,0.011 0.024,0.01 0.027,0.01 v 0.01 c 0,10e-5 0.017,0.079 0.024,0.186 0.01,0.1437 0.01,0.3559 -0.01,0.6232 -0.024,0.5346 -0.092,1.2934 -0.2051,2.2635 v 0.01 0.01 c -0.077,0.8685 -0.1286,1.5731 -0.1545,2.1193 v 0.014 0.014 c 0,0.5371 0.038,0.9945 0.1292,1.3885 v 0.01 c 0.081,0.3232 0.1618,0.5889 0.2578,0.8129 l 0.014,0.031 0.018,0.029 c 0.085,0.1493 0.2218,0.4208 0.3963,0.7947 0.1625,0.3483 0.3044,0.7361 0.4238,1.1659 v 0.016 0.015 c 0.1376,0.4128 0.5247,0.7219 0.9338,0.8335 0.4221,0.1151 0.974,0.1349 1.8298,0.1349 0.6896,0 1.2434,-0.028 1.6836,-0.092 0.4404,-0.064 0.7734,-0.1032 1.0899,-0.4196 0.084,-0.084 0.2862,-0.2322 0.5881,-0.3948 0.3671,-0.1976 0.6986,-0.4271 0.9901,-0.6894 0.3297,-0.2968 0.5752,-0.6789 0.7302,-1.1131 v -0.01 -0.01 c 0.1416,-0.4253 0.2329,-0.7698 0.1214,-1.172 -0.097,-0.3769 -0.3278,-0.6643 -0.6371,-0.9746 -0.3035,-0.332 -0.5076,-0.5908 -0.9705,-0.6677 -0.3801,-0.063 -0.7067,0.095 -0.9783,0.2987 l -0.014,0.01 -0.012,0.012 c -0.4033,0.3412 -0.7028,0.7743 -0.7028,1.2832 0,0.074 -2e-4,0.1174 -0.2522,0.2656 -0.2559,0.1482 -0.7433,0.3079 -1.4278,0.416 l -0.6951,0.1152 v -3.4649 c 0,-1.3798 0.015,-2.4543 0.046,-3.2148 0.016,-0.3803 0.035,-0.6826 0.057,-0.8986 0.022,-0.2159 0.064,-0.3709 0.047,-0.3261 v -0.01 -5e-4 c 0.013,-0.01 0.046,-0.026 0.1251,-0.053 0.1617,-0.055 0.4688,-0.1034 0.8883,-0.1034 1.008,0 1.8164,-0.1615 2.4102,-0.6155 0.2844,-0.2175 0.5295,-0.4992 0.586,-0.8805 0.056,-0.3791 -0.1209,-0.7431 -0.3576,-1 -0.493,-0.5608 -1.2675,-0.8036 -2.2712,-0.9121 l -1.0392,-0.1002 v -2.0252 c 0,-0.8736 -0.021,-1.5686 -0.068,-2.0996 -0.047,-0.5309 -0.054,-0.8537 -0.2894,-1.2227 l -0.012,-0.02 -0.014,-0.018 c -0.2569,-0.3426 -0.6773,-0.5385 -1.1017,-0.5742 z m -26.6351,2.3823 0.01,0.02 h -0.1938 c -0.1237,0.01 -0.2758,0.024 -0.4548,0.047 -0.427,0.031 -0.9454,0.1429 -1.5999,0.3261 -0.662,0.1854 -1.3443,0.4353 -2.0484,0.7477 -0.7569,0.3093 -1.5251,0.7995 -2.3188,1.4609 -0.7808,0.6465 -1.4555,1.4026 -2.0195,2.2619 l -0.3591,0.5467 0.076,0.039 c -0.2792,0.4899 -0.5825,0.9875 -0.6738,1.3984 -0.1235,0.5556 -0.1913,1.4512 -0.2424,2.8086 v 0.01 c -0.026,1.308 -0.013,2.1436 0.086,2.6717 0.097,0.5166 0.3476,0.9928 0.7168,1.3927 0.2164,0.2283 0.3703,0.4161 0.4568,0.541 0.086,0.1249 0.068,0.2097 0.068,0.049 0,0.379 0.1963,0.6681 0.4299,0.91 0.2336,0.2419 0.5362,0.4619 0.9178,0.6935 h 0.01 0.01 c 0.7235,0.4134 1.4844,0.813 2.283,1.1994 0.3961,0.1856 0.6976,0.3412 0.8904,0.4569 0.1929,0.1157 0.2717,0.2835 0.168,0.076 l 0.014,0.023 0.014,0.023 c 0.1543,0.2469 0.3419,0.316 0.5095,0.3752 0.1677,0.059 0.345,0.094 0.553,0.123 0.4158,0.057 0.9545,0.08 1.6422,0.08 0.8559,0 1.4477,-0.028 1.8831,-0.1287 h 0.02 l 0.022,-0.01 c 0.4385,-0.1349 0.8348,-0.3999 1.1911,-0.7561 l 0.012,-0.01 0.01,-0.012 c 0.4991,-0.5547 0.8357,-1.0479 0.8357,-1.6469 0,-0.076 0.082,-0.3052 0.4516,-0.631 h 0.01 c 0.102,-0.094 0.1514,-0.1205 0.1954,-0.1462 0,0.012 0.069,0.049 0.2284,0.199 0.2,0.1883 0.473,0.4676 0.8108,0.8304 0.4404,0.4663 0.8049,0.8201 1.1172,1.0759 0.3537,0.2948 0.6889,0.5157 1.1348,0.5157 0.2229,0 0.4663,-0.085 0.6403,-0.2304 0.174,-0.1451 0.2819,-0.3282 0.3576,-0.5173 v -0.01 -0.01 c 0.2052,-0.5645 -0.01,-1.1067 -0.3436,-1.6991 -0.3141,-0.6238 -0.8753,-1.4702 -1.7152,-2.6153 v -0.01 l -1.2635,-1.6118 -0.1819,-4.2731 c -0.077,-1.5321 -0.1682,-2.7462 -0.279,-3.6525 -0.1103,-0.9018 -0.1873,-1.4463 -0.4455,-1.8965 -0.3435,-0.6302 -1.0822,-0.8728 -1.9141,-0.8728 -0.8147,0 -1.3749,-0.079 -1.4784,-0.1173 l 0.061,0.027 c -0.1775,-0.089 -0.2341,-0.069 -0.3007,-0.072 z m 10.5048,0.4341 c -0.3662,0.046 -0.7081,0.2804 -0.908,0.5803 v 0.01 l -0.01,0.01 c -0.1489,0.2382 -0.1093,0.2817 -0.1287,0.4025 -0.019,0.1208 -0.034,0.2644 -0.051,0.4434 -0.033,0.3581 -0.066,0.8525 -0.098,1.4919 -0.064,1.2789 -0.1281,3.1356 -0.1917,5.5764 l -0.1974,7.5742 0.9921,0.9436 0.01,0.01 c 0.2994,0.2722 0.5624,0.4785 0.8263,0.6232 0.2638,0.1447 0.5635,0.2682 0.9296,0.1462 0.3285,-0.1095 0.3816,-0.3078 0.4336,-0.4294 0.052,-0.1217 0.08,-0.2344 0.1075,-0.3674 0.055,-0.2659 0.097,-0.6049 0.1328,-1.0429 0.072,-0.8755 0.1188,-2.1394 0.1442,-3.8085 0.051,-2.6481 0.204,-4.4392 0.4025,-5.2348 0.2218,-0.8149 0.6408,-1.3944 1.3126,-1.8278 0.3184,-0.2123 0.8873,-0.3728 1.7126,-0.3964 0.8259,-0.024 1.3042,0.1343 1.3927,0.2047 -0.023,-0.018 0.2554,0.4084 0.4728,1.1332 0.2521,0.8123 0.6348,1.4632 1.1932,1.8903 l 0.012,0.01 0.014,0.01 c 0.2136,0.1468 0.386,0.2573 0.5432,0.34 0.079,0.041 0.1522,0.078 0.2444,0.1075 0.087,0.028 0.2066,0.067 0.4217,0.01 0.3786,-0.1054 0.4357,-0.2997 0.5291,-0.4609 0.096,-0.1659 0.1825,-0.3592 0.2775,-0.6036 0.5429,-1.4 0.3195,-2.8368 -0.6154,-4.0313 -0.9118,-1.2212 -2.2933,-1.9501 -4.0075,-2.1678 h -0.01 c -1.2375,-0.1345 -2.2594,-0.03 -3.053,0.4139 -0.2698,0.1524 -0.486,0.2588 -0.6485,0.3282 -0.044,-0.692 -0.4717,-1.3102 -1.1286,-1.6387 -0.3426,-0.1713 -0.6905,-0.2742 -1.0568,-0.2284 z m 40.8099,1.2061 c -0.1043,-0.017 -0.2097,-0.017 -0.3018,0 v 0.01 c -0.1843,0.037 -0.3216,0.12 -0.4434,0.2113 -0.2411,0.1809 -0.437,0.4201 -0.6562,0.7344 -0.3814,0.5286 -0.7448,1.2693 -1.1349,2.2577 -0.3482,0.9201 -0.6766,1.5136 -0.7286,1.572 l -0.019,0.023 -0.018,0.025 c -0.1168,0.1636 -0.2281,0.3687 -0.4217,0.7302 -0.1937,0.3616 -0.4494,0.8526 -0.7679,1.4769 -0.6211,1.1919 -1.2252,2.1356 -1.7968,2.8262 v 0.01 l -0.6408,0.8185 -0.1209,-0.1602 -0.01,-0.01 c -0.3598,-0.4497 -0.7644,-1.138 -1.1839,-2.051 l -1.7498,-3.6933 v -0.01 c -0.3005,-0.6511 -0.6264,-1.3669 -0.9767,-2.1425 l -0.01,-0.02 c -0.1135,-0.2765 -0.2143,-0.5066 -0.3049,-0.6878 -0.084,-0.1688 -0.1495,-0.2879 -0.279,-0.4295 -0.2586,-0.3102 -0.7132,-0.3874 -1.0547,-0.3142 -0.399,0.083 -0.7194,0.4365 -0.8362,0.7964 -0.1173,0.3617 -0.1261,0.756 -0.084,1.2309 v 0.01 0.01 c 0.112,0.9239 0.4345,1.8494 0.9478,2.7678 v 0.01 c 0.2471,0.42 0.4278,0.7639 0.5405,1.0175 0.1127,0.2535 0.1411,0.4393 0.1411,0.4025 0,0.384 0.1173,0.5666 0.2847,0.955 0.1674,0.3884 0.4099,0.8911 0.7307,1.5198 0.6256,1.2011 1.1499,2.3617 1.5725,3.4804 0.2027,0.5366 0.2923,0.9505 0.2966,1.1855 0,0.2351 -0.026,0.2124 -0.023,0.2108 l 0.027,-0.016 c -0.416,0.231 -0.6429,0.7306 -0.6429,1.1953 0,-0.1004 -0.1189,0.3001 -0.5524,0.7989 -0.4335,0.4988 -1.1156,1.1598 -2.0314,1.9627 -0.9153,0.8025 -1.6777,1.4049 -2.2717,1.8009 -0.594,0.396 -1.0461,0.5617 -1.1601,0.5705 h 0.014 c -0.3126,0.016 -0.6143,0.083 -0.8733,0.2868 -0.259,0.2045 -0.4026,0.5561 -0.4026,0.8656 0,0.6165 0.4233,1.1193 0.9886,1.4784 0.4071,0.2718 0.6437,0.4765 1.1173,0.4765 0.4437,0 0.692,-0.195 1.0567,-0.4475 1.476,-1.0434 2.4902,-1.8153 3.0918,-2.3611 0.6178,-0.5118 1.148,-1.0803 1.5839,-1.7069 1.2286,-1.6595 2.1552,-2.9577 2.7792,-3.8969 0.313,-0.4712 0.5513,-0.8521 0.7188,-1.156 0.084,-0.152 0.1493,-0.2825 0.201,-0.4083 0.052,-0.1258 0.1018,-0.2289 0.1018,-0.4335 0,0.1252 -0.011,0.071 0.021,0 0.033,-0.075 0.092,-0.1972 0.1778,-0.3478 0.1701,-0.2991 0.441,-0.7236 0.801,-1.2578 l 0.01,-0.01 c 0.3792,-0.5436 0.6658,-0.9657 0.8614,-1.2656 0.098,-0.1509 0.1732,-0.2701 0.2305,-0.3695 0.029,-0.05 0.052,-0.094 0.076,-0.1442 0.015,-0.031 0.035,-0.063 0.052,-0.1245 0,1e-4 -0.01,0 -0.01,0 0,0 0.01,-0.017 0.012,-0.023 0.01,-0.039 0.019,-0.067 0.019,-0.153 0,0.092 -0.01,0.1187 -0.013,0.1416 0.01,-0.011 0.01,-0.013 0.015,-0.029 0.038,-0.072 0.1039,-0.189 0.1933,-0.3401 0.1785,-0.3017 0.4526,-0.7457 0.8185,-1.326 0.3835,-0.6009 0.6706,-1.0681 0.8692,-1.4123 0.099,-0.1721 0.1758,-0.313 0.2341,-0.4335 0.029,-0.06 0.054,-0.1144 0.076,-0.1757 0.022,-0.061 0.055,-0.1119 0.055,-0.2734 0,0.1047 0.021,-0.091 0.1189,-0.3338 0.098,-0.2429 0.2553,-0.5825 0.4671,-1.0062 v -0.01 l 0.01,-0.01 c 0.3766,-0.8339 0.6443,-1.721 0.8046,-2.6562 0.091,-0.4594 0.141,-0.8341 0.1328,-1.1601 -0.01,-0.3304 -0.043,-0.7115 -0.4351,-0.9571 -0.086,-0.054 -0.1897,-0.09 -0.294,-0.107 z m -3.0655,10.2309 c 0,0 0,0.01 -0.01,0.011 v 0.022 c 0,-1e-4 0,-0.017 0.01,-0.033 z m -48.3655,-8.5819 c 0.4151,0.028 0.6214,0.1269 0.647,0.1551 l 0.024,0.025 0.027,0.023 c -0.058,-0.05 2e-4,-0.011 0.039,0.1349 0.041,0.1456 0.08,0.3813 0.1034,0.6873 0.049,0.6162 0.086,1.4727 0.1111,2.5585 v 0.01 0.01 c 0.051,1.1037 0.1281,2.058 0.2325,2.8671 v 0.01 0.01 c 0.1657,1.0652 0.1056,2.0636 -0.1736,3.0195 -0.2787,0.9289 -0.7025,1.6018 -1.2599,2.0763 -0.5361,0.4272 -1.0269,0.5765 -1.5782,0.5194 -0.5291,-0.081 -1.7336,-0.5267 -3.4297,-1.3493 -0.8345,-0.4173 -1.3714,-1.0419 -1.6857,-1.9787 -0.2989,-0.9679 -0.3341,-1.9571 -0.1013,-3.0076 0.2584,-1.0778 0.7735,-2.1143 1.5663,-3.1233 0.7834,-0.997 1.6996,-1.7031 2.7735,-2.1466 0.7263,-0.3046 1.4517,-0.4648 2.1916,-0.4878 l 0.01,-0.012 h 0.01 0.01 c 0.1856,-0.012 0.3474,-0.01 0.4857,-5e-4 z" /></g><g
           id="g106" /></g><path
         id="path107"
         style="fill:#214478;fill-opacity:1;stroke:none;stroke-width:0.397527;stroke-linecap:round;stroke-dasharray:none;stroke-opacity:1;paint-order:markers fill stroke"
         d="m -325.83131,2518.4047 c -1.84561,-0.5843 -3.8836,0.5427 -4.92904,2.0835 -0.25129,0.3523 -0.47921,0.7252 -0.68148,1.1137 -0.0435,0.08 0.20042,0.4203 0.16071,0.5025 -0.0759,0.1536 -0.42895,0.051 -0.49565,0.2105 -1.05695,2.5111 -1.07197,5.5092 0.50044,7.7988 0.91173,1.5744 3.11059,1.9158 4.61289,1.021 2.60764,-1.4474 3.79578,-4.5802 3.80835,-7.4395 -0.0154,-1.9683 -0.81802,-4.1447 -2.60962,-5.1497 l -8e-4,-1e-4 c -0.11948,-0.055 -0.24277,-0.1029 -0.3658,-0.1409 z m 11.90675,5.9325 c -2.09149,-0.6527 -4.37909,0.4344 -5.88187,1.9028 -1.88842,1.8156 -3.26647,4.5074 -2.74196,7.1707 0.37249,1.4235 1.48649,2.842 3.06589,2.8909 2.6112,0.2568 4.997,-1.4092 6.47198,-3.4367 0.99395,-1.6391 1.92242,-3.5345 1.52543,-5.5075 -0.17483,-1.1313 -0.78404,-2.2201 -1.81257,-2.7646 v -0.015 c -0.0636,-0.049 -0.13959,-0.071 -0.21468,-0.096 -0.1365,-0.058 -0.27601,-0.1102 -0.41515,-0.1553 z m -24.30946,0.464 c -1.37775,-0.3743 -2.96411,0.1277 -3.76803,1.3487 -2.30234,2.9459 -2.26322,7.6691 0.54469,10.284 1.28152,1.3035 3.55207,1.0006 4.71634,-0.3038 2.55827,-2.7347 2.57397,-7.3593 0.22619,-10.2237 -0.32191,-0.3633 -0.70261,-0.6831 -1.14412,-0.8907 -0.18538,-0.091 -0.3782,-0.1605 -0.57507,-0.2146 z m 28.72704,14.5286 c -1.90535,-0.5718 -4.08155,0.1111 -5.60761,1.3363 -1.4494,1.1156 -2.71714,2.7996 -2.57395,4.7176 0.0529,1.1055 0.67142,2.1846 1.73825,2.587 2.24495,0.9546 4.86062,0.025 6.57347,-1.5602 1.44287,-1.2611 2.49342,-3.2911 1.90533,-5.2233 -0.20743,-0.6408 -0.65466,-1.1967 -1.23827,-1.5335 -0.25846,-0.1339 -0.52514,-0.2421 -0.79722,-0.3239 z m -19.59175,-1.8066 c -0.94722,-0.2408 -1.92967,-0.3338 -2.90764,-0.2467 -2.09041,0.077 -5.09238,1.4971 -5.39862,2.704 -0.78577,0.2302 -1.81057,0.1665 -2.47298,0.6434 -1.50587,1.1671 -2.97297,2.4862 -3.9461,4.1431 -0.71921,1.469 -0.30933,3.4991 1.02433,4.4749 1.14052,0.6854 2.39664,1.1828 3.73621,1.2685 1.51335,0.1778 3.0777,0.3398 4.53439,0.806 0.36657,0.1179 1.63465,-0.387 1.98508,-0.2263 0.38442,0.1779 -0.15047,1.023 0.2091,1.2649 1.80266,1.2273 2.93359,3.1695 4.55193,4.5899 1.32947,0.9961 3.3884,1.4572 4.74426,0.2621 1.25766,-1.2995 1.58374,-3.2105 1.52776,-4.9573 -0.0964,-3.8535 -0.58253,-7.8779 -2.60189,-11.2436 -0.77907,-1.2795 -1.98245,-2.2614 -3.32729,-2.8992 v -6e-4 c -0.53427,-0.2417 -1.09027,-0.4387 -1.65854,-0.5831 z" /></g></g></svg>
