<?xml version="1.0" encoding="UTF-8" standalone="no"?>
<!-- Created with Inkscape (http://www.inkscape.org/) -->

<svg
   width="187.57764mm"
   height="147.04823mm"
   viewBox="0 0 187.57762 147.04823"
   version="1.1"
   id="svg1"
   xml:space="preserve"
   inkscape:version="1.3.2 (091e20e, 2023-11-25)"
   sodipodi:docname="SHOE BEAGLE Logo.svg"
   inkscape:export-filename="logo.svg"
   inkscape:export-xdpi="22.075268"
   inkscape:export-ydpi="22.075268"
   xmlns:inkscape="http://www.inkscape.org/namespaces/inkscape"
   xmlns:sodipodi="http://sodipodi.sourceforge.net/DTD/sodipodi-0.dtd"
   xmlns="http://www.w3.org/2000/svg"
   xmlns:svg="http://www.w3.org/2000/svg"><sodipodi:namedview
     id="namedview1"
     pagecolor="#ffffff"
     bordercolor="#666666"
     borderopacity="1.0"
     inkscape:showpageshadow="2"
     inkscape:pageopacity="0.0"
     inkscape:pagecheckerboard="false"
     inkscape:deskcolor="#ffffff"
     inkscape:document-units="mm"
     inkscape:zoom="0.19272392"
     inkscape:cx="6568.9823"
     inkscape:cy="1076.6697"
     inkscape:window-width="1920"
     inkscape:window-height="860"
     inkscape:window-x="0"
     inkscape:window-y="25"
     inkscape:window-maximized="0"
     inkscape:current-layer="layer1"
     showgrid="false" /><defs
     id="defs1"><linearGradient
       id="swatch172"
       inkscape:swatch="solid"><stop
         style="stop-color:#ffffff;stop-opacity:1;"
         offset="0"
         id="stop172" /></linearGradient></defs><g
     inkscape:label="Layer 1"
     inkscape:groupmode="layer"
     id="layer1"
     transform="translate(-1992.773,-2406.3861)"><g
       id="g74"
       transform="matrix(0.9025,0,0,0.9025,8.1531809,1554.4186)"
       inkscape:export-filename="marty.svg"
       inkscape:export-xdpi="22.075268"
       inkscape:export-ydpi="22.075268"><g
         id="g67"
         transform="matrix(0.947625,0,0,0.947625,536.37588,-81.796665)"><g
           id="g64"
           transform="matrix(1.1053559,0,0,1.1053559,2510.4227,266.80109)"><path
             id="path63"
             style="fill:#214478;fill-opacity:1;stroke:none;stroke-width:3.95658;stroke-linecap:round;stroke-opacity:1;paint-order:stroke fill markers"
             d="m -572.52082,737.96709 c 1.79888,1.68715 1.75353,2.28727 1.70827,4.62081 -0.79314,-1.1025 -6.60639,-4.48332 -10.22393,-4.50546 1.55526,2.49277 4.26792,4.55597 1.8821,7.50217 -0.93484,1.00827 -2.47888,1.69266 -4.9138,2.11771 -6.18957,0.52104 -15.67688,4.62976 -21.94021,10.24471 -5.10801,4.45261 -7.74271,10.8481 -10.45243,16.85421 -3.0399,-0.15068 -5.85305,-2.1319 -8.72721,-3.14213 -8.25358,-3.33108 -15.91917,-8.45953 -24.76036,-10.12444 -7.69673,-0.67504 -13.99703,4.96234 -19.30975,9.77131 -5.34525,5.40307 -11.55046,10.69635 -14.16908,18.053 -1.87345,5.52037 3.08466,10.10192 7.57871,12.29463 7.45661,3.34436 15.51813,5.78809 23.71681,6.16126 7.78916,-0.72003 14.76092,-4.76956 22.05391,-7.29008 3.44782,-1.04463 13.18097,-5.235 15.11095,-6.48925 -0.38361,2.33403 -0.25929,4.99191 0.46083,8.97758 1.19683,2.50058 3.46372,5.57679 4.03753,8.42711 -2.18283,3.86553 -6.12744,9.13299 -2.70754,13.39393 1.27299,0.0394 1.32263,-2.6581 2.50473,-2.51457 -0.38092,3.07958 -0.69486,7.09156 1.78863,9.35695 2.35065,-1.22351 4.74858,-3.59233 7.61752,-2.48888 6.09557,0.41655 12.98903,1.14222 17.09692,6.25746 1.03769,1.19532 -1.7139,0.93569 -2.32051,1.16381 -13.10396,1.17806 -26.65838,1.61689 -38.8305,7.19278 -2.76754,0.89804 -5.0405,2.71248 -6.3001,5.36752 -1.87991,2.86985 -3.49958,5.91922 -5.17347,8.93002 h 2.47631 c 2.26689,-3.77577 4.5742,-7.51943 7.59019,-10.73778 4.47518,-3.02167 9.91497,-4.34446 15.11041,-5.59985 7.38025,-1.11609 14.45143,-1.51973 21.88937,-1.9723 4.6163,3.32256 8.4589,9.5021 7.55411,15.34546 -0.0674,0.97891 -0.19904,1.9798 -0.40233,2.96447 h 2.44405 c 1.02271,-5.55193 0.15311,-11.42646 -3.50127,-15.88391 -0.79019,-1.20674 -2.29894,-2.37774 -3.08691,-3.23506 0.1841,-0.11023 3.70145,-0.52598 3.90907,-0.51111 0.77271,0.88521 0.61043,0.96402 0.78334,2.26257 -1.09245,2.99767 -0.11471,5.79293 6.41654,5.91417 3.66284,3.27479 7.56863,6.16113 12.53024,7.1649 2.48033,0.66103 5.91298,0.2715 6.52914,-2.73652 0.59476,-2.57617 -0.63321,-5.17472 -0.90743,-7.73286 0.91588,-0.98156 2.77137,-2.15216 3.60841,-0.40397 3.21785,4.6989 5.88716,9.81892 7.93294,15.16179 h 1.96082 c -0.004,-0.0147 -0.0127,-0.0279 -0.017,-0.0426 -0.52123,-1.40807 -0.94001,-2.44979 -1.86023,-4.55357 -1.42912,-2.8355 -2.86171,-5.67125 -4.28899,-8.50636 7.10323,3.97197 14.37283,7.81347 22.06539,10.50436 5.76141,1.38322 11.99824,0.28204 17.32815,-2.10569 2.11701,-1.07531 3.73386,-3.33101 2.67583,-5.74471 -1.04832,-3.6297 -2.56655,-8.38208 0.53954,-11.43038 0.46749,-0.3044 1.04929,-0.33555 1.58965,-0.29573 3.76072,-0.0496 8.45793,4.37305 5.75018,8.02204 -1.34388,1.35658 -3.73416,-0.56062 -2.84858,-2.28499 0.1947,-0.45972 0.85475,-2.51952 0.0273,-1.71483 -0.90969,1.02806 -2.78286,2.04088 -2.93878,3.37828 2.18173,0.4931 3.16467,3.37926 5.70973,3.02514 2.33539,1.39441 3.32503,4.3907 4.45681,6.78607 0.87847,-2.80563 3.83291,-4.50402 6.62863,-4.41745 0.88376,2.28204 -1.83103,4.37075 -3.68931,5.23086 -2.6485,1.14215 -6.08737,2.46041 -8.45553,0.0333 -0.48344,-0.29384 -2.50414,-1.7018 -1.62245,-0.13502 0.2791,1.4969 2.43129,2.85823 1.1332,4.25127 h 4.28024 c 3.41021,-0.53574 9.89142,-2.57885 10.58035,-8.64358 0.0381,-0.66975 -0.0951,-1.14193 -0.33619,-1.52022 2.56063,-0.24657 2.56075,-7.55995 -0.72431,-9.41818 -0.18629,-0.17838 -0.57566,-0.15007 -0.55157,-0.38976 0.15587,-1.55117 0.32968,-5.11981 -1.85094,-6.59693 -0.64129,-0.54846 -1.55886,-1.28006 -2.69442,-1.88483 -0.34751,-0.51707 -0.366,-1.70473 -0.58546,-2.13138 -1.6751,-3.56302 -7.24303,-3.22461 -9.16289,-0.0197 -2.33111,2.46386 -3.12536,6.30316 -6.51658,7.67437 -3.05485,1.85447 -2.37456,6.77851 -2.13137,8.88246 0.256,2.01505 1.46906,4.2591 1.10259,6.33345 -7.74631,3.87255 -17.21496,3.15189 -24.79043,-0.82434 -5.66473,-2.62168 -11.37458,-5.24967 -16.57104,-8.73541 2.87516,-2.333 5.1189,-5.36736 5.83927,-9.06067 1.04293,-2.44256 1.02541,-5.82495 3.26348,-7.52842 4.27626,-0.33507 8.08532,-2.53397 12.07707,-3.80958 3.78943,-0.17208 8.03838,0.55975 11.10676,-2.2817 5.96708,-4.30454 9.43519,-11.76621 8.45663,-19.12061 -0.59193,-4.20507 0.26213,-8.49468 -0.42475,-12.65869 -1.43713,-4.09797 -6.5649,-3.71585 -10.08071,-3.62536 -6.69017,-0.22762 -12.86988,2.9517 -18.93638,5.02805 -0.47816,-4.61745 -1.44044,-9.19339 -2.08163,-13.77987 3.61399,0.77222 7.3806,1.8506 11.18931,1.46392 5.17535,0 10.94634,-2.56754 12.79754,-7.69241 1.07686,-3.03116 0.43558,-6.65583 -2.43312,-8.45444 -6.38555,-3.62881 -14.21341,-3.86056 -20.39211,-8.01766 -4.60266,-2.56342 -9.28148,-7.41753 -15.00763,-5.88848 -2.1662,0.36724 -3.96474,1.66044 -5.85514,2.57252 -1.02996,0.0235 -3.57533,0.29222 -3.25582,-0.24654 1.75995,-8.51765 -3.4822,-9.94157 -7.0594,-9.75819 z m 3.13065,2.02752 c 2.19768,2.4383 3.90553,8.28886 -0.52806,8.94423 -15.49228,3.08658 -27.29151,13.82489 -35.59818,26.89064 -0.71652,0.94989 -0.94495,2.00368 -2.08054,2.16417 -1.91236,-0.0371 -3.99484,-1.27256 -5.51566,-2.25109 2.46002,-7.05143 7.72276,-13.55354 13.24579,-18.40231 5.43674,-3.98296 12.78695,-5.44288 19.11788,-7.18348 3.80589,-1.22233 5.8943,-5.27285 4.29773,-8.96337 5.51718,2.24238 4.07157,5.73502 4.20207,6.54883 2.27547,-0.97698 3.6307,-4.13311 2.85897,-7.74762 z m 15.79972,8.34128 c 5.49327,1.23489 9.43876,5.92609 14.79827,7.62845 5.37444,2.23684 11.51725,2.87526 16.35239,6.252 2.41774,2.5299 0.20137,6.2522 -2.60477,7.31796 -4.22822,2.1453 -9.32291,2.24771 -13.91544,1.51147 -5.05648,-1.25298 -8.34239,-5.83143 -9.86861,-10.56012 -0.72006,-2.11888 -3.06046,-2.40792 -4.69788,-3.32525 -0.14421,-3.08314 -2.22029,-5.49664 -3.96045,-7.83016 1.17565,-0.4202 2.77665,-1.09099 3.89649,-0.99435 z m -7.77932,2.78243 c 2.75646,0.19098 5.23849,2.6501 5.87699,5.22375 -6.10866,0.97213 -12.65452,0.41847 -18.30883,3.45536 -10.17407,5.06882 -18.10576,13.62038 -25.34418,22.18893 -5.14602,6.13049 -8.71921,13.3158 -12.28479,20.41452 -0.7791,0.55761 -1.01623,-1.64686 -1.24089,-2.09749 -0.85844,-4.25915 2.01467,-8.17282 3.38101,-12.03223 7.25591,-16.28196 20.72994,-30.69129 38.10674,-35.94913 3.18768,-0.89812 6.51107,-1.21056 9.81395,-1.20371 z m 0.17328,8.35494 v 5.5e-4 c 0.84479,-0.0359 1.69426,-0.0337 2.54683,0.009 2.61741,0.253 5.93735,-0.14484 7.96901,1.70718 -1.6623,-0.0409 -4.33998,0.43754 -4.31522,2.59165 0.76071,1.7672 1.87525,0.0279 2.9497,-0.14322 1.5483,-0.022 2.48669,1.50269 3.52259,2.41781 -2.24732,-0.0733 -4.45787,1.17327 -4.52241,3.65051 -0.49246,7.50649 2.61894,14.6479 5.14231,21.55701 -2.7552,0.52814 -2.28811,1.38001 1.08017,0.78006 4.44413,-0.80367 8.77745,-2.78444 13.0501,-3.75546 -0.0659,6.93054 5.11979,12.58373 10.36606,16.48085 2.02228,1.10323 -0.41499,3.17906 -0.71174,4.61315 -3.8581,7.45552 -12.01623,12.19416 -20.38062,12.07761 -9.25337,0.48366 -19.00895,-2.83747 -25.03915,-10.07415 -0.91643,-1.28657 -3.00788,-4.09687 -0.55977,-4.87663 1.50575,-0.77754 5.6768,-1.02003 1.87445,-1.39669 -3.97819,-0.17706 -8.591,0.4493 -10.91161,4.12008 -0.58504,0.42657 -0.92885,2.01445 0.26512,0.97795 1.56145,-0.83295 3.98196,-2.90448 5.66053,-1.42893 1.46519,6.15808 3.37311,12.83567 7.15342,18.03442 -2.1592,2.09167 -6.16755,4.59259 -10.25455,6.64995 -1.46629,0.84639 -3.53829,2.77054 -4.34092,4.68586 -0.47506,-0.7741 -0.8891,-1.5913 -1.20863,-2.4703 -2.92528,-6.4193 -10.36939,-8.61714 -16.88701,-8.75345 -0.71363,0.0241 -2.75003,-0.10988 -1.38028,-1.1086 1.18288,-1.39926 -1.34802,-0.64256 -1.95153,-0.34056 -2.01594,0.61108 -3.93868,1.94337 -5.89504,2.42328 -0.71787,-4.2772 1.38392,-8.15872 3.09347,-11.90541 -1.26245,-0.36001 -2.99927,0.96465 -4.20261,1.62627 -0.31729,0.308 -2.64994,2.0263 -1.66782,0.39686 1.07,-2.63293 3.59461,-4.87461 3.80083,-7.75418 -0.81148,-2.85978 -2.30953,-5.98134 -0.46684,-8.81249 6.71176,-14.28204 17.92941,-25.91098 30.01528,-35.80316 4.62547,-3.76967 10.29234,-5.92519 16.20588,-6.17657 z m -89.67683,5.36643 c 5.58951,0.83019 10.41713,4.24465 15.6166,6.29191 8.34968,3.96858 17.13175,6.89319 26.05482,9.2498 1.80956,0.29176 -0.56886,2.26482 -0.54883,3.17274 -1.52353,2.57984 -2.34782,6.45522 -5.84311,6.96811 -10.40643,3.53192 -20.19397,8.68347 -30.59526,12.18639 -9.53309,2.26384 -19.3813,-0.34753 -28.09108,-4.28899 -2.7276,-1.54284 -6.67253,-3.73556 -6.25036,-7.38137 1.94035,-6.54813 7.12149,-11.49172 11.66927,-16.35293 4.99587,-4.73284 10.52348,-10.24935 17.98795,-9.84566 z m 80.57407,0.6773 c -5.74614,0.49299 -8.83067,6.93725 -8.22648,12.17054 0.0989,6.21225 3.34555,11.79539 6.66198,16.82086 -4.92062,1.26443 -11.07911,2.00469 -14.06904,6.50892 5.95946,-2.99555 12.66678,-4.12997 19.29608,-4.50655 2.14716,-0.47387 4.8724,0.16317 6.68548,-1.19661 1.33248,-3.8306 0.65735,-8.13037 0.29246,-12.10166 -1.11667,-6.11079 -2.84598,-12.91385 -7.94332,-16.93511 -0.79346,-0.52625 -1.74617,-0.7918 -2.69716,-0.76039 z m 0.30339,1.91108 c 3.93466,1.14218 5.44232,5.72855 6.9047,9.13173 1.29372,3.85904 2.8141,12.29591 2.1177,16.40432 -0.63763,0.0438 -1.9459,-0.30817 -3.48377,0.0197 0.042,-4.61148 -0.57723,-8.35397 -2.69333,-11.74963 -0.48532,-1.55218 -3.68981,-3.74964 -4.80885,-1.66399 -0.96365,3.93465 -0.41868,8.01313 0.5286,11.9158 -0.14712,-0.25135 -0.28167,-0.50765 -0.48706,-0.73742 -3.95185,-5.6872 -6.11088,-13.70288 -2.71246,-20.12534 1.03904,-1.54147 2.70485,-3.04357 4.63447,-3.19515 z m 20.31722,0.74016 h 5.4e-4 c 3.13931,1.09625 3.94318,5.07958 5.01822,7.85367 0.97788,3.87354 2.04594,8.8097 -0.0372,13.23431 -0.28655,-3.97217 -0.62878,-11.63808 -4.40269,-12.97575 -1.43481,-0.51428 -1.33023,1.2409 -1.62081,1.23652 -0.11878,-0.002 -0.64895,-1.98161 -0.64395,-2.49107 -0.3266,-1.79117 -1.32903,-4.19391 0.66253,-6.46519 0.27588,-0.25175 0.64477,-0.41648 1.02333,-0.39249 z m 27.69311,17.99342 c 1.1815,-0.27146 3.0355,0.89233 1.82635,2.086 -2.10241,1.70616 -5.43499,2.08566 -7.91216,1.16928 -0.68744,-2.29637 2.74001,-2.78309 4.31085,-3.14814 0.58772,-0.0825 1.18138,-0.12571 1.77496,-0.10714 z m 9.1126,10.5634 c 0.60378,6.07673 -2.07579,12.24245 -6.07707,16.72629 -2.25716,2.32606 -5.62172,4.23439 -8.87098,3.98669 2.76425,-3.22748 4.85212,-7.12625 6.41873,-11.12043 1.46352,-1.61241 3.45422,-2.89534 4.82142,-4.71209 1.39147,-1.50683 2.65003,-3.12377 3.7079,-4.88046 z m -25.75634,4.62955 c -0.70965,3e-5 -1.28478,0.39809 -1.28462,0.88939 -1.6e-4,0.4913 0.57497,0.88991 1.28462,0.88994 0.70964,-3e-5 1.28477,-0.39864 1.28461,-0.88994 1.6e-4,-0.4913 -0.57497,-0.88936 -1.28461,-0.88939 z m 4.24963,3.16289 c -0.54583,0 -0.98835,0.44251 -0.98834,0.98834 0,0.54583 0.44251,0.98834 0.98834,0.98834 0.54583,10e-6 0.98833,-0.44251 0.98833,-0.98834 10e-6,-0.54584 -0.44249,-0.98835 -0.98833,-0.98834 z m -4.64486,3.64176 c -0.57484,0 -1.04094,0.53772 -1.04082,1.20099 1.1e-4,0.66308 0.46615,1.20043 1.04082,1.20043 0.57467,-10e-6 1.04016,-0.53736 1.04027,-1.20043 1.2e-4,-0.66327 -0.46544,-1.20098 -1.04027,-1.20099 z m -28.11568,13.53989 c 2.77991,-0.0128 6.67619,1.82271 7.76239,3.41053 4.97398,0.10087 5.89593,3.6428 5.22266,6.98287 -0.20777,1.18454 -1.40323,3.29269 -6.27605,7.11569 -1.72234,1.35127 -9.89491,5.30711 -11.40032,5.29264 -14.21601,1.35169 -6.48218,-7.16319 -3.13611,-9.65105 1.49763,-1.11648 9.34862,-4.48291 10.96355,-7.506 0.25041,-0.48118 -0.77153,-2.1319 -2.56487,-4.2223 -0.34419,-0.55109 -0.46457,-0.99005 -0.57125,-1.42238 z m 20.7283,2.50146 c 0.71645,0.0552 1.24911,0.37741 0.7489,1.295 -1.53731,3.95023 -2.65596,8.6388 -6.21482,11.2888 -1.11165,0.51532 -2.25207,0.76714 -3.40124,0.9047 2.52956,-1.76835 3.78567,-4.82139 4.93294,-7.18348 1.14727,-2.36209 0.94952,-4.39392 2.32817,-6.10331 0.2173,-0.0718 0.5289,-0.14145 0.85987,-0.17985 0.24824,-0.0288 0.50736,-0.0403 0.74618,-0.0219 z m 48.34433,2.88684 c 2.32836,0.12927 3.95628,3.44909 1.62354,4.87718 -1.32887,1.01283 -2.23512,3.2353 -3.94733,3.51986 -1.19479,-1.11006 -2.79513,-1.59846 -4.32125,-2.07671 1.77576,-2.24754 3.40691,-6.044 6.64504,-6.32033 z m 4.99034,5.79445 0.0897,0.004 c 2.01538,0.69012 2.3125,3.38223 2.3145,5.20626 -2.25944,1.3689 -4.44352,3.08188 -6.51001,4.59511 -0.72853,-1.48805 -0.31454,-3.53137 -1.02169,-5.14558 0.58806,-2.20061 2.90069,-3.99793 5.03025,-4.65579 z m 3.9118,7.8165 c 1.78448,1.045 2.02104,3.66695 1.46939,5.40415 -2.88497,0.63508 -5.4177,1.8984 -8.33035,2.00674 -1.08413,-0.47569 -2.22756,-1.82296 -0.80029,-2.70918 2.27867,-2.05142 4.62126,-4.04335 7.66125,-4.70171 z m -73.04347,1.77715 c 0.24542,0.22347 0.51239,0.42448 0.75164,0.65434 1.20759,0.98842 1.58684,1.52558 2.65124,2.14723 -0.0346,0.2033 -0.0393,0.84181 -0.10277,1.71865 0.33663,1.82105 0.003,4.43965 -2.38229,4.39121 -3.93509,-0.25625 -7.21789,-2.57533 -10.33927,-4.9384 1.69502,-0.31889 6.11423,-2.2769 9.42145,-3.97303 z m -31.02711,8.00564 c 0.0501,1.87976 -2.71735,0.7466 -3.791,1.05612 -7.11268,-0.44988 -14.31975,0.52512 -21.05846,2.80211 -1.46897,1.00935 -2.63275,2.34149 -3.709,3.75984 h 3.07161 c 0.32409,-0.451 0.62103,-0.92298 0.95663,-1.36498 7.40973,-1.78101 15.14349,-3.19175 22.7722,-2.42055 1.26002,0.62507 0.77412,2.47035 0.86097,3.78553 h 3.2684 c -0.1003,-1.24885 -0.204,-2.49803 -0.29792,-3.74617 1.34406,0.26342 3.4463,0.93094 4.52405,0.6281 -2.18449,-1.40074 -5.5074,-2.03662 -6.59748,-4.5 z m 18.26893,7.25018 c -0.0374,0.12133 -0.0488,0.24622 -0.0826,0.36789 h 1.79628 c -0.59856,-0.18369 -1.23961,-0.29447 -1.71373,-0.36789 z" /><path
             id="path64"
             style="fill:#d38d5f;fill-opacity:1;stroke:none;stroke-width:16.9607;stroke-linecap:round;stroke-opacity:1;paint-order:stroke fill markers"
             d="m -2407.3679,3219.1051 c -2.2931,-0.1725 -1.4317,2.8754 -1.4503,5.0247 2.5645,26.48 6.0515,43.9613 10.6071,57.949 2.4952,8.2543 12.1666,40.8018 18.0223,46.6724 2.6406,2.9288 5.1006,6.6812 8.975,7.9998 1.1051,-0.089 -0.6004,-1.9821 -0.4504,-2.5949 -8.693,-23.7761 -18.4342,-48.1654 -17.6256,-73.9363 0,-5.0793 1.6173,-10.6042 6.2478,-13.3323 3.0957,-2.3224 7.0662,-2.416 10.6526,-3.1693 -2.687,-3.0916 -5.8228,-6.131 -9.4398,-8.1507 -4.1711,-2.2559 -7.8141,2.2659 -11.7043,2.8223 -3.5113,-1.2443 -3.4482,-5.8903 -1.0867,-8.1816 3.601,-3.8338 9.2026,-4.455 14.1628,-4.8615 -7.6898,-6.5456 -17.821,-4.4915 -26.9105,-6.2416 z m -43.5382,6.5928 c -30.4602,12.4869 -53.9648,37.1497 -77.2419,59.7176 -27.6065,29.204 -53.6104,61.4955 -68.7566,99.0265 -3.3036,12.9948 8.6987,26.8141 -0.6963,38.8751 -2.1297,5.7357 -9.2482,12.0805 -8.2973,17.9521 6.9774,-1.9106 13.2244,-9.3623 20.5036,-8.9585 -5.2986,14.1257 -13.6689,29.7924 -10.4625,44.8791 9.6719,-2.4376 19.231,-10.4625 29.2162,-9.1465 -2.4681,2.9339 -2.0405,6.6404 3.1032,5.8036 10.2712,-0.3915 18.9871,1.3068 29.9084,4.2375 1.5897,-5.6875 -16.1686,-21.7872 -9.9812,-35.152 11.3159,-30.0013 41.9102,-46.0652 69.4405,-58.5193 20.9306,-8.0989 44.7147,-8.4169 64.484,-19.2888 4.6049,-5.2357 11.8046,-11.7098 13.1278,-17.8942 7.9205,-16.8701 -4.0475,-33.6161 -6.8965,-50.255 -2.8483,-7.0785 -6.4386,-29.0688 -13.3613,-39.1664 -6.143,-14.9766 -19.8025,-25.75 -34.0901,-32.1108 z m -2.066,16.5348 c 16.409,2.5748 23.7526,20.8374 30.1707,34.1541 8.7095,23.6513 13.108,50.11 8.2994,75.0416 -3.2905,9.0625 -16.3196,5.572 -23.7288,7.694 -25.1866,0.8509 -50.5846,6.8731 -73.6738,15.3695 11.7159,-15.9719 33.4952,-17.4826 50.9946,-23.0532 -15.7893,-25.4113 -32.0403,-56.6395 -20.9685,-87.0124 4.6743,-11.7193 15.4923,-22.6361 28.9064,-22.1936 z m -75.4486,280.4168 c -0.1248,0.01 -0.2533,0.035 -0.3864,0.079 -3.2299,0.2017 -6.4599,0.4016 -9.6898,0.6033 -23.8502,1.5314 -47.7512,3.0487 -71.3806,6.7663 -8.7255,1.8552 -17.3562,4.1715 -25.894,6.7561 -11.2548,3.4909 -22.4013,7.8975 -32.0984,14.6959 -0.1503,0.359 0.6868,-0.2899 0.8058,-0.2851 0.2064,-0.1042 0.4152,-0.2004 0.6219,-0.3037 -4.9695,2.3827 -8.5072,8.6133 -2.4999,12.2683 l 33.681,3.9172 c 7.2459,-2.5457 21.1359,-0.6779 32.4351,2.3264 15.2851,-3.0581 31.3227,-2.8074 46.5568,-3.0536 9.8237,-0.3807 19.8549,0.1187 27.4146,7.2333 14.4245,6.6776 9.7173,6.9947 -3.2086,4.6589 -1.1089,3.4176 -0.7047,8.3651 -0.031,13.5348 h 30.9042 c 1.1689,-4.9715 1.8061,-10.0283 1.9648,-14.8219 1.0739,-19.9613 -11.5069,-43.4654 -28.4311,-53.8396 0.4887,0.2144 0.955,0.6841 1.4111,0.7169 -0.6234,-0.5678 -1.302,-1.3127 -2.1755,-1.252 z m 104.7412,10.3902 c -5.1897,2.0496 -10.0575,4.8637 -15.2083,7.0267 -6.5491,2.8938 -13.1688,5.8637 -20.0759,7.7209 0.6767,1.0195 2.1118,1.7135 3.0681,2.566 9.777,7.2663 20.5531,14.0407 32.836,15.824 3.6886,0.699 8.1967,-0.082 10.1774,-3.6321 2.7256,-4.2426 1.6942,-9.4093 1.6673,-14.1319 0.042,-1.6636 0.1326,-3.3247 0.2046,-4.9875 -4.5389,-3.0457 -8.3803,-7.0801 -12.6692,-10.3861 z m 45.6849,9.3841 v 0 c 3.1435,6.3321 6.3385,12.6409 9.537,18.9458 0.1862,0.3634 0.3685,0.7302 0.5599,1.0909 l 8.0328,16.5306 c 1.1538,2.8966 2.3972,5.7594 3.5144,8.6713 0.5537,1.3784 1.0397,2.7808 1.5372,4.1796 h 76.4279 c 1.0133,-1.8904 1.3848,-4.0097 0.8326,-6.3862 l -86.1302,-35.1066 c 0.074,0.028 0.1937,0.099 0.2542,0.099 -4.8722,-2.6449 -9.6781,-5.4126 -14.5658,-8.0287 z"
             transform="matrix(0.26458333,0,0,0.26458333,79.07817,-92.243366)" /></g><path
           id="path67"
           style="opacity:1;fill:#ff6600;fill-opacity:1;stroke:none;stroke-width:19.1519;stroke-linecap:round;stroke-dasharray:none;stroke-opacity:1;paint-order:normal"
           d="m 1889.6485,1097.2152 c -0.166,0.01 -0.3332,0.021 -0.5016,0.044 h -1.2881 v -6e-4 c -7.7334,-0.1606 -15.0399,3.0833 -21.6145,6.8575 -14.0418,8.3746 -24.4288,21.9985 -30.5623,37.0075 -1.615,3.54 -3.4207,7.4995 -2.1415,11.4442 0.048,0.4412 0.66,1.8146 1.0487,0.8098 3.9822,-7.2252 7.479,-14.812 12.7753,-21.2143 8.3863,-10.1528 17.6721,-20.1771 29.7214,-25.963 5.9277,-2.8013 12.6618,-2.3214 18.9708,-3.4246 0.5751,-0.4533 -0.3993,-1.3199 -0.5028,-1.8437 -1.2194,-2.082 -3.4151,-3.817 -5.9054,-3.7197 z"
           sodipodi:nodetypes="cccccccccccccc" /></g><path
         style="fill:#d38d5f;fill-opacity:1;stroke:none;stroke-width:5.2252;stroke-linecap:round;paint-order:stroke fill markers"
         d="m 8137.8982,4023.1112 c -20.4511,0.6413 -38.098,13.0589 -52.6932,26.346 -16.7921,15.5454 -33.039,31.9454 -46.4093,50.581 -5.6706,8.3618 -10.7949,17.4143 -13.1836,27.2918 -0.8559,10.2819 7.6696,18.0394 15.5859,23.0888 13.9393,8.9386 29.8773,14.1504 45.6302,18.8978 22.9599,6.6863 47.4739,8.8317 71.0427,4.2272 17.738,-4.7084 34.4375,-12.5699 51.4104,-19.4182 26.1478,-11.0092 52.1334,-22.5729 79.0857,-31.4864 7.8644,-4.1347 10.7328,-13.3447 14.6515,-20.7167 1.9543,-4.8431 5.1388,-9.17 6.8719,-14.0593 0.8942,-3.4884 -3.8002,-3.3873 -5.9054,-4.3332 -33.9709,-9.1652 -67.3891,-20.5782 -99.2948,-35.4783 -16.1527,-6.7715 -31.3573,-15.7484 -47.9101,-21.544 -6.0928,-2.0096 -12.4019,-3.7522 -18.8819,-3.3965 z"
         id="path69"
         transform="matrix(0.26458333,0,0,0.26458333,79.07817,-92.243366)" /><path
         id="path70"
         style="fill:#d38d5f;fill-opacity:1;stroke:none;stroke-width:2.6126;stroke-linecap:round;paint-order:stroke fill markers"
         d="m 8465.8563,3925.3177 c 0.3653,4.5873 0.6423,9.2986 -0.1191,13.885 -1.4582,6.4419 -5.0108,13.1616 -11.3184,15.9432 -0.7993,0.3095 -0.074,-1.2511 -0.2596,-1.5799 0.8009,-5.5586 -0.122,-11.8027 -4.2764,-15.8955 -3.21,-3.7281 -7.5347,-6.2847 -12.0585,-8.07 1.1918,3.8772 2.2153,7.978 1.7313,12.0931 -0.843,11.3874 -10.0009,21.2026 -21.0028,23.7081 -19.141,5.2933 -38.7416,9.5891 -56.8279,18.0185 -8.1275,3.8469 -15.961,8.5249 -22.3684,14.9065 -18.9042,17.8827 -35.4575,38.907 -45.2064,63.2163 -0.4875,1.493 -1.3546,3.0031 -1.6015,4.5166 4.2186,3.0691 8.9665,5.4605 13.8353,7.3363 3.1844,0.9433 6.9011,2.511 10.0935,0.8094 2.9654,-1.9248 4.2202,-5.5059 6.2673,-8.254 12.0512,-18.6789 25.7917,-36.338 41.7633,-51.8395 23.1147,-22.655 51.1833,-40.6982 82.3299,-49.9783 6.5259,-2.084 13.2703,-3.3323 19.8992,-5.0035 4.2503,-1.497 7.1695,-5.6945 7.3775,-10.1627 0.641,-8.4916 -2.8122,-16.9249 -8.0289,-23.4938 -0.068,-0.049 -0.1351,-0.1586 -0.2294,-0.1558 z"
         transform="matrix(0.26458333,0,0,0.26458333,79.07817,-92.243366)" /><path
         style="fill:#d38d5f;fill-opacity:1;stroke:none;stroke-width:2.6126;stroke-linecap:round;paint-order:stroke fill markers"
         d="m 8526.8479,3957.7807 c -4.9349,0.1168 -9.5625,2.157 -14.0952,3.8862 5.7814,7.9523 12.4418,15.7915 14.7837,25.5889 0.6722,1.7426 0.2264,3.8497 1.1626,5.458 5.4082,2.9357 12.0682,4.2698 16.145,9.2226 2.6963,4.1161 3.5869,9.1062 5.9084,13.4252 4.8149,10.2186 11.7356,19.7262 21.2982,25.962 5.8875,4.0197 12.7797,6.5037 19.9028,6.9995 8.1472,0.978 16.3897,1.1463 24.5476,0.186 10.3129,-1.0576 20.4808,-4.2452 29.36,-9.621 6.152,-4.2876 10.8201,-12.0371 9.0514,-19.7007 -0.7575,-3.4287 -2.8769,-6.5437 -6.0443,-8.1622 -14.7986,-9.428 -32.2057,-13.0396 -48.6979,-18.3344 -7.7743,-2.5273 -15.5645,-5.1442 -22.9492,-8.6738 -14.558,-7.3204 -27.0576,-18.3806 -42.3467,-24.294 -2.5946,-0.839 -5.2586,-1.9591 -8.0264,-1.9423 z"
         id="path72"
         transform="matrix(0.26458333,0,0,0.26458333,79.07817,-92.243366)" /></g><g
       id="text1"
       style="font-size:38.1px;line-height:1.25;font-family:Arial;-inkscape-font-specification:Arial;text-align:center;text-anchor:middle;fill:#214478;stroke:#214478;stroke-width:1.165"
       aria-label="&#10;Marty"
       transform="translate(2.2309008,-5.1482322)"><g
         id="path14"><path
           id="path53"
           style="color:#000000;-inkscape-font-specification:Arial;stroke:none;-inkscape-stroke:none"
           d="m 2058.6649,2529.035 0.033,0.012 c -0.3014,0.014 -0.6046,0.1889 -0.7793,0.4139 -0.1747,0.2251 -0.2645,0.4808 -0.3266,0.7679 l -0.012,0.061 v 0.025 c -0.032,0.2602 -0.139,1.2947 -0.34,3.254 -0.1769,1.9456 -0.4167,4.0205 -0.7204,6.2224 -0.2778,2.1968 -0.5583,5.9147 -0.8222,6.8745 -0.3624,1.2706 -0.5455,2.2562 -0.5157,3.0334 v 0.012 0.014 c 0.061,0.7615 0.394,1.4444 0.9529,1.9435 0.2838,0.2693 0.5308,0.4753 0.7969,0.6129 0.2699,0.1396 0.6594,0.2405 1.0061,0.023 0.2774,-0.1734 0.3185,-0.3518 0.3845,-0.5276 0.066,-0.1758 0.1162,-0.3744 0.1643,-0.615 0.096,-0.4811 0.1786,-1.1286 0.2558,-1.9652 0.074,-0.8846 0.2626,-4.4306 0.5664,-6.3801 0.3076,-1.9992 0.4756,-3.8121 0.5018,-5.4436 v -0.01 c 0.025,-0.78 0.051,-1.3983 0.076,-1.8459 0.015,-0.2793 0.052,-0.4305 0.082,-0.6227 0.059,0.089 0.099,0.1193 0.1638,0.2321 0.199,0.3482 0.4635,0.829 0.7912,1.434 0.8227,1.6476 1.319,2.8499 1.4707,3.4783 v -0.014 c 0.1475,0.6783 0.4875,1.4728 1.0098,2.4391 v 0.01 l 0.01,0.01 c 0.2652,0.4546 0.4697,0.8116 0.6113,1.0702 0.1417,0.2587 0.2312,0.4689 0.215,0.4201 0.1402,0.403 0.4418,0.7761 0.8614,0.908 0.4176,0.1313 0.8397,0.037 1.2537,-0.1463 0.998,-0.4252 1.7533,-1.294 2.25,-2.4804 0.4243,-1.0234 0.9001,-2.0208 1.4242,-2.9942 v -0.01 -0.01 c 0.1167,-0.2334 0.2876,-0.668 0.5938,-1.4589 0.2993,-0.798 0.5833,-1.5065 0.8552,-2.1254 v -0.01 c 0.02,-0.041 0.03,-0.048 0.049,-0.086 0.084,0.2763 0.167,0.5318 0.2635,0.988 v -0.01 c 0.1563,0.7815 0.363,1.6103 0.6212,2.4882 0.2499,0.8496 0.4885,1.7779 0.7147,2.7833 0.2212,0.9831 0.4353,2.3394 0.6371,4.0546 0.2052,1.5646 0.3609,2.511 0.615,3.0918 v 0.01 0.01 c 0.2677,0.5736 0.9034,0.9059 1.557,0.9059 0.1949,0 0.3669,-0.011 0.5405,-0.055 0.1717,-0.043 0.3693,-0.119 0.5277,-0.326 0.1691,-0.2164 0.2,-0.4101 0.2248,-0.6171 0.025,-0.2099 0.025,-0.4416 0.012,-0.7152 -0.055,-1.1883 -0.4195,-3.012 -1.0841,-5.5681 -0.3293,-1.2664 -0.5759,-2.265 -0.7385,-2.9905 -0.1626,-0.7254 -0.2341,-1.2376 -0.2341,-1.2831 0,-0.3579 -0.02,-0.6198 -0.098,-0.8827 -0.034,-0.1848 -0.096,-0.3911 -0.2568,-0.557 -0.014,-0.017 -0.034,-0.043 -0.054,-0.078 -0.039,-0.077 -0.097,-0.2045 -0.1623,-0.3555 v -0.01 c -0.1134,-0.3186 -0.2493,-0.7929 -0.3964,-1.4041 -0.2349,-1.0954 -0.5082,-1.9719 -0.8475,-2.6505 -0.2874,-0.5749 -0.3968,-1.0009 -0.3968,-1.1115 0,-0.5376 -0.2072,-1.0721 -0.6543,-1.3534 -0.2075,-0.1326 -0.4628,-0.1496 -0.6325,-0.1054 -0.1774,0.046 -0.3105,0.1237 -0.4454,0.2165 -0.2698,0.1855 -0.5442,0.4493 -0.877,0.8087 -0.6667,0.72 -1.1095,1.2162 -1.1095,1.9198 v -0.053 c 0,0.05 -0.1903,0.6176 -0.586,1.3844 -0.5355,0.9948 -0.9455,1.8169 -1.234,2.4727 v 0.01 c -0.2592,0.6216 -0.4088,0.9669 -0.4594,1.3218 l -0.01,0.041 v 0.041 c 0,0.023 -0.016,0.1223 -0.092,0.2734 -0.058,0.1164 -0.2392,0.3827 -0.5292,0.7209 l -0.01,0.01 -0.01,0.01 c -0.1814,0.2267 -0.3387,0.3773 -0.4414,0.4496 -0.052,0.037 -0.029,0.024 -0.041,0.029 -0.012,-0.01 0.016,0.012 -0.017,-0.029 -0.077,-0.097 -0.1867,-0.2828 -0.3008,-0.5452 -0.2023,-0.4624 -0.577,-1.124 -1.1369,-2.0407 l -0.01,-0.01 c -0.5241,-0.8991 -0.8483,-1.5156 -0.9085,-1.6661 l 0.01,0.018 c -0.125,-0.3436 -0.3324,-0.7202 -0.6171,-1.1622 l -0.01,-0.012 c -0.2456,-0.4179 -0.43,-0.7522 -0.5452,-0.9824 -0.7268,-1.4276 -1.4158,-2.4859 -2.1249,-3.1951 -0.4886,-0.4887 -0.913,-0.8466 -1.5157,-0.8186 z m 56.0473,1.3322 0.01,0.014 c -0.4214,-0.038 -0.9036,0.1669 -1.141,0.5333 0,0 -0.01,3e-4 -0.012,0.01 l -0.088,0.1426 v 0.1 c -0.018,0.062 -0.065,0.1324 -0.082,0.2031 -0.04,0.1653 -0.075,0.3637 -0.1111,0.6056 -0.073,0.4838 -0.1459,1.142 -0.2227,1.9865 -0.1,1.1745 -0.251,1.9675 -0.3421,2.1952 v 0.01 0.01 c -0.061,0.1702 -0.4202,0.7111 -1.0604,1.4005 -0.4126,0.4383 -0.7113,0.7728 -0.9121,1.0309 -0.2163,0.2781 -0.3907,0.5507 -0.3907,0.9297 0,0.1732 0.052,0.3762 0.1737,0.5389 0.1221,0.1628 0.296,0.2654 0.4552,0.3184 h 0.012 0.012 c 0.2832,0.081 0.5916,0.098 0.9984,0.098 0.2563,0 0.427,0.038 0.494,0.066 0.024,0.011 0.024,0.01 0.027,0.01 v 0.01 c 0,10e-5 0.017,0.079 0.024,0.186 0.01,0.1437 0.01,0.3559 -0.01,0.6232 -0.024,0.5346 -0.092,1.2934 -0.2051,2.2635 v 0.01 0.01 c -0.077,0.8685 -0.1286,1.5731 -0.1545,2.1193 v 0.014 0.014 c 0,0.5371 0.038,0.9945 0.1292,1.3885 v 0.01 c 0.081,0.3232 0.1618,0.5889 0.2578,0.8129 l 0.014,0.031 0.018,0.029 c 0.085,0.1493 0.2218,0.4208 0.3963,0.7947 0.1625,0.3483 0.3044,0.7361 0.4238,1.1659 v 0.016 0.015 c 0.1376,0.4128 0.5247,0.7219 0.9338,0.8335 0.4221,0.1151 0.974,0.1349 1.8298,0.1349 0.6896,0 1.2434,-0.028 1.6836,-0.092 0.4404,-0.064 0.7734,-0.1032 1.0899,-0.4196 0.084,-0.084 0.2862,-0.2322 0.5881,-0.3948 0.3671,-0.1976 0.6986,-0.4271 0.9901,-0.6894 0.3297,-0.2968 0.5752,-0.6789 0.7302,-1.1131 v -0.01 -0.01 c 0.1416,-0.4253 0.2329,-0.7698 0.1214,-1.172 -0.097,-0.3769 -0.3278,-0.6643 -0.6371,-0.9746 -0.3035,-0.332 -0.5076,-0.5908 -0.9705,-0.6677 -0.3801,-0.063 -0.7067,0.095 -0.9783,0.2987 l -0.014,0.01 -0.012,0.012 c -0.4033,0.3412 -0.7028,0.7743 -0.7028,1.2832 0,0.074 -2e-4,0.1174 -0.2522,0.2656 -0.2559,0.1482 -0.7433,0.3079 -1.4278,0.416 l -0.6951,0.1152 v -3.4649 c 0,-1.3798 0.015,-2.4543 0.046,-3.2148 0.016,-0.3803 0.035,-0.6826 0.057,-0.8986 0.022,-0.2159 0.064,-0.3709 0.047,-0.3261 v -0.01 -5e-4 c 0.013,-0.01 0.046,-0.026 0.1251,-0.053 0.1617,-0.055 0.4688,-0.1034 0.8883,-0.1034 1.008,0 1.8164,-0.1615 2.4102,-0.6155 0.2844,-0.2175 0.5295,-0.4992 0.586,-0.8805 0.056,-0.3791 -0.1209,-0.7431 -0.3576,-1 -0.493,-0.5608 -1.2675,-0.8036 -2.2712,-0.9121 l -1.0392,-0.1002 v -2.0252 c 0,-0.8736 -0.021,-1.5686 -0.068,-2.0996 -0.047,-0.5309 -0.054,-0.8537 -0.2894,-1.2227 l -0.012,-0.02 -0.014,-0.018 c -0.2569,-0.3426 -0.6773,-0.5385 -1.1017,-0.5742 z m -26.6351,2.3823 0.01,0.02 h -0.1938 c -0.1237,0.01 -0.2758,0.024 -0.4548,0.047 -0.427,0.031 -0.9454,0.1429 -1.5999,0.3261 -0.662,0.1854 -1.3443,0.4353 -2.0484,0.7477 -0.7569,0.3093 -1.5251,0.7995 -2.3188,1.4609 -0.7808,0.6465 -1.4555,1.4026 -2.0195,2.2619 l -0.3591,0.5467 0.076,0.039 c -0.2792,0.4899 -0.5825,0.9875 -0.6738,1.3984 -0.1235,0.5556 -0.1913,1.4512 -0.2424,2.8086 v 0.01 c -0.026,1.308 -0.013,2.1436 0.086,2.6717 0.097,0.5166 0.3476,0.9928 0.7168,1.3927 0.2164,0.2283 0.3703,0.4161 0.4568,0.541 0.086,0.1249 0.068,0.2097 0.068,0.049 0,0.379 0.1963,0.6681 0.4299,0.91 0.2336,0.2419 0.5362,0.4619 0.9178,0.6935 h 0.01 0.01 c 0.7235,0.4134 1.4844,0.813 2.283,1.1994 0.3961,0.1856 0.6976,0.3412 0.8904,0.4569 0.1929,0.1157 0.2717,0.2835 0.168,0.076 l 0.014,0.023 0.014,0.023 c 0.1543,0.2469 0.3419,0.316 0.5095,0.3752 0.1677,0.059 0.345,0.094 0.553,0.123 0.4158,0.057 0.9545,0.08 1.6422,0.08 0.8559,0 1.4477,-0.028 1.8831,-0.1287 h 0.02 l 0.022,-0.01 c 0.4385,-0.1349 0.8348,-0.3999 1.1911,-0.7561 l 0.012,-0.01 0.01,-0.012 c 0.4991,-0.5547 0.8357,-1.0479 0.8357,-1.6469 0,-0.076 0.082,-0.3052 0.4516,-0.631 h 0.01 c 0.102,-0.094 0.1514,-0.1205 0.1954,-0.1462 0,0.012 0.069,0.049 0.2284,0.199 0.2,0.1883 0.473,0.4676 0.8108,0.8304 0.4404,0.4663 0.8049,0.8201 1.1172,1.0759 0.3537,0.2948 0.6889,0.5157 1.1348,0.5157 0.2229,0 0.4663,-0.085 0.6403,-0.2304 0.174,-0.1451 0.2819,-0.3282 0.3576,-0.5173 v -0.01 -0.01 c 0.2052,-0.5645 -0.01,-1.1067 -0.3436,-1.6991 -0.3141,-0.6238 -0.8753,-1.4702 -1.7152,-2.6153 v -0.01 l -1.2635,-1.6118 -0.1819,-4.2731 c -0.077,-1.5321 -0.1682,-2.7462 -0.279,-3.6525 -0.1103,-0.9018 -0.1873,-1.4463 -0.4455,-1.8965 -0.3435,-0.6302 -1.0822,-0.8728 -1.9141,-0.8728 -0.8147,0 -1.3749,-0.079 -1.4784,-0.1173 l 0.061,0.027 c -0.1775,-0.089 -0.2341,-0.069 -0.3007,-0.072 z m 10.5048,0.4341 c -0.3662,0.046 -0.7081,0.2804 -0.908,0.5803 v 0.01 l -0.01,0.01 c -0.1489,0.2382 -0.1093,0.2817 -0.1287,0.4025 -0.019,0.1208 -0.034,0.2644 -0.051,0.4434 -0.033,0.3581 -0.066,0.8525 -0.098,1.4919 -0.064,1.2789 -0.1281,3.1356 -0.1917,5.5764 l -0.1974,7.5742 0.9921,0.9436 0.01,0.01 c 0.2994,0.2722 0.5624,0.4785 0.8263,0.6232 0.2638,0.1447 0.5635,0.2682 0.9296,0.1462 0.3285,-0.1095 0.3816,-0.3078 0.4336,-0.4294 0.052,-0.1217 0.08,-0.2344 0.1075,-0.3674 0.055,-0.2659 0.097,-0.6049 0.1328,-1.0429 0.072,-0.8755 0.1188,-2.1394 0.1442,-3.8085 0.051,-2.6481 0.204,-4.4392 0.4025,-5.2348 0.2218,-0.8149 0.6408,-1.3944 1.3126,-1.8278 0.3184,-0.2123 0.8873,-0.3728 1.7126,-0.3964 0.8259,-0.024 1.3042,0.1343 1.3927,0.2047 -0.023,-0.018 0.2554,0.4084 0.4728,1.1332 0.2521,0.8123 0.6348,1.4632 1.1932,1.8903 l 0.012,0.01 0.014,0.01 c 0.2136,0.1468 0.386,0.2573 0.5432,0.34 0.079,0.041 0.1522,0.078 0.2444,0.1075 0.087,0.028 0.2066,0.067 0.4217,0.01 0.3786,-0.1054 0.4357,-0.2997 0.5291,-0.4609 0.096,-0.1659 0.1825,-0.3592 0.2775,-0.6036 0.5429,-1.4 0.3195,-2.8368 -0.6154,-4.0313 -0.9118,-1.2212 -2.2933,-1.9501 -4.0075,-2.1678 h -0.01 c -1.2375,-0.1345 -2.2594,-0.03 -3.053,0.4139 -0.2698,0.1524 -0.486,0.2588 -0.6485,0.3282 -0.044,-0.692 -0.4717,-1.3102 -1.1286,-1.6387 -0.3426,-0.1713 -0.6905,-0.2742 -1.0568,-0.2284 z m 40.8099,1.2061 c -0.1043,-0.017 -0.2097,-0.017 -0.3018,0 v 0.01 c -0.1843,0.037 -0.3216,0.12 -0.4434,0.2113 -0.2411,0.1809 -0.437,0.4201 -0.6562,0.7344 -0.3814,0.5286 -0.7448,1.2693 -1.1349,2.2577 -0.3482,0.9201 -0.6766,1.5136 -0.7286,1.572 l -0.019,0.023 -0.018,0.025 c -0.1168,0.1636 -0.2281,0.3687 -0.4217,0.7302 -0.1937,0.3616 -0.4494,0.8526 -0.7679,1.4769 -0.6211,1.1919 -1.2252,2.1356 -1.7968,2.8262 v 0.01 l -0.6408,0.8185 -0.1209,-0.1602 -0.01,-0.01 c -0.3598,-0.4497 -0.7644,-1.138 -1.1839,-2.051 l -1.7498,-3.6933 v -0.01 c -0.3005,-0.6511 -0.6264,-1.3669 -0.9767,-2.1425 l -0.01,-0.02 c -0.1135,-0.2765 -0.2143,-0.5066 -0.3049,-0.6878 -0.084,-0.1688 -0.1495,-0.2879 -0.279,-0.4295 -0.2586,-0.3102 -0.7132,-0.3874 -1.0547,-0.3142 -0.399,0.083 -0.7194,0.4365 -0.8362,0.7964 -0.1173,0.3617 -0.1261,0.756 -0.084,1.2309 v 0.01 0.01 c 0.112,0.9239 0.4345,1.8494 0.9478,2.7678 v 0.01 c 0.2471,0.42 0.4278,0.7639 0.5405,1.0175 0.1127,0.2535 0.1411,0.4393 0.1411,0.4025 0,0.384 0.1173,0.5666 0.2847,0.955 0.1674,0.3884 0.4099,0.8911 0.7307,1.5198 0.6256,1.2011 1.1499,2.3617 1.5725,3.4804 0.2027,0.5366 0.2923,0.9505 0.2966,1.1855 0,0.2351 -0.026,0.2124 -0.023,0.2108 l 0.027,-0.016 c -0.416,0.231 -0.6429,0.7306 -0.6429,1.1953 0,-0.1004 -0.1189,0.3001 -0.5524,0.7989 -0.4335,0.4988 -1.1156,1.1598 -2.0314,1.9627 -0.9153,0.8025 -1.6777,1.4049 -2.2717,1.8009 -0.594,0.396 -1.0461,0.5617 -1.1601,0.5705 h 0.014 c -0.3126,0.016 -0.6143,0.083 -0.8733,0.2868 -0.259,0.2045 -0.4026,0.5561 -0.4026,0.8656 0,0.6165 0.4233,1.1193 0.9886,1.4784 0.4071,0.2718 0.6437,0.4765 1.1173,0.4765 0.4437,0 0.692,-0.195 1.0567,-0.4475 1.476,-1.0434 2.4902,-1.8153 3.0918,-2.3611 0.6178,-0.5118 1.148,-1.0803 1.5839,-1.7069 1.2286,-1.6595 2.1552,-2.9577 2.7792,-3.8969 0.313,-0.4712 0.5513,-0.8521 0.7188,-1.156 0.084,-0.152 0.1493,-0.2825 0.201,-0.4083 0.052,-0.1258 0.1018,-0.2289 0.1018,-0.4335 0,0.1252 -0.011,0.071 0.021,0 0.033,-0.075 0.092,-0.1972 0.1778,-0.3478 0.1701,-0.2991 0.441,-0.7236 0.801,-1.2578 l 0.01,-0.01 c 0.3792,-0.5436 0.6658,-0.9657 0.8614,-1.2656 0.098,-0.1509 0.1732,-0.2701 0.2305,-0.3695 0.029,-0.05 0.052,-0.094 0.076,-0.1442 0.015,-0.031 0.035,-0.063 0.052,-0.1245 0,1e-4 -0.01,0 -0.01,0 0,0 0.01,-0.017 0.012,-0.023 0.01,-0.039 0.019,-0.067 0.019,-0.153 0,0.092 -0.01,0.1187 -0.013,0.1416 0.01,-0.011 0.01,-0.013 0.015,-0.029 0.038,-0.072 0.1039,-0.189 0.1933,-0.3401 0.1785,-0.3017 0.4526,-0.7457 0.8185,-1.326 0.3835,-0.6009 0.6706,-1.0681 0.8692,-1.4123 0.099,-0.1721 0.1758,-0.313 0.2341,-0.4335 0.029,-0.06 0.054,-0.1144 0.076,-0.1757 0.022,-0.061 0.055,-0.1119 0.055,-0.2734 0,0.1047 0.021,-0.091 0.1189,-0.3338 0.098,-0.2429 0.2553,-0.5825 0.4671,-1.0062 v -0.01 l 0.01,-0.01 c 0.3766,-0.8339 0.6443,-1.721 0.8046,-2.6562 0.091,-0.4594 0.141,-0.8341 0.1328,-1.1601 -0.01,-0.3304 -0.043,-0.7115 -0.4351,-0.9571 -0.086,-0.054 -0.1897,-0.09 -0.294,-0.107 z m -3.0655,10.2309 c 0,0 0,0.01 -0.01,0.011 v 0.022 c 0,-1e-4 0,-0.017 0.01,-0.033 z m -48.3655,-8.5819 c 0.4151,0.028 0.6214,0.1269 0.647,0.1551 l 0.024,0.025 0.027,0.023 c -0.058,-0.05 2e-4,-0.011 0.039,0.1349 0.041,0.1456 0.08,0.3813 0.1034,0.6873 0.049,0.6162 0.086,1.4727 0.1111,2.5585 v 0.01 0.01 c 0.051,1.1037 0.1281,2.058 0.2325,2.8671 v 0.01 0.01 c 0.1657,1.0652 0.1056,2.0636 -0.1736,3.0195 -0.2787,0.9289 -0.7025,1.6018 -1.2599,2.0763 -0.5361,0.4272 -1.0269,0.5765 -1.5782,0.5194 -0.5291,-0.081 -1.7336,-0.5267 -3.4297,-1.3493 -0.8345,-0.4173 -1.3714,-1.0419 -1.6857,-1.9787 -0.2989,-0.9679 -0.3341,-1.9571 -0.1013,-3.0076 0.2584,-1.0778 0.7735,-2.1143 1.5663,-3.1233 0.7834,-0.997 1.6996,-1.7031 2.7735,-2.1466 0.7263,-0.3046 1.4517,-0.4648 2.1916,-0.4878 l 0.01,-0.012 h 0.01 0.01 c 0.1856,-0.012 0.3474,-0.01 0.4857,-5e-4 z"
           sodipodi:nodetypes="ccsccccccccccscscccsccccccccccscscccccccccccssccccsccscsssccccccssccsscccccccscccccccccccccccscccccccccccccccssccccsccscccccccscccccscccsssssscccccscccscccscsccccssscccsscccccccccscccccsccscccsccccscccccsccccccscccsccscccccccccscsccccccccccsscccsssscccccccccccscsccccccscccccsccccssccccccccccccccscccccscscsccccssscccscscccsccccccccssscccccsccsscscccccsccccccccccccccccccccccccsccccccc" /></g><g
         id="path18" /></g><path
       id="path59"
       style="fill:#214478;fill-opacity:1;stroke:none;stroke-width:0.25625;stroke-linecap:round;stroke-dasharray:none;stroke-opacity:1;paint-order:markers fill stroke"
       d="m 2159.2529,2522.816 c -1.1897,-0.3766 -2.5034,0.3498 -3.1773,1.3431 -0.162,0.227 -0.3089,0.4674 -0.4393,0.7179 -0.028,0.051 0.1292,0.2709 0.1036,0.3239 -0.049,0.099 -0.2765,0.033 -0.3195,0.1357 -0.6813,1.6188 -0.691,3.5511 0.3226,5.0271 0.5877,1.015 2.0051,1.235 2.9735,0.6582 1.6809,-0.9331 2.4468,-2.9524 2.4549,-4.7956 -0.01,-1.2687 -0.5273,-2.6717 -1.6822,-3.3197 l -5e-4,-10e-5 c -0.077,-0.035 -0.1565,-0.066 -0.2358,-0.09 z m 7.6752,3.8241 c -1.3482,-0.4206 -2.8228,0.28 -3.7915,1.2266 -1.2173,1.1704 -2.1056,2.9056 -1.7675,4.6223 0.2401,0.9176 0.9582,1.832 1.9763,1.8635 1.6832,0.1656 3.2211,-0.9083 4.1719,-2.2153 0.6407,-1.0566 1.2392,-2.2785 0.9833,-3.5502 -0.1127,-0.7292 -0.5054,-1.4311 -1.1684,-1.7821 v -0.01 c -0.041,-0.031 -0.09,-0.046 -0.1384,-0.062 -0.088,-0.038 -0.1779,-0.071 -0.2676,-0.1 z m -15.6701,0.2991 c -0.8881,-0.2413 -1.9107,0.082 -2.4289,0.8695 -1.4841,1.8989 -1.4589,4.9435 0.3511,6.6291 0.8261,0.8404 2.2897,0.645 3.0402,-0.1959 1.6491,-1.7626 1.6592,-4.7438 0.1458,-6.5902 -0.2075,-0.2341 -0.4529,-0.4404 -0.7375,-0.5741 -0.1195,-0.059 -0.2438,-0.1036 -0.3707,-0.1385 z m 18.5177,9.3654 c -1.2282,-0.3686 -2.631,0.071 -3.6147,0.8612 -0.9343,0.7193 -1.7515,1.8048 -1.6592,3.0412 0.034,0.7126 0.4328,1.4082 1.1205,1.6676 1.4471,0.6152 3.1332,0.016 4.2373,-1.0057 0.9301,-0.813 1.6073,-2.1215 1.2282,-3.367 -0.1337,-0.4131 -0.422,-0.7714 -0.7982,-0.9885 -0.1666,-0.087 -0.3385,-0.156 -0.5139,-0.2088 z m -12.629,-1.1645 c -0.6106,-0.1554 -1.2439,-0.2153 -1.8743,-0.1592 -1.3475,0.05 -3.2826,0.9651 -3.48,1.7431 -0.5065,0.1484 -1.1671,0.1074 -1.5941,0.4147 -0.9707,0.7523 -1.9164,1.6027 -2.5437,2.6709 -0.4636,0.9467 -0.1994,2.2553 0.6603,2.8844 0.7352,0.4417 1.5449,0.7624 2.4084,0.8177 0.9755,0.1145 1.9839,0.2191 2.9229,0.5195 0.2363,0.076 1.0537,-0.2494 1.2796,-0.1457 0.2478,0.1145 -0.097,0.6592 0.1348,0.8151 1.162,0.7912 1.891,2.0431 2.9342,2.9589 0.857,0.6421 2.1842,0.9393 3.0582,0.1688 0.8107,-0.8377 1.0209,-2.0695 0.9848,-3.1955 -0.062,-2.484 -0.3755,-5.0781 -1.6772,-7.2478 -0.5022,-0.8247 -1.2779,-1.4576 -2.1448,-1.8688 v -4e-4 c -0.3444,-0.1559 -0.7028,-0.2828 -1.0691,-0.3757 z" /></g></svg>
